<svg width="589" height="214" viewBox="0 0 589 214" fill="none" xmlns="http://www.w3.org/2000/svg">
<path d="M107.624 208V209H108.624H150.96H151.96V208V165.512H178.032H179.032V164.512V128.512V127.512H178.032H151.96V4.95996V3.95996H150.96H113.52H113.062L112.763 4.30665L2.17064 132.467L1.83985 132.85L1.95304 133.344L9.15304 164.736L9.33113 165.512H10.1277H107.624V208ZM362.878 182.437L362.881 182.434C379.757 162.26 388.17 137.159 388.17 107.2C388.17 77.052 379.759 51.9489 362.88 31.965C346.174 11.9573 324.483 1.94397 297.89 1.94397C271.105 1.94397 249.222 12.0542 232.324 32.2531C215.447 52.2358 207.034 77.2423 207.034 107.2C207.034 137.346 215.349 162.449 232.035 182.433C248.743 202.444 270.532 212.456 297.314 212.456C324.097 212.456 345.979 202.444 362.878 182.437ZM328.738 153.013L328.736 153.016C321.032 164.666 310.773 170.424 297.89 170.424C285.013 170.424 274.556 164.575 266.463 152.721C258.538 140.83 254.538 125.679 254.538 107.2C254.538 88.5229 258.54 73.3751 266.462 61.6808L266.466 61.6747C274.37 49.8198 284.635 43.976 297.314 43.976C309.988 43.976 320.353 49.9109 328.452 61.9657L328.456 61.9717C336.573 73.8632 340.666 88.917 340.666 107.2C340.666 125.876 336.665 141.124 328.738 153.013ZM516.401 208V209H517.401H559.737H560.737V208V165.512H586.809H587.809V164.512V128.512V127.512H586.809H560.737V4.95996V3.95996H559.737H522.297H521.839L521.54 4.30665L410.948 132.467L410.617 132.85L410.731 133.344L417.931 164.736L418.109 165.512H418.905H516.401V208ZM107.624 68.4407V127.512H57.2235L107.624 68.4407ZM516.401 68.4407V127.512H466.001L516.401 68.4407Z" fill="#484848" stroke="url(#paint0_linear)" stroke-width="2"/>
<defs>
<linearGradient id="paint0_linear" x1="80" y1="-86" x2="514" y2="235" gradientUnits="userSpaceOnUse">
<stop stop-color="#696868"/>
<stop offset="1" stop-color="#696868" stop-opacity="0"/>
</linearGradient>
</defs>
</svg>
