<svg width="24" height="24" viewBox="0 0 24 24" fill="none" xmlns="http://www.w3.org/2000/svg">
<path fill-rule="evenodd" clip-rule="evenodd" d="M12 24C18.6274 24 24 18.6274 24 12C24 5.37258 18.6274 0 12 0C5.37258 0 0 5.37258 0 12C0 18.6274 5.37258 24 12 24ZM18.0203 5.97966C18.4825 6.44181 18.4825 7.19111 18.0203 7.65326L13.6736 12L18.0203 16.3467C18.4825 16.8089 18.4825 17.5582 18.0203 18.0203C17.5582 18.4825 16.8089 18.4825 16.3467 18.0203L12 13.6736L7.65326 18.0203C7.19111 18.4825 6.44181 18.4825 5.97966 18.0203C5.51751 17.5582 5.51751 16.8089 5.97966 16.3467L10.3264 12L5.97966 7.65327C5.51751 7.19112 5.51751 6.44182 5.97966 5.97967C6.44181 5.51751 7.19111 5.51751 7.65326 5.97967L12 10.3264L16.3467 5.97966C16.8089 5.5175 17.5582 5.51751 18.0203 5.97966Z" fill="#C8C8C8"/>
</svg>
