<?xml version="1.0" encoding="UTF-8"?>
<svg width="21px" height="21px" viewBox="0 0 21 21" version="1.1" xmlns="http://www.w3.org/2000/svg" xmlns:xlink="http://www.w3.org/1999/xlink">
    <!-- Generator: Sketch 61.2 (89653) - https://sketch.com -->
    <title>super g</title>
    <desc>Created with Sketch.</desc>
    <g id="Typing-School-2.0.6" stroke="none" stroke-width="1" fill="none" fill-rule="evenodd">
        <g id="Log-in-Main-Form" transform="translate(-815.000000, -708.000000)" fill="#000000">
            <g id="super-g" transform="translate(815.000000, 708.000000)">
                <path d="M20.3583333,8.58666667 C20.51,9.24 20.58,9.87 20.58,10.7333333 C20.58,13.93 19.4366667,16.625 17.4533333,18.4566667 C15.715,20.0666667 13.335,21 10.5,21 C6.39333333,21 2.85833333,18.6433333 1.13166667,15.2133333 L1.13166667,15.2133333 L4.52666667,12.5766667 C5.36666667,15.1083333 7.72333333,16.94 10.5,16.94 C12.0633333,16.94 13.2533333,16.5083333 14.14,15.89 L14.14,15.89 L14.379118,15.7122905 C15.6123414,14.7401269 16.1768627,13.3947059 16.2866667,12.4833333 L16.2866667,12.4833333 L10.5,12.4833333 L10.5,8.58666667 Z M10.5,1.1235457e-13 C13.335,1.1235457e-13 15.7033333,1.03833333 17.5233333,2.73 L17.5233333,2.73 L14.56,5.62333333 C13.8016667,4.91166667 12.4716667,4.06 10.5,4.06 C7.72333333,4.06 5.36666667,5.89166667 4.515,8.42333333 L4.515,8.42333333 L4.43013605,8.70612245 C4.27095238,9.27714286 4.17666667,9.88 4.17666667,10.5 C4.17666667,11.2233333 4.305,11.9233333 4.52666667,12.5766667 L4.52666667,12.5766667 L1.12,15.2133333 C0.408333333,13.79 -3.26760841e-12,12.1916667 -3.26760841e-12,10.5 C-3.26760841e-12,8.80833333 0.408333333,7.21 1.12,5.78666667 L1.12,5.78666667 L1.26007399,5.5181305 C3.03372114,2.23426362 6.50140351,1.1235457e-13 10.5,1.1235457e-13 Z" id="Combined-Shape" fill="#FFFFFF"></path>
                <polygon id="Shape" fill="none" points="0 0 21 0 21 21 0 21"></polygon>
            </g>
        </g>
    </g>
</svg>