<svg width="40" height="40" viewBox="0 0 40 40" fill="none" xmlns="http://www.w3.org/2000/svg">
<path d="M0 20C0 8.95431 8.95431 0 20 0C31.0457 0 40 8.95431 40 20C40 31.0457 31.0457 40 20 40C8.95431 40 0 31.0457 0 20Z" fill="currentColor" class="ddIcon"/>
<g opacity="0.6">
<path d="M11.0517 11.8822C11.2795 10.8068 12.2332 10 13.375 10H22.4792C23.7908 10 24.8542 11.0647 24.8542 12.3781V17.9272C24.8542 18.365 24.4997 18.7199 24.0625 18.7199C23.6253 18.7199 23.2708 18.365 23.2708 17.9272V12.3781C23.2708 11.9403 22.9164 11.5854 22.4792 11.5854H14.0394L18.4173 13.0127C19.0692 13.2252 19.5104 13.8337 19.5104 14.5202V27.8361H22.4792C22.9164 27.8361 23.2708 27.4812 23.2708 27.0434V22.6835C23.2708 22.2457 23.6253 21.8907 24.0625 21.8907C24.4997 21.8907 24.8542 22.2457 24.8542 22.6835V27.0434C24.8542 28.3568 23.7908 29.4215 22.4792 29.4215H19.5104V30.2069C19.5104 30.7173 19.0358 31.0946 18.5394 30.979L12.837 29.6512C11.7613 29.4007 11 28.4407 11 27.3348V12.2322C11 12.1094 11.0182 11.9921 11.0517 11.8822Z" fill="currentColor" class="ddIconArrow"/>
<path d="M26.2719 16.5352C26.5581 16.2772 27.0221 16.2772 27.3084 16.5352L29.7853 19.8382C30.0716 20.0962 30.0716 20.5144 29.7853 20.7724L27.3084 24.0754C27.0221 24.3334 26.5581 24.3334 26.2719 24.0754C25.9857 23.8174 25.9857 23.3992 26.2719 23.1412L27.8936 20.9659H22.4204C22.0156 20.9659 21.6875 20.6701 21.6875 20.3053C21.6875 19.9405 22.0156 19.6447 22.4204 19.6447H27.8936L26.2719 17.4694C25.9857 17.2115 25.9857 16.7932 26.2719 16.5352Z" fill="currentColor" class="ddIconArrow"/>
</g>
</svg>
