<svg width="40" height="40" viewBox="0 0 40 40" fill="none" xmlns="http://www.w3.org/2000/svg">
<path d="M0 20C0 8.95431 8.95431 0 20 0C31.0457 0 40 8.95431 40 20C40 31.0457 31.0457 40 20 40C8.95431 40 0 31.0457 0 20Z" fill="currentColor" class="ddIcon"/>
<path opacity="0.6" fill-rule="evenodd" clip-rule="evenodd" d="M8 18.5295C8 4.57757 32 4.40303 32 18.5295C32 27.2516 24.2487 30.5016 16.7539 28.9305C14.9239 31.0787 11.6805 31.8719 10.2857 32C11.8353 30.4345 12.0353 28.2057 11.9057 26.8593C9.47653 25.0728 8 22.3023 8 18.5295ZM19.5653 20.0733C19.3573 20.3933 19.2533 20.7293 19.2533 21.0813H20.9093C20.9093 20.8893 20.9773 20.6973 21.1133 20.5053C21.2573 20.3133 21.4253 20.1293 21.6173 19.9533C21.8173 19.7693 22.0133 19.5773 22.2053 19.3773C22.4053 19.1693 22.5733 18.9213 22.7093 18.6333C22.8533 18.3453 22.9253 18.0333 22.9253 17.6973C22.9253 16.9613 22.6573 16.3853 22.1213 15.9693C21.5933 15.5453 20.9653 15.3333 20.2373 15.3333C19.5893 15.3333 19.0013 15.4973 18.4733 15.8253C17.9533 16.1453 17.5733 16.6013 17.3333 17.1933L18.7493 18.0093C19.0293 17.2973 19.5053 16.9413 20.1773 16.9413C20.5213 16.9413 20.7893 17.0173 20.9813 17.1693C21.1733 17.3213 21.2693 17.5373 21.2693 17.8173C21.2693 18.0813 21.1613 18.3453 20.9453 18.6093C20.7373 18.8733 20.5093 19.1053 20.2613 19.3053C20.0133 19.4973 19.7813 19.7533 19.5653 20.0733ZM20.0813 24.0573C20.3613 24.0573 20.6013 23.9573 20.8013 23.7573C21.0013 23.5573 21.1013 23.3173 21.1013 23.0373C21.1013 22.7573 21.0013 22.5173 20.8013 22.3173C20.6013 22.1173 20.3613 22.0173 20.0813 22.0173C19.8013 22.0173 19.5613 22.1173 19.3613 22.3173C19.1613 22.5173 19.0613 22.7573 19.0613 23.0373C19.0613 23.3173 19.1613 23.5573 19.3613 23.7573C19.5613 23.9573 19.8013 24.0573 20.0813 24.0573Z" fill="currentColor" class="ddIconArrow"/>
</svg>
