<svg width="40" height="40" viewBox="0 0 40 40" fill="none" xmlns="http://www.w3.org/2000/svg">
<path d="M0 20C0 8.95431 8.95431 0 20 0C31.0457 0 40 8.95431 40 20C40 31.0457 31.0457 40 20 40C8.95431 40 0 31.0457 0 20Z" fill="currentColor" class="ddIcon"/>
<path opacity="0.6" fill-rule="evenodd" clip-rule="evenodd" d="M18.0598 8.52568C18.1095 8.22233 18.3673 8 18.6695 8H21.3305C21.6327 8 21.8905 8.22233 21.9401 8.52568L22.3794 11.2084C23.1562 11.4257 23.8909 11.7466 24.568 12.1559L26.6502 10.6419C26.8961 10.4632 27.2328 10.4915 27.4464 10.709L29.3281 12.6244C29.5417 12.8418 29.5696 13.1846 29.394 13.4349L27.8602 15.6207C28.1858 16.2244 28.4464 16.8697 28.6321 17.5467L31.4836 18.0305C31.7816 18.081 32 18.3435 32 18.651V21.3598C32 21.6673 31.7816 21.9298 31.4836 21.9803L28.6321 22.4641C28.4461 23.142 28.1852 23.7881 27.8589 24.3925L29.3834 26.5651C29.559 26.8154 29.5311 27.1582 29.3175 27.3756L27.4358 29.291C27.2222 29.5085 26.8854 29.5368 26.6396 29.3581L24.5703 27.8535C23.8888 28.2657 23.1489 28.5885 22.3664 28.806L21.9295 31.4743C21.8799 31.7777 21.622 32 21.3199 32H18.6589C18.3567 32 18.0989 31.7777 18.0492 31.4743L17.6113 28.7998C16.8326 28.5811 16.0964 28.2581 15.4181 27.8465L13.3392 29.3581C13.0933 29.5368 12.7566 29.5085 12.543 29.291L10.6613 27.3756C10.4477 27.1582 10.4198 26.8154 10.5954 26.5651L12.1319 24.3754C11.8099 23.7759 11.5521 23.1356 11.3679 22.4641L8.51643 21.9803C8.21841 21.9298 8 21.6673 8 21.3598V18.651C8 18.3435 8.21841 18.081 8.51643 18.0305L11.3679 17.5467C11.5527 16.8729 11.8117 16.2305 12.1352 15.6293L10.5954 13.4349C10.4198 13.1846 10.4477 12.8418 10.6613 12.6244L12.543 10.709C12.7566 10.4915 13.0933 10.4632 13.3392 10.6419L15.4262 12.1594C16.1049 11.7485 16.8415 11.4263 17.6206 11.2084L18.0598 8.52568ZM19.9742 24.6188C22.3493 24.6188 24.2747 22.6589 24.2747 20.2413C24.2747 17.8237 22.3493 15.8638 19.9742 15.8638C17.5992 15.8638 15.6738 17.8237 15.6738 20.2413C15.6738 22.6589 17.5992 24.6188 19.9742 24.6188Z" fill="currentColor" class="ddIconArrow"/>
</svg>
