<svg width="40" height="40" viewBox="0 0 40 40" fill="none" xmlns="http://www.w3.org/2000/svg">
<path d="M0 20C0 8.95431 8.95431 0 20 0C31.0457 0 40 8.95431 40 20C40 31.0457 31.0457 40 20 40C8.95431 40 0 31.0457 0 20Z" fill="currentColor"/>
<path opacity="0.6" fill-rule="evenodd" clip-rule="evenodd" d="M20 32C26.6274 32 32 26.6274 32 20C32 13.3726 26.6274 8 20 8C13.3726 8 8 13.3726 8 20C8 26.6274 13.3726 32 20 32ZM15.9222 20.4751C15.645 20.1979 15.645 19.7485 15.9222 19.4713L19.4713 15.9222C19.7485 15.645 20.1979 15.645 20.4751 15.9222L24.0242 19.4713C24.3014 19.7485 24.3014 20.1979 24.0242 20.4751C23.747 20.7523 23.2976 20.7523 23.0204 20.4751L20.683 18.1378V24.2054C20.683 24.5974 20.3652 24.9152 19.9732 24.9152C19.5812 24.9152 19.2634 24.5974 19.2634 24.2054L19.2634 18.1378L16.926 20.4751C16.6488 20.7523 16.1994 20.7523 15.9222 20.4751Z" fill="#2C2C2C"/>
</svg>
