<svg width="64" height="64" viewBox="0 0 64 64" fill="none" xmlns="http://www.w3.org/2000/svg">
<g clip-path="url(#clip0)">
<path d="M49.4556 30.9766H31.1264H12.5927C11.0937 31.1755 8.09558 32.1967 8.09558 34.69L6.57623 46.1389C6.00048 50.4773 5.49188 54.9756 6.95301 59.101C7.8932 61.7555 9.43727 64 11.8432 64H50.2051C52.6111 64 54.1551 61.7555 55.0953 59.101C56.5565 54.9756 56.0479 50.4773 55.4721 46.1389L53.9528 34.69C53.9528 32.1967 50.9547 31.1755 49.4556 30.9766Z" fill="url(#paint0_linear)"/>
<path d="M46.9218 39.8465C46.9218 44.7452 39.8347 48.7164 31.0924 48.7164C22.35 48.7164 15.2629 44.7452 15.2629 39.8465C15.2629 34.9478 22.35 30.9766 31.0924 30.9766C39.8347 30.9766 46.9218 34.9478 46.9218 39.8465Z" fill="url(#paint1_radial)"/>
<path d="M46.9218 39.8465C46.9218 44.7452 39.8347 48.7164 31.0924 48.7164C22.35 48.7164 15.2629 44.7452 15.2629 39.8465C15.2629 34.9478 22.35 30.9766 31.0924 30.9766C39.8347 30.9766 46.9218 34.9478 46.9218 39.8465Z" fill="url(#paint2_radial)"/>
<path d="M38.4613 34.32C38.4613 36.091 35.1621 38.8914 31.0924 38.8914C27.0227 38.8914 23.7235 36.091 23.7235 34.32C23.7235 32.5489 29.7107 29.7485 31.0924 29.7485C33.2224 29.7485 38.4613 32.5489 38.4613 34.32Z" fill="url(#paint3_radial)"/>
<path opacity="0.7" d="M38.4613 34.32C38.4613 36.091 35.1621 38.8914 31.0924 38.8914C27.0227 38.8914 23.7235 36.091 23.7235 34.32C23.7235 32.5489 29.7107 29.7485 31.0924 29.7485C33.2224 29.7485 38.4613 32.5489 38.4613 34.32Z" fill="url(#paint4_linear)"/>
<path opacity="0.7" fill-rule="evenodd" clip-rule="evenodd" d="M37.2205 35.2992C37.5393 34.8618 37.6425 34.5226 37.6425 34.32C37.6425 34.2974 37.6319 34.2066 37.5296 34.0358C37.4297 33.8691 37.268 33.6693 37.0377 33.4446C36.5768 32.995 35.9156 32.5174 35.1623 32.0769C34.4132 31.6389 33.6024 31.2548 32.8603 30.9824C32.0996 30.7032 31.4804 30.5673 31.0924 30.5673C31.0301 30.5673 30.8695 30.5879 30.5928 30.6627C30.3312 30.7334 30.0115 30.8399 29.6517 30.9781C28.9323 31.2544 28.0884 31.6437 27.2855 32.0869C26.4774 32.5329 25.742 33.0163 25.2207 33.4739C24.9596 33.703 24.7753 33.9057 24.6617 34.0737C24.5524 34.2354 24.5431 34.3133 24.5423 34.3198C24.5423 34.3203 24.5423 34.3204 24.5423 34.32C24.5423 34.5226 24.6454 34.8618 24.9643 35.2992C25.2735 35.7235 25.7418 36.1779 26.3473 36.5962C27.5591 37.4336 29.2413 38.0726 31.0924 38.0726C32.9435 38.0726 34.6257 37.4336 35.8375 36.5962C36.443 36.1779 36.9112 35.7235 37.2205 35.2992ZM31.0924 38.8914C35.1621 38.8914 38.4613 36.091 38.4613 34.32C38.4613 32.5489 33.2224 29.7485 31.0924 29.7485C29.7107 29.7485 23.7235 32.5489 23.7235 34.32C23.7235 36.091 27.0227 38.8914 31.0924 38.8914Z" fill="url(#paint5_linear)"/>
<path d="M17.9921 47.7758C17.9921 49.4338 15.7622 51.309 13.0113 51.309C10.2605 51.309 8.03052 49.4338 8.03052 47.7758C8.03052 46.1178 10.2605 45.3047 13.0113 45.3047C15.7622 45.3047 17.9921 46.1178 17.9921 47.7758Z" fill="url(#paint6_linear)"/>
<path fill-rule="evenodd" clip-rule="evenodd" d="M16.6971 50.3824C15.75 51.0928 14.4476 51.5818 13.0114 51.5818C11.5752 51.5818 10.2729 51.0928 9.3257 50.3824C8.38702 49.6784 7.75769 48.7235 7.75769 47.7758C7.75769 46.7957 8.42546 46.1032 9.37633 45.6701C10.3266 45.2373 11.615 45.0317 13.0114 45.0317C14.4078 45.0317 15.6963 45.2373 16.6465 45.6701C17.5974 46.1032 18.2652 46.7957 18.2652 47.7758C18.2652 48.7235 17.6358 49.6784 16.6971 50.3824ZM13.0114 51.3089C15.7622 51.3089 17.9922 49.4338 17.9922 47.7758C17.9922 46.1177 15.7622 45.3047 13.0114 45.3047C10.2606 45.3047 8.03061 46.1177 8.03061 47.7758C8.03061 49.4338 10.2606 51.3089 13.0114 51.3089Z" fill="#4A373C"/>
<path d="M17.9921 47.4885C17.9921 49.1465 15.7622 50.4906 13.0113 50.4906C10.2605 50.4906 8.03052 49.1465 8.03052 47.4885C8.03052 45.8304 10.2605 44.4863 13.0113 44.4863C15.7622 44.4863 17.9921 45.8304 17.9921 47.4885Z" fill="url(#paint7_radial)"/>
<path d="M28.2267 22.3794H33.958V32.341C33.958 33.3961 33.1027 34.2515 32.0476 34.2515H30.1371C29.082 34.2515 28.2267 33.3961 28.2267 32.341V22.3794Z" fill="url(#paint8_linear)"/>
<path fill-rule="evenodd" clip-rule="evenodd" d="M33.1393 23.1982H29.0454V32.341C29.0454 32.9439 29.5342 33.4327 30.1371 33.4327H32.0476C32.6505 33.4327 33.1393 32.9439 33.1393 32.341V23.1982ZM28.2267 22.3794V32.341C28.2267 33.3961 29.082 34.2515 30.1371 34.2515H32.0476C33.1027 34.2515 33.958 33.3961 33.958 32.341V22.3794H28.2267Z" fill="url(#paint9_linear)"/>
<path d="M42.9645 11.8721C42.9645 18.4288 37.6492 23.7441 31.0924 23.7441C24.5356 23.7441 19.2203 18.4288 19.2203 11.8721C19.2203 5.31531 24.5356 0 31.0924 0C37.6492 0 42.9645 5.31531 42.9645 11.8721Z" fill="url(#paint10_radial)"/>
</g>
<defs>
<linearGradient id="paint0_linear" x1="31.0241" y1="30.9766" x2="31.0241" y2="64" gradientUnits="userSpaceOnUse">
<stop offset="0.632231" stop-color="#40444B"/>
<stop offset="0.673554" stop-color="#939598"/>
<stop offset="0.780992" stop-color="#616267"/>
<stop offset="1" stop-color="#4B4C52"/>
</linearGradient>
<radialGradient id="paint1_radial" cx="0" cy="0" r="1" gradientUnits="userSpaceOnUse" gradientTransform="translate(31.0924 31.3177) rotate(90) scale(17.3987 19.3742)">
<stop stop-color="#C4C4C4"/>
<stop offset="0.348077" stop-color="#99999B"/>
<stop offset="0.376923" stop-color="#C2C2C2"/>
<stop offset="0.424038" stop-color="#898A8C"/>
<stop offset="0.45" stop-color="#BFBFC0"/>
<stop offset="0.478846" stop-color="#79797C"/>
<stop offset="0.511538" stop-color="#C1C1C1"/>
<stop offset="0.538462" stop-color="#68696D"/>
<stop offset="0.5625" stop-color="#C2C2C2"/>
<stop offset="0.5875" stop-color="#5B5B60"/>
<stop offset="0.638462" stop-color="#BBBBBB"/>
<stop offset="0.664423" stop-color="#4B4C51"/>
<stop offset="0.698077" stop-color="#CFCFCF"/>
<stop offset="0.734615" stop-color="#525358"/>
<stop offset="0.761058" stop-color="#A7A7A9"/>
<stop offset="0.784615" stop-color="#5A5B60"/>
<stop offset="0.817308" stop-color="#C1C1C2"/>
<stop offset="0.853846" stop-color="#4A4B50"/>
<stop offset="0.894231" stop-color="#999999"/>
<stop offset="0.940385" stop-color="#4C4D53"/>
<stop offset="0.966346" stop-color="#C4C4C4"/>
<stop offset="1" stop-color="#525358"/>
</radialGradient>
<radialGradient id="paint2_radial" cx="0" cy="0" r="1" gradientUnits="userSpaceOnUse" gradientTransform="translate(31.0924 30.9766) rotate(90) scale(17.7399 28.2857)">
<stop stop-color="#222326"/>
<stop offset="0.253846" stop-color="#282A2E"/>
<stop offset="1" stop-color="#393D40" stop-opacity="0"/>
</radialGradient>
<radialGradient id="paint3_radial" cx="0" cy="0" r="1" gradientUnits="userSpaceOnUse" gradientTransform="translate(31.0924 31.1131) rotate(90) scale(6.41364 7.36887)">
<stop stop-color="#222326"/>
<stop offset="1" stop-color="#4B4E54"/>
</radialGradient>
<linearGradient id="paint4_linear" x1="38.4613" y1="23.3349" x2="21.5712" y2="36.0272" gradientUnits="userSpaceOnUse">
<stop offset="0.468085" stop-color="#222326"/>
<stop offset="1" stop-color="#B4B5B7"/>
</linearGradient>
<linearGradient id="paint5_linear" x1="31.0924" y1="30.2261" x2="31.0924" y2="38.8914" gradientUnits="userSpaceOnUse">
<stop offset="0.629921" stop-color="#202020" stop-opacity="0"/>
<stop offset="1" stop-color="#202020"/>
</linearGradient>
<linearGradient id="paint6_linear" x1="16.2489" y1="47.1185" x2="12.9929" y2="51.2946" gradientUnits="userSpaceOnUse">
<stop stop-color="#DA1918"/>
<stop offset="1" stop-color="#FF6362"/>
</linearGradient>
<radialGradient id="paint7_radial" cx="0" cy="0" r="1" gradientUnits="userSpaceOnUse" gradientTransform="translate(12.6378 44.4863) rotate(109.15) scale(5.69389 9.45599)">
<stop stop-color="#DC2020"/>
<stop offset="1" stop-color="#FF5958"/>
</radialGradient>
<linearGradient id="paint8_linear" x1="28.2267" y1="28.2472" x2="33.958" y2="28.2472" gradientUnits="userSpaceOnUse">
<stop stop-color="#7F7F7F"/>
<stop offset="0.333333" stop-color="#A4A4A4"/>
<stop offset="0.510417" stop-color="#CACACA"/>
<stop offset="0.65625" stop-color="#B4B4B4"/>
<stop offset="0.776042" stop-color="#8B8B8B"/>
<stop offset="0.901042" stop-color="#686868"/>
</linearGradient>
<linearGradient id="paint9_linear" x1="31.0924" y1="34.2515" x2="31.0924" y2="22.3794" gradientUnits="userSpaceOnUse">
<stop stop-color="#5D5F63"/>
<stop offset="0.275862" stop-color="#5D5F63" stop-opacity="0"/>
</linearGradient>
<radialGradient id="paint10_radial" cx="0" cy="0" r="1" gradientUnits="userSpaceOnUse" gradientTransform="translate(29.5913 9.27932) rotate(84.0754) scale(14.5425)">
<stop stop-color="#FFC2C2"/>
<stop offset="0.541076" stop-color="#F32424"/>
<stop offset="1" stop-color="#B42626"/>
</radialGradient>
<clipPath id="clip0">
<rect width="64" height="64" fill="white"/>
</clipPath>
</defs>
</svg>
