<svg width="56" height="56" viewBox="0 0 56 56" fill="none" xmlns="http://www.w3.org/2000/svg">
<path d="M27.6022 52.2162C22.529 46.3223 16.6718 43.5502 13.1251 42.6593C11.9434 42.3625 11 41.1904 11 39.7748V30H47V39.623C47 41.0993 45.9694 42.29 44.7394 42.6125C39.9255 43.8749 34.0627 48.655 30.5689 52.2162C29.58 53.2243 28.533 53.2976 27.6022 52.2162Z" fill="url(#paint0_linear)"/>
<path fill-rule="evenodd" clip-rule="evenodd" d="M10 30H47V39.7064C47 41.4144 45.7629 42.715 44.3765 43.0616C42.0348 43.647 39.4089 45.0581 36.9175 46.7634C34.4314 48.4651 32.107 50.4405 30.373 52.1256C29.8244 52.6586 29.2145 52.9885 28.5711 52.9997C27.9188 53.0111 27.3102 52.6937 26.7767 52.1029C21.7618 46.5487 15.9731 43.941 12.4917 43.1073C11.1319 42.7817 10 41.4836 10 39.8514V30ZM10.915 31.0217V39.8514C10.915 40.9248 11.6742 41.8666 12.6836 42.1083C16.3122 42.9773 22.2656 45.6676 27.4211 51.3775C27.8207 51.82 28.2032 51.9843 28.5568 51.9781C28.9192 51.9718 29.3295 51.7851 29.7723 51.3548C31.5402 49.6369 33.9052 47.6269 36.4393 45.8923C38.968 44.1615 41.6931 42.6854 44.1767 42.0646C45.2559 41.7947 46.085 40.8198 46.085 39.7064V31.0217H10.915Z" fill="url(#paint1_linear)"/>
<path d="M27.7294 7.36133C28.5264 6.87956 29.4736 6.87956 30.2706 7.36133L55.2516 22.4618C56.2316 23.0542 56.2539 24.6843 55.2905 25.313L30.3484 41.5898C29.5103 42.1367 28.4897 42.1367 27.6516 41.5898L2.70955 25.313C1.74612 24.6842 1.76836 23.0542 2.74845 22.4618L27.7294 7.36133Z" fill="url(#paint2_linear)"/>
<path fill-rule="evenodd" clip-rule="evenodd" d="M54.881 23.3005L29.9 8.20006C29.3355 7.8588 28.6645 7.8588 28.1 8.20006L3.11905 23.3005C2.71067 23.5473 2.70141 24.2265 3.10284 24.4885L28.0449 40.7653C28.6386 41.1527 29.3615 41.1527 29.9551 40.7653L54.8972 24.4885C55.2986 24.2265 55.2893 23.5474 54.881 23.3005ZM30.2706 7.36133C29.4736 6.87956 28.5264 6.87956 27.7294 7.36133L2.74845 22.4618C1.76836 23.0542 1.74612 24.6842 2.70955 25.313L27.6516 41.5898C28.4897 42.1367 29.5103 42.1367 30.3484 41.5898L55.2905 25.313C56.2539 24.6843 56.2316 23.0542 55.2516 22.4618L30.2706 7.36133Z" fill="url(#paint3_linear)"/>
<path d="M28.9391 25.1797C32.8536 23.7583 32.261 22.4883 31.2459 21.9537C31.2459 21.9537 25.9977 17.5579 24.4177 21.9537C22.8376 26.3496 15.7838 30.0692 14.1473 31.557C11.5302 33.9363 11.9752 51.0218 12.1235 54.894C12.1481 55.5379 12.9955 55.3025 13.5333 55.3025C13.8635 55.3025 14.2834 55.5801 14.5583 55.7944C14.7503 55.9441 14.978 56.0598 15.1934 55.9664C15.5758 55.8006 15.8506 55.3677 15.8556 54.8518C15.9029 49.9429 12.7207 36.9897 15.6145 32.9096C16.4198 31.7742 20.658 29.1138 23.8898 27.1687C25.5127 26.1919 27.2146 25.8059 28.9391 25.1797Z" fill="url(#paint4_linear)"/>
<path d="M30.0381 23.7853C29.0838 23.9217 26.9352 22.3995 26.3427 22.5285C25.4276 22.7278 24.3872 24.4845 24.2616 24.7323C24.1046 25.0421 31.2311 23.6147 30.0381 23.7853Z" fill="#80858C"/>
<path d="M33 22C33 23.6569 31.2091 25 29 25C26.7909 25 25 23.6569 25 22C25 20.3431 26.7909 19 29 19C31.2091 19 33 20.3431 33 22Z" fill="url(#paint5_linear)"/>
<defs>
<linearGradient id="paint0_linear" x1="29" y1="30" x2="29" y2="52.9231" gradientUnits="userSpaceOnUse">
<stop offset="0.320677" stop-color="#4F5152"/>
<stop offset="0.577218" stop-color="#585A5B"/>
<stop offset="1" stop-color="#4F4F4F"/>
</linearGradient>
<linearGradient id="paint1_linear" x1="28.5" y1="22.7202" x2="28.5" y2="52.4891" gradientUnits="userSpaceOnUse">
<stop offset="0.191763" stop-color="#686C72" stop-opacity="0"/>
<stop offset="1" stop-color="#393A3C"/>
</linearGradient>
<linearGradient id="paint2_linear" x1="29" y1="7" x2="29" y2="42" gradientUnits="userSpaceOnUse">
<stop stop-color="#AEAEAE"/>
<stop offset="0.516374" stop-color="#727273"/>
<stop offset="1" stop-color="#434343"/>
</linearGradient>
<linearGradient id="paint3_linear" x1="29" y1="7" x2="29" y2="42" gradientUnits="userSpaceOnUse">
<stop offset="0.431597" stop-color="#686D72" stop-opacity="0"/>
<stop offset="1" stop-color="#303132"/>
</linearGradient>
<linearGradient id="paint4_linear" x1="22.0048" y1="20" x2="22.0048" y2="56.0389" gradientUnits="userSpaceOnUse">
<stop stop-color="#FBC52C"/>
<stop offset="1" stop-color="#FFE08A"/>
</linearGradient>
<linearGradient id="paint5_linear" x1="29" y1="19" x2="29" y2="25" gradientUnits="userSpaceOnUse">
<stop stop-color="#A5A6A8"/>
<stop offset="1" stop-color="#686C72"/>
</linearGradient>
</defs>
</svg>
