<svg width="56" height="56" viewBox="0 0 56 56" fill="none" xmlns="http://www.w3.org/2000/svg">
<g clip-path="url(#clip0)">
<path d="M32.1743 5.08544C31.6573 1.21912 29.0514 0.26563 27.6785 0.301759C26.3057 0.265632 23.8946 1.21903 23.4172 5.08485C23.3142 5.91861 23.977 6.72373 24.3483 7.47731C24.4981 7.78129 24.6009 8.16262 24.6009 8.62934C23.7963 8.62934 21.6923 10.0535 20.6785 10.9224H12.1699C10.1182 11.023 6.01471 12.4069 6.01471 17.138V21C6.01471 23.7483 6.03379 40.0337 5.95898 40.8535C5.959 45.1405 7.14975 49.4804 9.93688 52.6154C12.523 55.5242 16.7084 56 20.6007 56L27.6785 56H34.9977C38.8899 56 43.0711 55.5258 45.677 52.6347C48.4772 49.528 49.694 45.2187 49.6076 40.8535C49.4514 32.9516 49.5837 25.0415 49.5837 17.138C49.5837 12.4069 45.4802 11.023 43.4285 10.9224H34.9199C33.9061 10.0535 31.8021 8.62934 30.9975 8.62934C30.9975 8.16261 31.1003 7.78128 31.2501 7.47731C31.6214 6.72372 32.2856 5.91813 32.1743 5.08544Z" fill="url(#paint0_linear)"/>
<path fill-rule="evenodd" clip-rule="evenodd" d="M27.6785 2.23346L27.6277 2.23213C27.3788 2.22558 26.911 2.31605 26.471 2.69434C26.0688 3.04011 25.5424 3.75466 25.3437 5.24339C25.3554 5.27818 25.3807 5.34449 25.4331 5.44967C25.5009 5.58573 25.5839 5.73017 25.7023 5.93434L25.7138 5.95426C25.8187 6.13507 25.9582 6.37563 26.0805 6.62383C26.3624 7.19594 26.5319 7.8696 26.5319 8.62934V10.5604H24.743C24.7088 10.5729 24.6567 10.5934 24.5849 10.6258C24.3612 10.7267 24.0682 10.8862 23.7319 11.0936C23.0575 11.5095 22.3602 12.0243 21.9352 12.3886L21.3928 12.8535H12.2222C11.4903 12.8979 10.3682 13.1818 9.47234 13.8454C8.64545 14.458 7.94574 15.428 7.94574 17.138V21C7.94574 21.3345 7.94602 21.8707 7.94639 22.556C7.94751 24.68 7.9494 28.2357 7.94593 31.6519C7.94364 33.9113 7.93901 36.1129 7.93026 37.802C7.92275 39.2521 7.91285 40.4526 7.89008 40.9063C7.89988 44.8568 9.00758 48.6638 11.38 51.3323C13.3453 53.5429 16.7007 54.069 20.6007 54.069L34.9977 54.069C38.8949 54.069 42.2561 53.5458 44.2427 51.3418C46.632 48.691 47.7563 44.9049 47.677 40.8917C47.5693 35.4491 47.5981 29.9861 47.6266 24.5525C47.6396 22.0733 47.6526 19.6002 47.6526 17.138C47.6526 15.428 46.9529 14.458 46.126 13.8454C45.2301 13.1818 44.108 12.8979 43.3761 12.8535H34.2055L33.6632 12.3886C33.2382 12.0243 32.5408 11.5095 31.8665 11.0936C31.5302 10.8861 31.2372 10.7267 31.0135 10.6258C30.9417 10.5934 30.8896 10.5729 30.8554 10.5604H29.0664V8.62934C29.0664 7.86959 29.236 7.19594 29.5179 6.62383C29.6398 6.37643 29.779 6.1364 29.8834 5.95627L29.8961 5.93436C30.0143 5.73048 30.0968 5.58678 30.1638 5.45192C30.212 5.35479 30.2365 5.29185 30.2485 5.25702C30.0381 3.81166 29.4849 3.09668 29.0339 2.73229C28.5294 2.32479 27.9916 2.22522 27.7293 2.23213L27.6785 2.23346ZM31.6418 6.77296C31.6165 6.81691 31.5911 6.86073 31.5658 6.90439C31.4534 7.09834 31.3426 7.28944 31.2501 7.47731C31.1003 7.78128 30.9975 8.16261 30.9975 8.62934C31.8021 8.62934 33.9061 10.0535 34.9199 10.9224H43.4285C45.4802 11.023 49.5837 12.4069 49.5837 17.138C49.5837 19.6222 49.5706 22.1072 49.5575 24.5923C49.529 30.0134 49.5005 35.4354 49.6076 40.8535C49.694 45.2187 48.4772 49.528 45.677 52.6347C43.0711 55.5258 38.8899 56 34.9977 56L20.6007 56C16.7084 56 12.523 55.5242 9.93688 52.6154C7.14975 49.4804 5.959 45.1405 5.95898 40.8535C6.02466 40.1338 6.01797 27.4943 6.01535 22.5592C6.01499 21.8729 6.01471 21.3356 6.01471 21V17.138C6.01471 12.4069 10.1182 11.023 12.1699 10.9224H20.6785C21.6923 10.0535 23.7963 8.62934 24.6009 8.62934C24.6009 8.16262 24.4981 7.78129 24.3483 7.47731C24.2553 7.28847 24.1439 7.09639 24.0309 6.90144C24.0061 6.85875 23.9813 6.81592 23.9566 6.77296C23.6435 6.22919 23.3457 5.66393 23.4172 5.08485C23.8946 1.21903 26.3057 0.265632 27.6785 0.301759C29.0514 0.26563 31.6573 1.21912 32.1743 5.08544C32.2516 5.6638 31.9548 6.22909 31.6418 6.77296Z" fill="url(#paint1_linear)"/>
<path d="M32.1745 5.08544C31.6575 1.21912 29.0516 0.26563 27.6787 0.301759C26.3059 0.265632 23.8948 1.21903 23.4174 5.08485C23.3144 5.91861 23.9772 6.72373 24.3485 7.47731C24.4983 7.78129 24.6011 8.16262 24.6011 8.62934C23.7965 8.62934 21.6925 10.0535 20.6787 10.9224C20.6787 10.9224 24.9235 12.6724 27.8597 12.6724C30.796 12.6724 34.9201 10.9224 34.9201 10.9224C33.9063 10.0535 31.8023 8.62934 30.9977 8.62934C30.9977 8.16261 31.1005 7.78128 31.2503 7.47731C31.6216 6.72372 32.2858 5.91813 32.1745 5.08544Z" fill="url(#paint2_radial)"/>
<path d="M32.3853 4.58621C32.3853 7.1191 30.332 9.17241 27.7991 9.17241C25.2662 9.17241 23.2129 7.1191 23.2129 4.58621C23.2129 2.05331 25.2662 0 27.7991 0C30.332 0 32.3853 2.05331 32.3853 4.58621Z" fill="url(#paint3_radial)"/>
<path fill-rule="evenodd" clip-rule="evenodd" d="M27.7991 8.44828C29.9321 8.44828 31.6612 6.71917 31.6612 4.58621C31.6612 2.45324 29.9321 0.724138 27.7991 0.724138C25.6661 0.724138 23.937 2.45324 23.937 4.58621C23.937 6.71917 25.6661 8.44828 27.7991 8.44828ZM27.7991 9.17241C30.332 9.17241 32.3853 7.1191 32.3853 4.58621C32.3853 2.05331 30.332 0 27.7991 0C25.2662 0 23.2129 2.05331 23.2129 4.58621C23.2129 7.1191 25.2662 9.17241 27.7991 9.17241Z" fill="url(#paint4_radial)"/>
<path d="M27.1376 30.1853C27.3228 29.8601 27.7916 29.8601 27.9767 30.1853L31.6119 36.5715C31.7951 36.8934 31.5627 37.2931 31.1924 37.2931H23.9219C23.5516 37.2931 23.3192 36.8934 23.5024 36.5715L27.1376 30.1853Z" fill="url(#paint5_linear)"/>
<path d="M49.5239 39.9989C50.0666 39.9989 50.5353 39.9707 50.9387 39.9227C52.6438 39.7198 53.205 38.0464 53.205 36.3292V27.5679C53.205 24.7656 52.6871 24.0754 49.5239 24.4903V39.9989Z" fill="url(#paint6_linear)"/>
<path d="M6.01416 39.9989C5.47147 39.9989 5.00279 39.9707 4.59942 39.9227C2.89431 39.7198 2.33313 38.0464 2.33313 36.3292V27.5679C2.33313 24.7656 2.85097 24.0754 6.01416 24.4903V39.9989Z" fill="url(#paint7_linear)"/>
<path d="M24.0578 27.0345C24.0578 31.1671 20.7077 34.5173 16.575 34.5173C12.4424 34.5173 9.09229 31.1671 9.09229 27.0345C9.09229 22.9019 12.4424 19.5518 16.575 19.5518C20.7077 19.5518 24.0578 22.9019 24.0578 27.0345Z" fill="url(#paint8_linear)"/>
<path fill-rule="evenodd" clip-rule="evenodd" d="M16.575 33.3104C20.0411 33.3104 22.8509 30.5006 22.8509 27.0345C22.8509 23.5685 20.0411 20.7587 16.575 20.7587C13.109 20.7587 10.2992 23.5685 10.2992 27.0345C10.2992 30.5006 13.109 33.3104 16.575 33.3104ZM16.575 34.5173C20.7077 34.5173 24.0578 31.1671 24.0578 27.0345C24.0578 22.9019 20.7077 19.5518 16.575 19.5518C12.4424 19.5518 9.09229 22.9019 9.09229 27.0345C9.09229 31.1671 12.4424 34.5173 16.575 34.5173Z" fill="url(#paint9_radial)"/>
<path d="M24.0578 27.0345C24.0578 31.1671 20.7077 34.5173 16.575 34.5173C12.4424 34.5173 9.09229 31.1671 9.09229 27.0345C9.09229 22.9019 12.4424 19.5518 16.575 19.5518C20.7077 19.5518 24.0578 22.9019 24.0578 27.0345Z" fill="url(#paint10_linear)"/>
<path fill-rule="evenodd" clip-rule="evenodd" d="M16.575 33.3104C20.0411 33.3104 22.8509 30.5006 22.8509 27.0345C22.8509 23.5685 20.0411 20.7587 16.575 20.7587C13.109 20.7587 10.2992 23.5685 10.2992 27.0345C10.2992 30.5006 13.109 33.3104 16.575 33.3104ZM16.575 34.5173C20.7077 34.5173 24.0578 31.1671 24.0578 27.0345C24.0578 22.9019 20.7077 19.5518 16.575 19.5518C12.4424 19.5518 9.09229 22.9019 9.09229 27.0345C9.09229 31.1671 12.4424 34.5173 16.575 34.5173Z" fill="url(#paint11_radial)"/>
<path d="M20.1881 27.0342C20.1881 29.0293 18.5708 30.6466 16.5757 30.6466C14.5807 30.6466 12.9634 29.0293 12.9634 27.0342C12.9634 25.0392 14.5807 23.4219 16.5757 23.4219C18.5708 23.4219 20.1881 25.0392 20.1881 27.0342Z" fill="url(#paint12_linear)"/>
<path fill-rule="evenodd" clip-rule="evenodd" d="M16.5757 29.9225C18.1709 29.9225 19.464 28.6294 19.464 27.0342C19.464 25.4391 18.1709 24.146 16.5757 24.146C14.9806 24.146 13.6875 25.4391 13.6875 27.0342C13.6875 28.6294 14.9806 29.9225 16.5757 29.9225ZM16.5757 30.6466C18.5708 30.6466 20.1881 29.0293 20.1881 27.0342C20.1881 25.0392 18.5708 23.4219 16.5757 23.4219C14.5807 23.4219 12.9634 25.0392 12.9634 27.0342C12.9634 29.0293 14.5807 30.6466 16.5757 30.6466Z" fill="url(#paint13_linear)"/>
<path d="M46.5065 27.0345C46.5065 31.1671 43.1564 34.5173 39.0238 34.5173C34.8912 34.5173 31.541 31.1671 31.541 27.0345C31.541 22.9019 34.8912 19.5518 39.0238 19.5518C43.1564 19.5518 46.5065 22.9019 46.5065 27.0345Z" fill="url(#paint14_linear)"/>
<path fill-rule="evenodd" clip-rule="evenodd" d="M39.0238 33.3104C42.4898 33.3104 45.2996 30.5006 45.2996 27.0345C45.2996 23.5685 42.4898 20.7587 39.0238 20.7587C35.5577 20.7587 32.7479 23.5685 32.7479 27.0345C32.7479 30.5006 35.5577 33.3104 39.0238 33.3104ZM39.0238 34.5173C43.1564 34.5173 46.5065 31.1671 46.5065 27.0345C46.5065 22.9019 43.1564 19.5518 39.0238 19.5518C34.8912 19.5518 31.541 22.9019 31.541 27.0345C31.541 31.1671 34.8912 34.5173 39.0238 34.5173Z" fill="url(#paint15_radial)"/>
<path d="M42.6368 27.0342C42.6368 29.0293 41.0195 30.6466 39.0245 30.6466C37.0294 30.6466 35.4121 29.0293 35.4121 27.0342C35.4121 25.0392 37.0294 23.4219 39.0245 23.4219C41.0195 23.4219 42.6368 25.0392 42.6368 27.0342Z" fill="url(#paint16_linear)"/>
<path fill-rule="evenodd" clip-rule="evenodd" d="M39.0245 29.9225C40.6196 29.9225 41.9127 28.6294 41.9127 27.0342C41.9127 25.4391 40.6196 24.146 39.0245 24.146C37.4294 24.146 36.1362 25.4391 36.1362 27.0342C36.1362 28.6294 37.4294 29.9225 39.0245 29.9225ZM39.0245 30.6466C41.0195 30.6466 42.6368 29.0293 42.6368 27.0342C42.6368 25.0392 41.0195 23.4219 39.0245 23.4219C37.0294 23.4219 35.4121 25.0392 35.4121 27.0342C35.4121 29.0293 37.0294 30.6466 39.0245 30.6466Z" fill="url(#paint17_linear)"/>
<path d="M18.9897 43.8101C18.9897 43.0102 19.6382 42.3618 20.438 42.3618H34.8001C35.6 42.3618 36.2484 43.0102 36.2484 43.8101C36.2484 44.61 35.6 45.2584 34.8001 45.2584H20.438C19.6382 45.2584 18.9897 44.61 18.9897 43.8101Z" fill="url(#paint18_radial)"/>
<path fill-rule="evenodd" clip-rule="evenodd" d="M20.4377 41.3965H34.7998C36.1329 41.3965 37.2136 42.4772 37.2136 43.8103C37.2136 45.1434 36.1329 46.2241 34.7998 46.2241H20.4377C19.1046 46.2241 18.0239 45.1434 18.0239 43.8103C18.0239 42.4772 19.1046 41.3965 20.4377 41.3965ZM20.4377 42.362C19.6379 42.362 18.9894 43.0104 18.9894 43.8103C18.9894 44.6101 19.6379 45.2586 20.4377 45.2586H34.7998C35.5996 45.2586 36.2481 44.6101 36.2481 43.8103C36.2481 43.0104 35.5996 42.362 34.7998 42.362H20.4377Z" fill="url(#paint19_linear)"/>
<path d="M18.9897 43.8101C18.9897 43.0102 19.6382 42.3618 20.438 42.3618H22.6104V45.2584H20.438C19.6382 45.2584 18.9897 44.61 18.9897 43.8101Z" fill="url(#paint20_linear)"/>
<path d="M36.2485 43.8101C36.2485 43.0102 35.6001 42.3618 34.8003 42.3618H32.6278V45.2584H34.8003C35.6001 45.2584 36.2485 44.61 36.2485 43.8101Z" fill="url(#paint21_linear)"/>
<path d="M23.5767 42.3618H27.1973V45.2584H23.5767V42.3618Z" fill="url(#paint22_linear)"/>
<path d="M28.041 42.3618H31.6617V45.2584H28.041V42.3618Z" fill="url(#paint23_linear)"/>
<path d="M24.7822 3.25857C24.7822 2.65867 25.2685 2.17236 25.8684 2.17236C28.8402 2.17236 24.7822 6.31802 24.7822 3.25857Z" fill="url(#paint24_radial)"/>
</g>
<defs>
<linearGradient id="paint0_linear" x1="27.7992" y1="0.300781" x2="27.7992" y2="58.7759" gradientUnits="userSpaceOnUse">
<stop offset="0.110398" stop-color="#CDE7DF"/>
<stop offset="0.267773" stop-color="#E6FBF6"/>
<stop offset="0.457933" stop-color="#DCF7EF"/>
<stop offset="0.562443" stop-color="#7CBEBB"/>
<stop offset="0.694536" stop-color="#58A3A7"/>
<stop offset="0.876163" stop-color="#2A7F8C"/>
<stop offset="1" stop-color="#2A7F8C"/>
</linearGradient>
<linearGradient id="paint1_linear" x1="27.7992" y1="0.300781" x2="27.7992" y2="56" gradientUnits="userSpaceOnUse">
<stop offset="0.235116" stop-color="#BAD6CB" stop-opacity="0"/>
<stop offset="0.744316" stop-color="#436779"/>
<stop offset="1" stop-color="#243F47"/>
</linearGradient>
<radialGradient id="paint2_radial" cx="0" cy="0" r="1" gradientUnits="userSpaceOnUse" gradientTransform="translate(27.7994 0.241409) rotate(85.486) scale(13.8014 12.7303)">
<stop offset="0.496387" stop-color="#FFCE48"/>
<stop offset="0.634262" stop-color="#483948"/>
<stop offset="0.738702" stop-color="#322748"/>
<stop offset="0.833333" stop-color="#83918F"/>
<stop offset="0.843485" stop-color="#59596A"/>
<stop offset="0.963372" stop-color="#C6EBE6"/>
</radialGradient>
<radialGradient id="paint3_radial" cx="0" cy="0" r="1" gradientUnits="userSpaceOnUse" gradientTransform="translate(27.0554 0.991612) rotate(75.5102) scale(11.3941 22.7882)">
<stop stop-color="#8A3D32"/>
<stop offset="0.322812" stop-color="#C63F25"/>
<stop offset="0.466215" stop-color="#FF6A2A"/>
<stop offset="0.537109" stop-color="#FFA42A"/>
<stop offset="0.643898" stop-color="#FFE950"/>
</radialGradient>
<radialGradient id="paint4_radial" cx="0" cy="0" r="1" gradientUnits="userSpaceOnUse" gradientTransform="translate(26.4715 1.32759) rotate(80.3948) scale(7.95637)">
<stop/>
<stop offset="1" stop-opacity="0"/>
</radialGradient>
<linearGradient id="paint5_linear" x1="27.6417" y1="29.4417" x2="27.5572" y2="39.1035" gradientUnits="userSpaceOnUse">
<stop stop-color="#DD8D61"/>
<stop offset="0.431704" stop-color="#D4302D"/>
<stop offset="0.68088" stop-color="#6D3433"/>
<stop offset="0.911458" stop-color="#331A17"/>
<stop offset="1" stop-color="#9F2822"/>
</linearGradient>
<linearGradient id="paint6_linear" x1="51.3946" y1="24.3696" x2="51.3946" y2="39.9385" gradientUnits="userSpaceOnUse">
<stop stop-color="#DD6360"/>
<stop offset="0.431704" stop-color="#D4302D"/>
<stop offset="0.68088" stop-color="#6D3433"/>
<stop offset="1" stop-color="#331A17"/>
</linearGradient>
<linearGradient id="paint7_linear" x1="4.14347" y1="24.3696" x2="4.14347" y2="39.9385" gradientUnits="userSpaceOnUse">
<stop stop-color="#DD6360"/>
<stop offset="0.431704" stop-color="#D4302D"/>
<stop offset="0.68088" stop-color="#6D3433"/>
<stop offset="1" stop-color="#331A17"/>
</linearGradient>
<linearGradient id="paint8_linear" x1="16.575" y1="19.5518" x2="19.5191" y2="34.5173" gradientUnits="userSpaceOnUse">
<stop stop-color="#00E5FF"/>
<stop offset="0.385246" stop-color="#00E5FF"/>
<stop offset="0.467213" stop-color="#007C9A"/>
<stop offset="1" stop-color="#007C9A"/>
</linearGradient>
<radialGradient id="paint9_radial" cx="0" cy="0" r="1" gradientUnits="userSpaceOnUse" gradientTransform="translate(14.2528 20.4548) rotate(80.6229) scale(14.2529)">
<stop stop-color="#0A779C"/>
<stop offset="0.414912" stop-color="#148FB8"/>
<stop offset="1" stop-color="#86C8C3"/>
</radialGradient>
<linearGradient id="paint10_linear" x1="16.575" y1="21.4828" x2="18.6268" y2="34.5173" gradientUnits="userSpaceOnUse">
<stop stop-color="#00E5FF"/>
<stop offset="0.385246" stop-color="#00E5FF"/>
<stop offset="0.389526" stop-color="#007C9A"/>
<stop offset="1" stop-color="#007C9A"/>
</linearGradient>
<radialGradient id="paint11_radial" cx="0" cy="0" r="1" gradientUnits="userSpaceOnUse" gradientTransform="translate(14.2528 20.4548) rotate(80.6229) scale(14.2529)">
<stop stop-color="#0A779C"/>
<stop offset="0.414912" stop-color="#148FB8"/>
<stop offset="1" stop-color="#86C8C3"/>
</radialGradient>
<linearGradient id="paint12_linear" x1="15.0104" y1="23.4219" x2="16.5757" y2="30.6466" gradientUnits="userSpaceOnUse">
<stop offset="0.405943" stop-color="#EDFEF9"/>
<stop offset="0.569912" stop-color="#D4F1EB"/>
</linearGradient>
<linearGradient id="paint13_linear" x1="16.5757" y1="23.4219" x2="17.6595" y2="30.6466" gradientUnits="userSpaceOnUse">
<stop stop-color="#10D6F3"/>
<stop offset="1" stop-color="#146472"/>
</linearGradient>
<linearGradient id="paint14_linear" x1="39.0238" y1="21.4828" x2="41.0755" y2="34.5173" gradientUnits="userSpaceOnUse">
<stop stop-color="#00E5FF"/>
<stop offset="0.385246" stop-color="#00E5FF"/>
<stop offset="0.389526" stop-color="#007C9A"/>
<stop offset="1" stop-color="#007C9A"/>
</linearGradient>
<radialGradient id="paint15_radial" cx="0" cy="0" r="1" gradientUnits="userSpaceOnUse" gradientTransform="translate(36.7015 20.4548) rotate(80.6229) scale(14.2529)">
<stop stop-color="#0A779C"/>
<stop offset="0.414912" stop-color="#148FB8"/>
<stop offset="1" stop-color="#86C8C3"/>
</radialGradient>
<linearGradient id="paint16_linear" x1="37.4591" y1="23.4219" x2="39.0245" y2="30.6466" gradientUnits="userSpaceOnUse">
<stop offset="0.405943" stop-color="#EDFEF9"/>
<stop offset="0.569912" stop-color="#D4F1EB"/>
</linearGradient>
<linearGradient id="paint17_linear" x1="39.0245" y1="23.4219" x2="40.1082" y2="30.6466" gradientUnits="userSpaceOnUse">
<stop stop-color="#10D6F3"/>
<stop offset="1" stop-color="#146472"/>
</linearGradient>
<radialGradient id="paint18_radial" cx="0" cy="0" r="1" gradientUnits="userSpaceOnUse" gradientTransform="translate(27.6191 42.2226) rotate(90) scale(3.03581 18.0884)">
<stop stop-color="#090002"/>
<stop offset="1" stop-color="#3C3B39"/>
</radialGradient>
<linearGradient id="paint19_linear" x1="27.0756" y1="40.5275" x2="27.4628" y2="46.4314" gradientUnits="userSpaceOnUse">
<stop stop-color="#261C1B"/>
<stop offset="0.798077" stop-color="#2C5A62"/>
<stop offset="1" stop-color="#328694"/>
</linearGradient>
<linearGradient id="paint20_linear" x1="18.9897" y1="43.8101" x2="22.6104" y2="43.8101" gradientUnits="userSpaceOnUse">
<stop stop-color="#D1DDCD"/>
<stop offset="0.816667" stop-color="#EBF9EC"/>
<stop offset="0.954167" stop-color="#767771"/>
</linearGradient>
<linearGradient id="paint21_linear" x1="36.2485" y1="43.8101" x2="32.6278" y2="43.8101" gradientUnits="userSpaceOnUse">
<stop stop-color="#D1DDCD"/>
<stop offset="0.816667" stop-color="#EBF9EC"/>
<stop offset="0.954167" stop-color="#767771"/>
</linearGradient>
<linearGradient id="paint22_linear" x1="23.5767" y1="43.8101" x2="27.1973" y2="43.8101" gradientUnits="userSpaceOnUse">
<stop stop-color="#D1DDCD"/>
<stop offset="0.816667" stop-color="#EBF9EC"/>
<stop offset="0.954167" stop-color="#767771"/>
</linearGradient>
<linearGradient id="paint23_linear" x1="28.041" y1="43.8101" x2="31.6617" y2="43.8101" gradientUnits="userSpaceOnUse">
<stop stop-color="#D1DDCD"/>
<stop offset="0.816667" stop-color="#EBF9EC"/>
<stop offset="0.954167" stop-color="#767771"/>
</linearGradient>
<radialGradient id="paint24_radial" cx="0" cy="0" r="1" gradientUnits="userSpaceOnUse" gradientTransform="translate(25.8684 2.83616) rotate(104.036) scale(2.73689)">
<stop stop-color="white"/>
<stop offset="1" stop-color="white" stop-opacity="0"/>
</radialGradient>
<clipPath id="clip0">
<rect width="56" height="56" fill="white"/>
</clipPath>
</defs>
</svg>
