<svg width="298" height="329" viewBox="0 0 298 329" fill="none" xmlns="http://www.w3.org/2000/svg">
<g filter="url(#filter0_d)">
<path d="M220.345 11.1568C218.831 9.46401 216.755 8.05263 214.504 8.3532C212.253 8.65378 210.621 10.5603 209.604 12.591C208.138 15.5195 205.294 17.6942 201.803 18.1604C198.313 18.6265 194.998 17.274 192.815 14.8328C191.301 13.14 189.225 11.7287 186.974 12.0292C184.723 12.3298 183.091 14.2363 182.074 16.267C180.608 19.1955 177.765 21.3703 174.274 21.8364C170.783 22.3025 167.468 20.9501 165.285 18.5089C163.771 16.8161 161.696 15.4047 159.445 15.7053C157.194 16.0059 155.561 17.9124 154.545 19.943C153.078 22.8715 150.235 25.0463 146.744 25.5124C143.253 25.9786 139.938 24.6261 137.755 22.1849C136.241 20.4921 134.166 19.0807 131.915 19.3813C129.664 19.6819 128.031 21.5884 127.015 23.6191C125.549 26.5476 122.705 28.7223 119.214 29.1885C115.723 29.6546 112.409 28.3021 110.226 25.8609C108.712 24.1682 106.636 22.7568 104.385 23.0574C102.134 23.3579 100.502 25.2645 99.4849 27.2951C98.0187 30.2236 95.1752 32.3984 91.6843 32.8645C88.1934 33.3307 84.8789 31.9782 82.6957 29.537C81.1819 27.8442 79.1063 26.4328 76.8553 26.7334C74.6043 27.034 72.9718 28.9405 71.9551 30.9712C70.4889 33.8997 67.6455 36.0744 64.1545 36.5406C60.6636 37.0067 57.3491 35.6542 55.1659 33.213C53.6521 31.5202 51.5765 30.1089 49.3255 30.4094C47.0746 30.71 45.442 32.6165 44.4253 34.6472C42.9592 37.5757 40.1157 39.7505 36.6248 40.2166C33.6543 40.6132 30.8115 39.6931 28.6848 37.9058C26.293 35.8957 23.4437 33.8654 20.3468 34.2789C17.9461 34.5995 16.2599 36.8055 16.5804 39.2062C16.7407 40.4065 17.8519 41.224 19.0589 41.3215C23.7561 41.7009 27.7184 45.3066 28.3675 50.1678C28.9489 54.5217 26.7013 58.6012 23.0409 60.5537C21.2601 61.5036 19.7959 63.2865 20.063 65.287C20.3301 67.2876 22.2109 68.6238 24.1785 69.0732C28.223 69.9969 31.4622 73.3437 32.0436 77.6976C32.6249 82.0515 30.3774 86.131 26.717 88.0835C24.9361 89.0334 23.4719 90.8163 23.739 92.8168C24.0062 94.8174 25.8869 96.1536 27.8546 96.603C31.899 97.5267 35.1382 100.873 35.7196 105.227C36.301 109.581 34.0534 113.661 30.393 115.613C28.6122 116.563 27.1479 118.346 27.4151 120.347C27.6822 122.347 29.5629 123.683 31.5306 124.133C35.5751 125.056 38.8143 128.403 39.3956 132.757C39.977 137.111 37.7295 141.191 34.069 143.143C32.2882 144.093 30.824 145.876 31.0911 147.876C31.3582 149.877 33.239 151.213 35.2066 151.663C39.2511 152.586 42.4903 155.933 43.0717 160.287C43.653 164.641 41.4055 168.72 37.7451 170.673C35.9643 171.623 34.5 173.406 34.7671 175.406C35.0343 177.407 36.915 178.743 38.8827 179.192C42.9272 180.116 46.1663 183.463 46.7477 187.817C47.3291 192.171 45.0815 196.25 41.4211 198.203C39.6403 199.153 38.176 200.935 38.4432 202.936C38.7103 204.937 40.5911 206.273 42.5587 206.722C46.6032 207.646 49.8424 210.993 50.4238 215.347C51.0051 219.7 48.7576 223.78 45.0972 225.732C43.3163 226.682 41.8521 228.465 42.1192 230.466C42.3864 232.466 44.2671 233.803 46.2348 234.252C50.2792 235.176 53.5184 238.522 54.0998 242.876C54.6812 247.23 52.4336 251.31 48.7732 253.262C46.9924 254.212 45.5281 255.995 45.7953 257.996C46.0624 259.996 47.9431 261.332 49.9108 261.782C53.9553 262.705 57.1945 266.052 57.7758 270.406C58.3572 274.76 56.1096 278.839 52.4492 280.792C50.6684 281.742 49.2042 283.525 49.4713 285.525C49.7384 287.526 51.6192 288.862 53.5868 289.311C57.6313 290.235 60.8705 293.582 61.4519 297.936C62.0673 302.544 59.5131 306.846 55.4687 308.642C53.9931 309.298 52.8369 310.73 53.0506 312.331C53.3712 314.731 55.5772 316.418 57.9778 316.097C60.7786 315.723 62.6227 313.027 63.6395 310.391C64.9416 307.015 67.9979 304.436 71.8373 303.923C76.1912 303.342 80.2707 305.589 82.2232 309.25C83.1731 311.03 84.956 312.495 86.9566 312.228C88.9571 311.96 90.2933 310.08 90.7427 308.112C91.6664 304.068 95.0132 300.828 99.3671 300.247C103.721 299.666 107.8 301.913 109.753 305.574C110.703 307.354 112.486 308.819 114.486 308.551C116.487 308.284 117.823 306.404 118.272 304.436C119.196 300.391 122.543 297.152 126.897 296.571C131.251 295.99 135.33 298.237 137.283 301.897C138.233 303.678 140.016 305.143 142.016 304.875C144.017 304.608 145.353 302.728 145.802 300.76C146.726 296.715 150.073 293.476 154.427 292.895C158.781 292.313 162.86 294.561 164.813 298.221C165.762 300.002 167.545 301.467 169.546 301.199C171.546 300.932 172.883 299.052 173.332 297.084C174.256 293.039 177.603 289.8 181.956 289.219C186.31 288.637 190.39 290.885 192.342 294.545C193.292 296.326 195.075 297.79 197.076 297.523C199.076 297.256 200.412 295.375 200.862 293.408C201.786 289.363 205.132 286.124 209.486 285.543C213.84 284.961 217.92 287.209 219.872 290.869C220.822 292.65 222.605 294.114 224.605 293.847C226.606 293.58 227.942 291.699 228.392 289.732C229.315 285.687 232.662 282.448 237.016 281.867C241.37 281.285 245.449 283.533 247.402 287.193C248.352 288.974 250.135 290.438 252.135 290.171C254.136 289.904 255.472 288.023 255.921 286.056C256.845 282.011 260.192 278.772 264.546 278.191C268.643 277.644 272.497 279.602 274.565 282.885C275.855 284.935 277.989 286.719 280.39 286.399C282.79 286.078 284.476 283.872 284.156 281.471C283.942 279.871 282.451 278.792 280.855 278.547C276.481 277.874 272.887 274.394 272.272 269.785C271.691 265.431 273.938 261.352 277.599 259.399C279.379 258.449 280.844 256.667 280.577 254.666C280.309 252.665 278.429 251.329 276.461 250.88C272.417 249.956 269.177 246.609 268.596 242.255C268.015 237.901 270.262 233.822 273.923 231.87C275.703 230.92 277.168 229.137 276.901 227.136C276.633 225.136 274.753 223.799 272.785 223.35C268.741 222.426 265.501 219.08 264.92 214.726C264.339 210.372 266.586 206.292 270.247 204.34C272.027 203.39 273.492 201.607 273.225 199.606C272.957 197.606 271.077 196.27 269.109 195.82C265.065 194.897 261.825 191.55 261.244 187.196C260.663 182.842 262.91 178.762 266.571 176.81C268.351 175.86 269.816 174.077 269.548 172.077C269.281 170.076 267.401 168.74 265.433 168.29C261.388 167.367 258.149 164.02 257.568 159.666C256.987 155.312 259.234 151.233 262.895 149.28C264.675 148.33 266.14 146.547 265.872 144.547C265.605 142.546 263.725 141.21 261.757 140.761C257.712 139.837 254.473 136.49 253.892 132.136C253.311 127.782 255.558 123.703 259.218 121.75C260.999 120.8 262.464 119.018 262.196 117.017C261.929 115.016 260.049 113.68 258.081 113.231C254.036 112.307 250.797 108.96 250.216 104.606C249.634 100.253 251.882 96.1731 255.542 94.2206C257.323 93.2707 258.788 91.4878 258.52 89.4872C258.253 87.4867 256.373 86.1505 254.405 85.7011C250.36 84.7774 247.121 81.4306 246.54 77.0767C245.958 72.7228 248.206 68.6433 251.866 66.6908C253.647 65.7409 255.111 63.958 254.844 61.9574C254.577 59.9569 252.696 58.6207 250.729 58.1713C246.684 57.2476 243.445 53.9008 242.864 49.5469C242.282 45.193 244.53 41.1135 248.19 39.161C249.971 38.2111 251.435 36.4282 251.168 34.4277C250.901 32.4271 249.02 31.0909 247.053 30.6415C243.008 29.7178 239.769 26.371 239.188 22.0171C238.539 17.1559 241.416 12.6369 245.849 11.0383C246.988 10.6275 247.846 9.54715 247.686 8.34681C247.365 5.94613 245.159 4.25987 242.758 4.58043C240.085 4.93747 238.16 7.23617 236.784 9.55636C235.24 12.1579 232.564 14.0529 229.333 14.4843C225.842 14.9505 222.528 13.598 220.345 11.1568Z" fill="url(#paint0_linear)"/>
</g>
<g filter="url(#filter1_d)">
<path fill-rule="evenodd" clip-rule="evenodd" d="M210.258 12.9182C208.688 16.0539 205.641 18.3853 201.9 18.8848C198.159 19.3844 194.608 17.934 192.27 15.32C190.806 13.6829 188.954 12.5023 187.071 12.7537C185.189 13.0051 183.711 14.6302 182.728 16.5942C181.158 19.7299 178.111 22.0614 174.37 22.5609C170.629 23.0604 167.078 21.61 164.74 18.9961C163.276 17.3589 161.424 16.1784 159.541 16.4297C157.659 16.6811 156.181 18.3063 155.198 20.2702C153.628 23.406 150.582 25.7374 146.841 26.2369C143.1 26.7364 139.548 25.2861 137.21 22.6721C135.746 21.035 133.894 19.8544 132.012 20.1058C130.129 20.3572 128.652 21.9823 127.668 23.9463C126.098 27.082 123.052 29.4134 119.311 29.913C115.57 30.4125 112.018 28.9621 109.681 26.3482C108.217 24.711 106.364 23.5304 104.482 23.7818C102.599 24.0332 101.122 25.6584 100.138 27.6223C98.5686 30.7581 95.522 33.0895 91.7811 33.589C88.0401 34.0885 84.4886 32.6381 82.1509 30.0242C80.6868 28.387 78.8347 27.2065 76.9521 27.4579C75.0694 27.7093 73.592 29.3344 72.6087 31.2984C71.0388 34.4341 67.9922 36.7655 64.2513 37.265C60.5104 37.7646 56.9588 36.3142 54.6211 33.7002C53.157 32.0631 51.3049 30.8825 49.4223 31.1339C47.5396 31.3853 46.0622 33.0104 45.0789 34.9744C43.509 38.1101 40.4624 40.4415 36.7215 40.9411C33.5388 41.3661 30.492 40.3793 28.2146 38.4654C27.0289 37.4689 25.771 36.5036 24.4504 35.8358C23.1346 35.1704 21.7994 34.8224 20.4435 35.0034C18.443 35.2705 17.0378 37.1089 17.3049 39.1095C17.4079 39.8809 18.1567 40.5153 19.1178 40.5929C24.1506 40.9995 28.3964 44.8618 29.092 50.0711C29.715 54.7371 27.3057 59.1072 23.3849 61.1986C21.7318 62.0804 20.5784 63.6249 20.7875 65.1903C20.9965 66.7557 22.5147 67.9435 24.3413 68.3606C28.6734 69.35 32.145 72.9348 32.768 77.6009C33.3911 82.2669 30.9818 86.6369 27.061 88.7284C25.4079 89.6101 24.2545 91.1546 24.4635 92.7201C24.6725 94.2855 26.1908 95.4733 28.0173 95.8904C32.3495 96.8798 35.821 100.465 36.4441 105.131C37.0671 109.797 34.6578 114.167 30.737 116.258C29.0839 117.14 27.9305 118.684 28.1395 120.25C28.3486 121.815 29.8668 123.003 31.6933 123.42C36.0255 124.41 39.4971 127.994 40.1201 132.66C40.7432 137.326 38.3338 141.697 34.413 143.788C32.7599 144.67 31.6065 146.214 31.8156 147.78C32.0246 149.345 33.5428 150.533 35.3694 150.95C39.7016 151.939 43.1731 155.524 43.7961 160.19C44.4192 164.856 42.0099 169.226 38.0891 171.318C36.436 172.2 35.2826 173.744 35.4916 175.309C35.7006 176.875 37.2189 178.063 39.0454 178.48C43.3776 179.469 46.8491 183.054 47.4722 187.72C48.0952 192.386 45.6859 196.756 41.7651 198.848C40.112 199.729 38.9586 201.274 39.1677 202.839C39.3767 204.405 40.8949 205.592 42.7214 206.01C47.0536 206.999 50.5252 210.584 51.1482 215.25C51.7713 219.916 49.362 224.286 45.4411 226.377C43.7881 227.259 42.6347 228.804 42.8437 230.369C43.0527 231.934 44.571 233.122 46.3975 233.539C50.7297 234.529 54.2012 238.114 54.8243 242.78C55.4473 247.446 53.038 251.816 49.1172 253.907C47.4641 254.789 46.3107 256.333 46.5197 257.899C46.7288 259.464 48.247 260.652 50.0735 261.069C54.4057 262.059 57.8772 265.643 58.5003 270.309C59.1234 274.975 56.714 279.345 52.7932 281.437C51.1401 282.319 49.9867 283.863 50.1958 285.429C50.4048 286.994 51.923 288.182 53.7496 288.599C58.0818 289.588 61.5533 293.173 62.1763 297.839C62.8358 302.778 60.0982 307.385 55.7654 309.31C54.4686 309.886 53.6192 311.067 53.7751 312.234C54.0422 314.234 55.8805 315.64 57.8811 315.373C59.0611 315.215 60.0743 314.566 60.9326 313.606C61.7942 312.641 62.4696 311.393 62.9576 310.128C64.3519 306.513 67.6259 303.748 71.7406 303.199C76.4066 302.575 80.7767 304.985 82.8681 308.906C83.7499 310.559 85.2944 311.712 86.8598 311.503C88.4253 311.294 89.613 309.776 90.0302 307.949C91.0196 303.617 94.6044 300.146 99.2704 299.522C103.936 298.899 108.306 301.309 110.398 305.23C111.28 306.883 112.824 308.036 114.39 307.827C115.955 307.618 117.143 306.1 117.56 304.273C118.549 299.941 122.134 296.469 126.8 295.846C131.466 295.223 135.836 297.633 137.928 301.553C138.809 303.207 140.354 304.36 141.919 304.151C143.485 303.942 144.673 302.424 145.09 300.597C146.079 296.265 149.664 292.793 154.33 292.17C158.996 291.547 163.366 293.957 165.457 297.877C166.339 299.531 167.884 300.684 169.449 300.475C171.015 300.266 172.202 298.748 172.62 296.921C173.609 292.589 177.194 289.117 181.86 288.494C186.526 287.871 190.896 290.281 192.987 294.201C193.869 295.855 195.414 297.008 196.979 296.799C198.544 296.59 199.732 295.072 200.149 293.245C201.139 288.913 204.723 285.441 209.39 284.818C214.056 284.195 218.426 286.605 220.517 290.525C221.399 292.178 222.943 293.332 224.509 293.123C226.074 292.914 227.262 291.396 227.679 289.569C228.668 285.237 232.253 281.765 236.919 281.142C241.585 280.519 245.955 282.929 248.047 286.849C248.929 288.502 250.473 289.656 252.039 289.447C253.604 289.238 254.792 287.72 255.209 285.893C256.198 281.561 259.783 278.089 264.449 277.466C268.84 276.88 272.969 278.979 275.183 282.496C276.424 284.466 278.326 285.937 280.293 285.674C282.293 285.407 283.699 283.569 283.431 281.568C283.276 280.401 282.146 279.485 280.744 279.269C276.058 278.548 272.207 274.821 271.548 269.882C270.925 265.216 273.334 260.846 277.255 258.754C278.908 257.873 280.061 256.328 279.852 254.763C279.643 253.197 278.125 252.009 276.298 251.592C271.966 250.603 268.495 247.018 267.872 242.352C267.249 237.686 269.658 233.316 273.579 231.225C275.232 230.343 276.385 228.798 276.176 227.233C275.967 225.667 274.449 224.48 272.622 224.063C268.29 223.073 264.819 219.488 264.196 214.822C263.572 210.156 265.982 205.786 269.903 203.695C271.556 202.813 272.709 201.269 272.5 199.703C272.291 198.138 270.773 196.95 268.946 196.533C264.614 195.543 261.143 191.959 260.519 187.293C259.896 182.627 262.306 178.256 266.227 176.165C267.88 175.283 269.033 173.739 268.824 172.173C268.615 170.608 267.097 169.42 265.27 169.003C260.938 168.014 257.467 164.429 256.843 159.763C256.22 155.097 258.63 150.727 262.551 148.635C264.204 147.753 265.357 146.209 265.148 144.644C264.939 143.078 263.421 141.89 261.594 141.473C257.262 140.484 253.79 136.899 253.167 132.233C252.544 127.567 254.954 123.197 258.874 121.105C260.528 120.224 261.681 118.679 261.472 117.114C261.263 115.548 259.745 114.361 257.918 113.943C253.586 112.954 250.114 109.369 249.491 104.703C248.868 100.037 251.278 95.6671 255.198 93.5757C256.852 92.6939 258.005 91.1494 257.796 89.584C257.587 88.0185 256.069 86.8308 254.242 86.4136C249.91 85.4242 246.438 81.8394 245.815 77.1734C245.192 72.5074 247.602 68.1373 251.522 66.0459C253.175 65.1641 254.329 63.6196 254.12 62.0542C253.911 60.4888 252.393 59.301 250.566 58.8839C246.234 57.8945 242.762 54.3096 242.139 49.6436C241.516 44.9776 243.926 40.6075 247.846 38.5161C249.499 37.6343 250.653 36.0898 250.444 34.5244C250.235 32.959 248.717 31.7712 246.89 31.3541C242.558 30.3647 239.086 26.7799 238.463 22.1138C237.768 16.9046 240.851 12.0636 245.601 10.3507C246.508 10.0236 247.064 9.21498 246.961 8.44355C246.694 6.44298 244.856 5.03776 242.855 5.3049C240.546 5.61326 238.777 7.62835 237.412 9.92924C235.76 12.7149 232.892 14.7465 229.43 15.2088C225.689 15.7083 222.138 14.2579 219.8 11.644C218.336 10.0068 216.484 8.82628 214.601 9.07767C212.718 9.32906 211.241 10.9542 210.258 12.9182ZM214.504 8.3532C216.755 8.05263 218.831 9.46401 220.345 11.1568C222.528 13.598 225.842 14.9505 229.333 14.4843C232.564 14.0529 235.24 12.1579 236.784 9.55636C238.16 7.23617 240.085 4.93747 242.758 4.58043C245.159 4.25987 247.365 5.94613 247.686 8.34681C247.846 9.54715 246.988 10.6275 245.849 11.0383C241.416 12.6369 238.539 17.1559 239.188 22.0171C239.769 26.371 243.008 29.7178 247.053 30.6415C249.02 31.0909 250.901 32.4271 251.168 34.4277C251.435 36.4282 249.971 38.2111 248.19 39.161C244.53 41.1135 242.282 45.193 242.864 49.5469C243.445 53.9008 246.684 57.2476 250.729 58.1713C252.696 58.6207 254.577 59.9569 254.844 61.9574C255.111 63.958 253.647 65.7409 251.866 66.6908C248.206 68.6433 245.958 72.7228 246.54 77.0767C247.121 81.4306 250.36 84.7774 254.405 85.7011C256.372 86.1505 258.253 87.4867 258.52 89.4872C258.788 91.4878 257.323 93.2707 255.542 94.2206C251.882 96.1731 249.634 100.253 250.216 104.606C250.797 108.96 254.036 112.307 258.081 113.231C260.049 113.68 261.929 115.016 262.196 117.017C262.464 119.018 260.999 120.8 259.218 121.75C255.558 123.703 253.311 127.782 253.892 132.136C254.473 136.49 257.712 139.837 261.757 140.761C263.725 141.21 265.605 142.546 265.872 144.547C266.14 146.547 264.675 148.33 262.895 149.28C259.234 151.233 256.987 155.312 257.568 159.666C258.149 164.02 261.388 167.367 265.433 168.29C267.401 168.74 269.281 170.076 269.548 172.077C269.816 174.077 268.351 175.86 266.571 176.81C262.91 178.762 260.663 182.842 261.244 187.196C261.825 191.55 265.065 194.897 269.109 195.82C271.077 196.27 272.957 197.606 273.225 199.606C273.492 201.607 272.027 203.39 270.247 204.34C266.586 206.292 264.339 210.372 264.92 214.726C265.501 219.08 268.741 222.426 272.785 223.35C274.753 223.799 276.633 225.136 276.901 227.136C277.168 229.137 275.703 230.92 273.923 231.87C270.262 233.822 268.015 237.901 268.596 242.255C269.177 246.609 272.417 249.956 276.461 250.88C278.429 251.329 280.309 252.665 280.577 254.666C280.844 256.667 279.379 258.449 277.599 259.399C273.938 261.352 271.691 265.431 272.272 269.785C272.887 274.394 276.481 277.874 280.855 278.547C282.451 278.792 283.942 279.871 284.156 281.471C284.476 283.872 282.79 286.078 280.39 286.399C277.989 286.719 275.855 284.935 274.565 282.885C272.497 279.602 268.643 277.644 264.546 278.191C260.192 278.772 256.845 282.011 255.921 286.056C255.472 288.023 254.136 289.904 252.135 290.171C250.135 290.438 248.352 288.974 247.402 287.193C245.449 283.533 241.37 281.285 237.016 281.867C232.662 282.448 229.315 285.687 228.392 289.732C227.942 291.699 226.606 293.58 224.605 293.847C222.605 294.114 220.822 292.65 219.872 290.869C217.92 287.209 213.84 284.961 209.486 285.543C205.132 286.124 201.786 289.363 200.862 293.408C200.412 295.375 199.076 297.256 197.076 297.523C195.075 297.79 193.292 296.326 192.342 294.545C190.39 290.885 186.31 288.637 181.956 289.219C177.603 289.8 174.256 293.039 173.332 297.084C172.883 299.052 171.546 300.932 169.546 301.199C167.545 301.467 165.762 300.002 164.813 298.221C162.86 294.561 158.781 292.313 154.427 292.895C150.073 293.476 146.726 296.715 145.802 300.76C145.353 302.728 144.017 304.608 142.016 304.875C140.016 305.143 138.233 303.678 137.283 301.897C135.33 298.237 131.251 295.99 126.897 296.571C122.543 297.152 119.196 300.391 118.272 304.436C117.823 306.404 116.487 308.284 114.486 308.551C112.486 308.819 110.703 307.354 109.753 305.574C107.8 301.913 103.721 299.666 99.3671 300.247C95.0132 300.828 91.6664 304.068 90.7427 308.112C90.2933 310.08 88.9571 311.96 86.9566 312.228C84.956 312.495 83.1731 311.03 82.2232 309.25C80.2707 305.589 76.1912 303.342 71.8373 303.923C67.9979 304.436 64.9416 307.015 63.6395 310.391C62.6227 313.027 60.7786 315.723 57.9778 316.097C55.5772 316.418 53.3712 314.731 53.0506 312.331C52.8369 310.73 53.9931 309.298 55.4687 308.642C59.5131 306.846 62.0673 302.544 61.4519 297.936C60.8705 293.582 57.6313 290.235 53.5868 289.311C51.6192 288.862 49.7384 287.526 49.4713 285.525C49.2042 283.525 50.6684 281.742 52.4492 280.792C56.1096 278.839 58.3572 274.76 57.7758 270.406C57.1945 266.052 53.9553 262.705 49.9108 261.782C47.9431 261.332 46.0624 259.996 45.7953 257.996C45.5281 255.995 46.9924 254.212 48.7732 253.262C52.4336 251.31 54.6812 247.23 54.0998 242.876C53.5184 238.522 50.2792 235.176 46.2348 234.252C44.2671 233.803 42.3864 232.466 42.1192 230.466C41.8521 228.465 43.3163 226.682 45.0972 225.732C48.7576 223.78 51.0051 219.7 50.4238 215.347C49.8424 210.993 46.6032 207.646 42.5587 206.722C40.5911 206.273 38.7103 204.937 38.4432 202.936C38.176 200.935 39.6403 199.153 41.4211 198.203C45.0815 196.25 47.3291 192.171 46.7477 187.817C46.1663 183.463 42.9272 180.116 38.8827 179.192C36.915 178.743 35.0343 177.407 34.7671 175.406C34.5 173.406 35.9643 171.623 37.7451 170.673C41.4055 168.72 43.6531 164.641 43.0717 160.287C42.4903 155.933 39.2511 152.586 35.2066 151.663C33.239 151.213 31.3582 149.877 31.0911 147.876C30.824 145.876 32.2882 144.093 34.069 143.143C37.7295 141.191 39.977 137.111 39.3956 132.757C38.8143 128.403 35.5751 125.056 31.5306 124.133C29.5629 123.683 27.6822 122.347 27.4151 120.347C27.1479 118.346 28.6122 116.563 30.393 115.613C34.0534 113.661 36.301 109.581 35.7196 105.227C35.1382 100.873 31.899 97.5267 27.8546 96.603C25.8869 96.1536 24.0062 94.8174 23.739 92.8168C23.4719 90.8163 24.9361 89.0334 26.717 88.0835C30.3774 86.131 32.6249 82.0515 32.0436 77.6976C31.4622 73.3437 28.223 69.9969 24.1785 69.0732C22.2109 68.6238 20.3301 67.2876 20.063 65.287C19.7959 63.2865 21.2601 61.5036 23.0409 60.5537C26.7013 58.6012 28.9489 54.5217 28.3675 50.1678C27.7184 45.3066 23.7561 41.7009 19.0589 41.3215C17.8519 41.224 16.7407 40.4065 16.5804 39.2062C16.2599 36.8055 17.9461 34.5995 20.3468 34.2789C23.4437 33.8654 26.293 35.8957 28.6848 37.9058C30.8115 39.6931 33.6543 40.6132 36.6248 40.2166C40.1157 39.7505 42.9592 37.5757 44.4253 34.6472C45.442 32.6165 47.0746 30.71 49.3255 30.4094C51.5765 30.1089 53.6521 31.5202 55.1659 33.213C57.3491 35.6542 60.6636 37.0067 64.1545 36.5406C67.6454 36.0744 70.4889 33.8997 71.9551 30.9712C72.9718 28.9405 74.6043 27.034 76.8553 26.7334C79.1063 26.4328 81.1819 27.8442 82.6957 29.537C84.8789 31.9782 88.1934 33.3307 91.6843 32.8645C95.1752 32.3984 98.0187 30.2236 99.4849 27.2951C100.502 25.2645 102.134 23.3579 104.385 23.0574C106.636 22.7568 108.712 24.1682 110.226 25.8609C112.409 28.3021 115.723 29.6546 119.214 29.1885C122.705 28.7223 125.549 26.5476 127.015 23.6191C128.031 21.5884 129.664 19.6819 131.915 19.3813C134.166 19.0807 136.241 20.4921 137.755 22.1849C139.938 24.6261 143.253 25.9786 146.744 25.5124C150.235 25.0463 153.078 22.8715 154.545 19.943C155.561 17.9124 157.194 16.0059 159.445 15.7053C161.696 15.4047 163.771 16.8161 165.285 18.5089C167.468 20.9501 170.783 22.3025 174.274 21.8364C177.765 21.3703 180.608 19.1955 182.074 16.267C183.091 14.2363 184.723 12.3298 186.974 12.0292C189.225 11.7287 191.301 13.14 192.815 14.8328C194.998 17.274 198.313 18.6265 201.803 18.1604C205.294 17.6942 208.138 15.5195 209.604 12.591C210.621 10.5603 212.253 8.65377 214.504 8.3532Z" fill="#EBEBEB"/>
</g>
<g filter="url(#filter2_ii)">
<path d="M41.7479 56.4923C41.4273 54.0916 43.1136 51.8856 45.5143 51.5651L223.009 27.8643C225.41 27.5437 227.616 29.23 227.936 31.6307L258.892 263.46C259.213 265.861 257.527 268.067 255.126 268.388L77.6313 292.088C75.2306 292.409 73.0246 290.723 72.704 288.322L41.7479 56.4923Z" fill="url(#paint1_linear)"/>
</g>
<g filter="url(#filter3_d)">
<path d="M45.1208 35.6425C21.3443 38.7538 4.53133 60.6295 7.64263 84.406C10.7539 108.182 32.6296 124.995 56.4061 121.884C63.9886 120.892 71.1836 117.921 77.2165 113.29L70.5999 104.664C66.0802 108.133 60.6829 110.36 54.9954 111.104C37.1618 113.438 20.7564 100.829 18.4228 82.9953C16.0892 65.1617 28.6979 48.7563 46.5315 46.4227C64.3651 44.089 80.7705 56.6978 83.1041 74.5314L83.7185 79.2266C84.18 82.7534 82.2488 85.608 79.1246 86.0169C76.1531 86.4057 73.4179 84.3035 73.0291 81.332L70.2078 59.7717L62.7567 60.7467C58.5314 57.9303 53.3606 56.4938 47.9421 57.2028C36.0539 58.7585 27.6473 69.6964 29.203 81.5847C30.7586 93.4729 41.6965 101.88 53.5848 100.324C59.246 99.583 64.0714 96.6745 67.4539 92.589C70.884 95.7282 75.5746 97.4463 80.5353 96.7972C89.6022 95.6107 95.7361 87.2726 94.4987 77.816L93.8843 73.1207C90.773 49.3442 68.8973 32.5312 45.1208 35.6425V35.6425ZM52.1741 89.5435C46.2286 90.3215 40.7613 86.1193 39.9833 80.174C39.2053 74.2285 43.4075 68.7612 49.3528 67.9832C55.2983 67.2052 60.7656 71.4074 61.5436 77.3527C62.3216 83.2982 58.1196 88.7655 52.1741 89.5435Z" fill="url(#paint2_linear)"/>
</g>
<path fill-rule="evenodd" clip-rule="evenodd" d="M68.0592 93.1173C71.4255 95.9184 75.8604 97.4089 80.5353 96.7972C89.6022 95.6107 95.7361 87.2726 94.4987 77.816L93.8843 73.1207C90.773 49.3442 68.8973 32.5312 45.1208 35.6425C44.8548 35.6773 44.5896 35.7145 44.3253 35.754C20.9705 39.2436 4.56614 60.8955 7.64263 84.406C10.7539 108.182 32.6296 124.995 56.4061 121.884C63.7215 120.927 70.6763 118.128 76.5748 113.774C76.7837 113.619 76.9914 113.463 77.1977 113.305C77.204 113.3 77.2102 113.295 77.2165 113.29L70.5999 104.664C66.0802 108.133 60.6829 110.36 54.9954 111.104C37.1618 113.438 20.7564 100.829 18.4228 82.9953C16.0892 65.1617 28.6979 48.7563 46.5315 46.4227C64.3651 44.089 80.7705 56.6978 83.1041 74.5314L83.7185 79.2266C84.18 82.7534 82.2488 85.608 79.1246 86.0169C76.1531 86.4057 73.4179 84.3035 73.0291 81.332L70.2078 59.7717L62.7567 60.7467C58.5314 57.9303 53.3606 56.4938 47.9421 57.2028C36.0539 58.7585 27.6473 69.6964 29.203 81.5847C30.7586 93.4729 41.6965 101.88 53.5848 100.324C58.9601 99.6205 63.5819 96.9627 66.9305 93.1988C67.1086 92.9986 67.2831 92.7953 67.4539 92.589C67.6515 92.7699 67.8534 92.946 68.0592 93.1173ZM69.5156 60.6724L62.5621 61.5823L62.3112 61.4151C58.2327 58.6965 53.2551 57.3177 48.0464 57.9993C36.598 59.4974 28.5013 70.0321 29.9994 81.4805C31.4975 92.9288 42.0322 101.025 53.4806 99.5274C58.9261 98.8148 63.5725 96.0175 66.8352 92.0767L67.3735 91.4265L67.9962 91.9964C71.266 94.9889 75.7242 96.6167 80.4311 96.0008C89.0269 94.8759 94.8863 86.9688 93.7022 77.9202L93.0878 73.2249C90.0341 49.8883 68.5617 33.3852 45.225 36.439C21.8884 39.4927 5.38535 60.9651 8.43909 84.3018C11.4928 107.638 32.9652 124.141 56.3019 121.088C63.4781 120.149 70.3 117.404 76.0858 113.136L70.4456 105.782C65.9481 109.063 60.6587 111.173 55.0997 111.9C36.8262 114.292 20.0175 101.373 17.6263 83.0995C15.2351 64.8261 28.1538 48.0174 46.4273 45.6262C64.7007 43.235 81.5094 56.1537 83.9006 74.4271L84.515 79.1224C85.0218 82.9956 82.8809 86.3354 79.2288 86.8133C75.8175 87.2597 72.679 84.8476 72.2326 81.4363L69.5156 60.6724ZM52.2783 90.34C45.8929 91.1755 40.0224 86.6634 39.1868 80.2782C38.3513 73.8928 42.8634 68.0223 49.2486 67.1867C55.634 66.3512 61.5045 70.8633 62.3401 77.2485C63.1756 83.6339 58.6637 89.5044 52.2783 90.34ZM39.9833 80.174C40.7613 86.1193 46.2286 90.3215 52.1741 89.5435C58.1196 88.7655 62.3216 83.2982 61.5436 77.3527C60.7656 71.4074 55.2983 67.2052 49.3528 67.9832C43.4075 68.7612 39.2053 74.2285 39.9833 80.174Z" fill="#9CE1FF"/>
<path d="M72.145 156.051L214.865 136.993L216.897 152.207L74.1765 171.264L72.145 156.051Z" fill="#EDE8E8"/>
<path d="M76.6917 180.131L219.412 161.074L221.443 176.288L78.7231 195.345L76.6917 180.131Z" fill="#EDE8E8"/>
<path d="M81.2384 205.021L223.959 185.963L225.99 201.177L83.2699 220.235L81.2384 205.021Z" fill="#EDE8E8"/>
<path d="M86.8971 242.801L151.293 234.203L153.324 249.416L88.9286 258.015L86.8971 242.801Z" fill="#EDE8E8"/>
<path fill-rule="evenodd" clip-rule="evenodd" d="M130.416 82.8322C130.536 86.7892 130.975 90.9547 131.516 94.5161L130.07 94.7354C129.523 91.1289 129.077 86.9038 128.955 82.8764C128.834 78.8634 129.032 74.9884 129.804 72.1118C130.189 70.6756 130.734 69.4241 131.507 68.5302C132.302 67.6106 133.34 67.0738 134.616 67.1219C135.848 67.1684 137.205 67.7573 138.695 68.8555C140.194 69.9595 141.888 71.6236 143.807 73.9259C147.497 78.3541 150.817 80.4263 153.582 81.1609C155.534 79.1478 157.18 77.6981 158.543 76.6981C160.202 75.4803 161.532 74.8614 162.535 74.7972C163.057 74.7638 163.564 74.878 163.948 75.2231C164.333 75.5679 164.483 76.0422 164.501 76.4965C164.534 77.3716 164.096 78.4023 163.408 79.3304C162.003 81.2255 159.263 83.0881 155.6 82.9428C155.102 82.9231 154.59 82.8664 154.065 82.7686C153.787 83.0627 153.501 83.3686 153.209 83.6866C151.162 85.9173 149.988 87.63 149.478 88.9014C148.975 90.1581 149.177 90.7971 149.56 91.1741C150.033 91.6408 151.022 91.9736 152.641 92.0435C154.219 92.1116 156.233 91.9248 158.566 91.5303C167.91 89.9503 181.845 85.1376 191.858 81.1648L192.397 82.5235C182.372 86.5014 168.316 91.3643 158.81 92.9716C156.431 93.3739 154.303 93.5784 152.578 93.5039C150.895 93.4312 149.419 93.0875 148.534 92.2156C147.558 91.2539 147.506 89.8921 148.122 88.3574C148.731 86.8375 150.049 84.9683 152.133 82.6981C152.241 82.5803 152.348 82.4639 152.455 82.3492C149.501 81.3632 146.197 79.078 142.684 74.8617C140.806 72.6089 139.197 71.0409 137.828 70.0323C136.451 69.0178 135.378 68.6135 134.561 68.5827C133.787 68.5535 133.158 68.8552 132.612 69.4864C132.044 70.1433 131.574 71.1549 131.216 72.4905C130.5 75.1574 130.296 78.8608 130.416 82.8322ZM155.336 81.4634C155.444 81.4717 155.552 81.4779 155.658 81.4822C158.77 81.6056 161.073 80.0249 162.234 78.4597C162.829 77.6576 163.055 76.9539 163.04 76.5523C163.033 76.3682 162.98 76.3184 162.973 76.3114C162.965 76.3048 162.89 76.2393 162.628 76.256C162.064 76.2922 161.02 76.6932 159.407 77.8767C158.288 78.6982 156.936 79.8649 155.336 81.4634Z" fill="#453C3C"/>
<g filter="url(#filter4_dddi)">
<path fill-rule="evenodd" clip-rule="evenodd" d="M242.804 230.061C246.611 223.313 256.329 223.313 260.135 230.061L294.898 291.686C298.064 297.298 294.009 304.241 287.566 304.241H215.374C208.93 304.241 204.876 297.298 208.041 291.686L242.804 230.061Z" fill="url(#paint3_linear)"/>
</g>
<path fill-rule="evenodd" clip-rule="evenodd" d="M246.157 231.627C248.509 227.522 254.431 227.522 256.783 231.627L292.029 293.16C294.075 296.731 291.497 301.18 287.381 301.18H215.559C211.443 301.18 208.865 296.731 210.911 293.16L246.157 231.627Z" fill="url(#paint4_linear)"/>
<g filter="url(#filter5_diii)">
<path fill-rule="evenodd" clip-rule="evenodd" d="M251.47 244.547C248.228 244.547 245.728 247.402 246.156 250.616L249.932 278.933C249.936 278.963 249.962 278.986 249.992 278.986H252.974C252.989 278.986 253.002 278.974 253.004 278.959L256.783 250.616C257.212 247.402 254.712 244.547 251.47 244.547ZM256.445 288.552C256.445 291.299 254.218 293.527 251.471 293.527C248.723 293.527 246.496 291.299 246.496 288.552C246.496 285.805 248.723 283.578 251.471 283.578C254.218 283.578 256.445 285.805 256.445 288.552Z" fill="url(#paint5_linear)"/>
</g>
<defs>
<filter id="filter0_d" x="8" y="0" width="284.736" height="328.677" filterUnits="userSpaceOnUse" color-interpolation-filters="sRGB">
<feFlood flood-opacity="0" result="BackgroundImageFix"/>
<feColorMatrix in="SourceAlpha" type="matrix" values="0 0 0 0 0 0 0 0 0 0 0 0 0 0 0 0 0 0 127 0"/>
<feOffset dy="4"/>
<feGaussianBlur stdDeviation="4"/>
<feColorMatrix type="matrix" values="0 0 0 0 0 0 0 0 0 0 0 0 0 0 0 0 0 0 0.25 0"/>
<feBlend mode="normal" in2="BackgroundImageFix" result="effect1_dropShadow"/>
<feBlend mode="normal" in="SourceGraphic" in2="effect1_dropShadow" result="shape"/>
</filter>
<filter id="filter1_d" x="8" y="0" width="284.736" height="328.677" filterUnits="userSpaceOnUse" color-interpolation-filters="sRGB">
<feFlood flood-opacity="0" result="BackgroundImageFix"/>
<feColorMatrix in="SourceAlpha" type="matrix" values="0 0 0 0 0 0 0 0 0 0 0 0 0 0 0 0 0 0 127 0"/>
<feOffset dy="4"/>
<feGaussianBlur stdDeviation="4"/>
<feColorMatrix type="matrix" values="0 0 0 0 0 0 0 0 0 0 0 0 0 0 0 0 0 0 0.25 0"/>
<feBlend mode="normal" in2="BackgroundImageFix" result="effect1_dropShadow"/>
<feBlend mode="normal" in="SourceGraphic" in2="effect1_dropShadow" result="shape"/>
</filter>
<filter id="filter2_ii" x="37.1675" y="23.2839" width="226.305" height="273.385" filterUnits="userSpaceOnUse" color-interpolation-filters="sRGB">
<feFlood flood-opacity="0" result="BackgroundImageFix"/>
<feBlend mode="normal" in="SourceGraphic" in2="BackgroundImageFix" result="shape"/>
<feColorMatrix in="SourceAlpha" type="matrix" values="0 0 0 0 0 0 0 0 0 0 0 0 0 0 0 0 0 0 127 0" result="hardAlpha"/>
<feOffset dx="4" dy="4"/>
<feGaussianBlur stdDeviation="4"/>
<feComposite in2="hardAlpha" operator="arithmetic" k2="-1" k3="1"/>
<feColorMatrix type="matrix" values="0 0 0 0 0 0 0 0 0 0 0 0 0 0 0 0 0 0 0.15 0"/>
<feBlend mode="normal" in2="shape" result="effect1_innerShadow"/>
<feColorMatrix in="SourceAlpha" type="matrix" values="0 0 0 0 0 0 0 0 0 0 0 0 0 0 0 0 0 0 127 0" result="hardAlpha"/>
<feOffset dx="-4" dy="-4"/>
<feGaussianBlur stdDeviation="4"/>
<feComposite in2="hardAlpha" operator="arithmetic" k2="-1" k3="1"/>
<feColorMatrix type="matrix" values="0 0 0 0 0 0 0 0 0 0 0 0 0 0 0 0 0 0 0.14 0"/>
<feBlend mode="normal" in2="effect1_innerShadow" result="effect2_innerShadow"/>
</filter>
<filter id="filter3_d" x="0" y="29.9999" width="101.527" height="103.527" filterUnits="userSpaceOnUse" color-interpolation-filters="sRGB">
<feFlood flood-opacity="0" result="BackgroundImageFix"/>
<feColorMatrix in="SourceAlpha" type="matrix" values="0 0 0 0 0 0 0 0 0 0 0 0 0 0 0 0 0 0 127 0"/>
<feOffset dy="4"/>
<feGaussianBlur stdDeviation="1"/>
<feColorMatrix type="matrix" values="0 0 0 0 0 0 0 0 0 0.54435 0 0 0 0 0.783333 0 0 0 0.53 0"/>
<feBlend mode="normal" in2="BackgroundImageFix" result="effect1_dropShadow"/>
<feBlend mode="normal" in="SourceGraphic" in2="effect1_dropShadow" result="shape"/>
</filter>
<filter id="filter4_dddi" x="204.943" y="223" width="93.0538" height="83.2409" filterUnits="userSpaceOnUse" color-interpolation-filters="sRGB">
<feFlood flood-opacity="0" result="BackgroundImageFix"/>
<feColorMatrix in="SourceAlpha" type="matrix" values="0 0 0 0 0 0 0 0 0 0 0 0 0 0 0 0 0 0 127 0"/>
<feOffset dy="1"/>
<feGaussianBlur stdDeviation="0.5"/>
<feColorMatrix type="matrix" values="0 0 0 0 0 0 0 0 0 0 0 0 0 0 0 0 0 0 0.200719 0"/>
<feBlend mode="normal" in2="BackgroundImageFix" result="effect1_dropShadow"/>
<feColorMatrix in="SourceAlpha" type="matrix" values="0 0 0 0 0 0 0 0 0 0 0 0 0 0 0 0 0 0 127 0"/>
<feOffset dy="0.5"/>
<feColorMatrix type="matrix" values="0 0 0 0 0 0 0 0 0 0 0 0 0 0 0 0 0 0 0.104704 0"/>
<feBlend mode="normal" in2="effect1_dropShadow" result="effect2_dropShadow"/>
<feColorMatrix in="SourceAlpha" type="matrix" values="0 0 0 0 0 0 0 0 0 0 0 0 0 0 0 0 0 0 127 0"/>
<feOffset/>
<feGaussianBlur stdDeviation="1"/>
<feColorMatrix type="matrix" values="0 0 0 0 0 0 0 0 0 0 0 0 0 0 0 0 0 0 0.201313 0"/>
<feBlend mode="normal" in2="effect2_dropShadow" result="effect3_dropShadow"/>
<feBlend mode="normal" in="SourceGraphic" in2="effect3_dropShadow" result="shape"/>
<feColorMatrix in="SourceAlpha" type="matrix" values="0 0 0 0 0 0 0 0 0 0 0 0 0 0 0 0 0 0 127 0" result="hardAlpha"/>
<feOffset dy="-0.5"/>
<feGaussianBlur stdDeviation="0.25"/>
<feComposite in2="hardAlpha" operator="arithmetic" k2="-1" k3="1"/>
<feColorMatrix type="matrix" values="0 0 0 0 0 0 0 0 0 0 0 0 0 0 0 0 0 0 0.149513 0"/>
<feBlend mode="normal" in2="shape" result="effect4_innerShadow"/>
</filter>
<filter id="filter5_diii" x="245.609" y="244.047" width="11.7225" height="50.4799" filterUnits="userSpaceOnUse" color-interpolation-filters="sRGB">
<feFlood flood-opacity="0" result="BackgroundImageFix"/>
<feColorMatrix in="SourceAlpha" type="matrix" values="0 0 0 0 0 0 0 0 0 0 0 0 0 0 0 0 0 0 127 0"/>
<feOffset dy="0.5"/>
<feGaussianBlur stdDeviation="0.25"/>
<feColorMatrix type="matrix" values="0 0 0 0 0 0 0 0 0 0 0 0 0 0 0 0 0 0 0.252236 0"/>
<feBlend mode="normal" in2="BackgroundImageFix" result="effect1_dropShadow"/>
<feBlend mode="normal" in="SourceGraphic" in2="effect1_dropShadow" result="shape"/>
<feColorMatrix in="SourceAlpha" type="matrix" values="0 0 0 0 0 0 0 0 0 0 0 0 0 0 0 0 0 0 127 0" result="hardAlpha"/>
<feOffset dy="0.5"/>
<feComposite in2="hardAlpha" operator="arithmetic" k2="-1" k3="1"/>
<feColorMatrix type="matrix" values="0 0 0 0 1 0 0 0 0 1 0 0 0 0 1 0 0 0 0.5 0"/>
<feBlend mode="normal" in2="shape" result="effect2_innerShadow"/>
<feColorMatrix in="SourceAlpha" type="matrix" values="0 0 0 0 0 0 0 0 0 0 0 0 0 0 0 0 0 0 127 0" result="hardAlpha"/>
<feOffset dy="-0.5"/>
<feGaussianBlur stdDeviation="0.5"/>
<feComposite in2="hardAlpha" operator="arithmetic" k2="-1" k3="1"/>
<feColorMatrix type="matrix" values="0 0 0 0 0.882353 0 0 0 0 0.666667 0 0 0 0 0 0 0 0 0.801404 0"/>
<feBlend mode="normal" in2="effect2_innerShadow" result="effect3_innerShadow"/>
<feColorMatrix in="SourceAlpha" type="matrix" values="0 0 0 0 0 0 0 0 0 0 0 0 0 0 0 0 0 0 127 0" result="hardAlpha"/>
<feOffset dy="-0.5"/>
<feGaussianBlur stdDeviation="0.25"/>
<feComposite in2="hardAlpha" operator="arithmetic" k2="-1" k3="1"/>
<feColorMatrix type="matrix" values="0 0 0 0 0 0 0 0 0 0 0 0 0 0 0 0 0 0 0.195511 0"/>
<feBlend mode="normal" in2="effect3_innerShadow" result="effect4_innerShadow"/>
</filter>
<linearGradient id="paint0_linear" x1="131.553" y1="19.4297" x2="169.184" y2="301.248" gradientUnits="userSpaceOnUse">
<stop stop-color="#F7F6F6"/>
<stop offset="1" stop-color="#FEFEFE"/>
</linearGradient>
<linearGradient id="paint1_linear" x1="134.262" y1="39.7147" x2="166.379" y2="280.238" gradientUnits="userSpaceOnUse">
<stop stop-color="white"/>
<stop offset="1" stop-color="white"/>
</linearGradient>
<linearGradient id="paint2_linear" x1="44.8563" y1="35.6771" x2="144.831" y2="133.454" gradientUnits="userSpaceOnUse">
<stop stop-color="white"/>
<stop offset="0.156711" stop-color="white"/>
<stop offset="0.733372" stop-color="#4DC9FF"/>
</linearGradient>
<linearGradient id="paint3_linear" x1="206.955" y1="222.622" x2="206.955" y2="304.241" gradientUnits="userSpaceOnUse">
<stop stop-color="#FDFDFD"/>
<stop offset="1" stop-color="#E6E6E6"/>
</linearGradient>
<linearGradient id="paint4_linear" x1="210.201" y1="229.321" x2="210.201" y2="301.18" gradientUnits="userSpaceOnUse">
<stop stop-color="#FEE543"/>
<stop offset="1" stop-color="#E1AA00"/>
</linearGradient>
<linearGradient id="paint5_linear" x1="246.109" y1="244.547" x2="246.109" y2="293.527" gradientUnits="userSpaceOnUse">
<stop stop-color="#FAF8EC"/>
<stop offset="0.972577" stop-color="#E6E7E7"/>
</linearGradient>
</defs>
</svg>
