<svg width="24" height="24" viewBox="0 0 24 24" fill="none" xmlns="http://www.w3.org/2000/svg">
<g opacity="0.4">
<path fill-rule="evenodd" clip-rule="evenodd" d="M12.2366 2.00036C17.6501 2.12605 22 6.5562 22 12C22 17.5278 17.5318 22.0104 11.9988 22C6.46116 21.9896 1.93928 17.4387 2.00062 11.8957C2.02564 9.47156 2.93102 7.1392 4.54809 5.33312C4.83147 5.01662 5.31777 4.98977 5.63426 5.27316C5.95076 5.55654 5.9776 6.04285 5.69422 6.35935C4.32606 7.88744 3.56006 9.86082 3.53895 11.9118L3.53894 11.9124C3.48699 16.5952 7.31385 20.4527 12.0017 20.4615C16.68 20.4703 20.4616 16.6809 20.4616 12C20.4616 7.58574 17.0813 3.9592 12.7695 3.57056V7.00008C12.7695 7.42491 12.4251 7.7693 12.0003 7.7693C11.5755 7.7693 11.2311 7.42491 11.2311 7.00008V2.98019C11.2309 2.84924 11.257 2.71959 11.3078 2.5989C11.3588 2.47779 11.4337 2.36818 11.528 2.27663C11.6223 2.18508 11.734 2.11344 11.8566 2.066C11.9777 2.01913 12.1068 1.99682 12.2366 2.00036Z" fill="black"/>
<path d="M11.0437 14.2219L7.07355 7.73397C7.01863 7.64408 6.99315 7.53497 7.00158 7.42577C7.01001 7.31657 7.05182 7.21424 7.11967 7.13672C7.18752 7.0592 7.27709 7.01144 7.37267 7.00181C7.46825 6.99217 7.56376 7.02128 7.64244 7.08403L13.3212 11.6198C13.6696 11.9064 13.9051 12.3382 13.977 12.8217C14.0488 13.3052 13.9511 13.8016 13.7051 14.2035C13.4591 14.6053 13.0845 14.8804 12.6623 14.9692C12.2402 15.0579 11.8044 14.9533 11.4492 14.6778C11.2922 14.5535 11.155 14.3993 11.0437 14.2219Z" fill="black"/>
</g>
</svg>
