<svg width="286" height="300" viewBox="0 0 286 300" fill="none" xmlns="http://www.w3.org/2000/svg">
<path d="M96.7798 28.3507C100.197 55.064 129.169 73.0669 140.874 83.4247C150.964 71.4894 177.042 49.5021 176.577 22.5751C175.907 13.3149 166.951 3.8787 155.973 3.9838C148.292 4.05733 142.074 6.50677 136.113 18.8671C128.434 7.49396 122.103 5.95284 114.492 6.98607C103.614 8.46292 96.1096 19.0905 96.7798 28.3507Z" fill="url(#paint0_radial)"/>
<path fill-rule="evenodd" clip-rule="evenodd" d="M135.108 17.4235C127.875 7.36343 121.769 5.99827 114.492 6.98607C103.614 8.46292 96.1096 19.0905 96.7798 28.3507C99.6054 50.4362 119.898 66.5679 133.459 77.3477C135.78 79.1928 137.904 80.8811 139.709 82.4156C140.114 82.7597 140.502 83.096 140.874 83.4247C141.194 83.046 141.53 82.6572 141.881 82.2584C143.446 80.4799 145.305 78.5034 147.336 76.3433C159.203 63.7231 176.961 44.8374 176.577 22.5751C175.907 13.3149 166.951 3.8787 155.973 3.9838C148.63 4.0541 142.623 6.29609 136.9 17.2944C136.637 17.7999 136.375 18.3239 136.113 18.8671C135.775 18.3671 135.44 17.8861 135.108 17.4235ZM175.043 22.6439C174.405 14.1811 166.109 5.43375 155.989 5.53064C152.313 5.56584 149.167 6.16678 146.244 8.10944C143.298 10.0679 140.407 13.5039 137.494 19.5444L136.336 21.9461L134.844 19.7362C131.086 14.1712 127.772 11.1852 124.618 9.67048C121.493 8.17012 118.342 8.02458 114.699 8.51914C104.67 9.8806 97.7207 19.7314 98.3082 28.1978C99.9642 41.0297 107.769 51.891 116.8 60.9237C121.309 65.4332 126.085 69.4493 130.486 72.9991C131.815 74.0713 133.117 75.1065 134.369 76.1017C136.711 77.9636 138.878 79.6858 140.716 81.2493C142.311 79.4373 144.206 77.4212 146.256 75.2413C147.352 74.0762 148.491 72.8643 149.652 71.6118C153.496 67.4654 157.643 62.8034 161.456 57.6917C169.092 47.4525 175.252 35.5806 175.043 22.6439Z" fill="#F41E0E"/>
<path d="M96.337 25.8035C99.7629 52.4992 128.984 73.0874 140.758 83.433C150.919 71.4997 176.986 46.9099 176.532 19.9991C175.863 10.7448 166.854 1.31874 155.805 1.42937C148.076 1.50677 142.004 6.56025 135.999 18.9163C128.277 7.55381 121.834 3.4061 114.174 4.44259C103.225 5.9241 95.6672 16.5492 96.337 25.8035Z" fill="url(#paint1_linear)"/>
<path fill-rule="evenodd" clip-rule="evenodd" d="M133.606 15.574C126.911 6.74009 121.03 3.51491 114.174 4.44259C103.225 5.9241 95.6672 16.5492 96.337 25.8035C99.3051 48.9314 121.634 67.4753 135.205 78.7461C136.184 79.559 137.118 80.3341 137.995 81.0704C138.994 81.9088 139.92 82.6968 140.758 83.433C141.48 82.5841 142.284 81.6712 143.152 80.6979C143.938 79.8176 144.777 78.888 145.658 77.9117C157.495 64.7944 176.925 43.2641 176.532 19.9991C175.863 10.7448 166.854 1.31874 155.805 1.42937C148.886 1.49866 143.295 5.55563 137.891 15.2692C137.259 16.4065 136.628 17.6213 135.999 18.9163C135.188 17.7234 134.392 16.6101 133.606 15.574ZM172.899 20.1654C172.306 12.7808 164.859 4.97419 155.842 5.06448C150.249 5.12048 145.096 8.51508 139.269 20.5053L136.523 26.1546L132.992 20.9596C129.243 15.4432 126.02 12.0134 123.064 10.0656C120.24 8.2058 117.594 7.64823 114.661 8.04505C105.726 9.25412 99.4804 18.0518 99.9563 25.4449C101.553 37.6147 109.07 48.705 118.064 58.2576C124.641 65.2442 131.651 71.0654 137.358 75.8046C138.417 76.6841 139.431 77.5263 140.389 78.3318C141.247 77.3687 142.159 76.3586 143.112 75.3028C148.073 69.8055 154.154 63.0675 159.651 55.2428C167.205 44.4909 173.072 32.4337 172.899 20.1654Z" fill="url(#paint2_linear)"/>
<path d="M86.3027 158.411C82.8175 175.023 96.3476 191.729 101.176 200.314C109.651 195.293 129.721 187.59 135.008 171.462C136.523 165.81 133.14 158.34 126.582 156.134C121.994 154.591 117.785 154.765 111.682 160.892C109.46 152.534 106.009 150.308 101.264 149.35C94.4812 147.982 87.8172 152.759 86.3027 158.411Z" fill="url(#paint3_radial)"/>
<path fill-rule="evenodd" clip-rule="evenodd" d="M111.382 159.825C109.154 152.341 105.8 150.266 101.264 149.35C94.4812 147.982 87.8172 152.759 86.3027 158.411C83.4212 172.145 92.1704 185.943 98.0169 195.164C99.0176 196.742 99.9333 198.186 100.691 199.473C100.861 199.761 101.023 200.042 101.176 200.314C101.445 200.155 101.726 199.993 102.017 199.828C103.316 199.093 104.832 198.3 106.487 197.434C116.161 192.372 130.637 184.796 135.008 171.462C136.523 165.81 133.14 158.34 126.582 156.134C122.196 154.659 118.156 154.753 112.476 160.119C112.214 160.365 111.95 160.623 111.682 160.892C111.584 160.525 111.484 160.169 111.382 159.825ZM134.081 171.186C135.45 166.015 132.318 159.092 126.272 157.059C124.076 156.32 122.079 156.028 119.937 156.581C117.778 157.138 115.347 158.586 112.364 161.581L111.178 162.772L110.746 161.147C109.659 157.058 108.303 154.595 106.738 153.041C105.188 151.502 103.341 150.764 101.07 150.306C94.8174 149.044 88.644 153.473 87.2443 158.636C85.5787 166.618 87.9813 174.698 91.4922 181.943C93.2449 185.559 95.2587 188.937 97.1453 191.96C97.7152 192.873 98.2766 193.759 98.8163 194.61C99.8262 196.203 100.76 197.676 101.532 198.987C102.856 198.237 104.401 197.429 106.072 196.554C106.965 196.087 107.894 195.601 108.844 195.095C111.989 193.42 115.422 191.502 118.749 189.246C125.411 184.727 131.532 178.931 134.081 171.186Z" fill="#F41E0E"/>
<path d="M86.5656 156.803C83.089 173.406 96.233 191.703 101.105 200.295C109.622 195.29 130.224 186.036 135.514 169.919C137.028 164.27 133.612 156.796 127.011 154.579C122.392 153.028 117.733 154.782 111.604 160.898C109.354 152.537 106.375 148.736 101.6 147.77C94.7745 146.39 88.0791 151.154 86.5656 156.803Z" fill="url(#paint4_linear)"/>
<path fill-rule="evenodd" clip-rule="evenodd" d="M110.87 158.414C108.709 151.77 105.874 148.635 101.6 147.77C94.7745 146.39 88.0791 151.154 86.5656 156.803C83.5536 171.187 93.0166 186.842 98.7681 196.357C99.1829 197.044 99.5785 197.698 99.9486 198.318C100.37 199.023 100.759 199.684 101.105 200.295C101.711 199.939 102.378 199.562 103.096 199.162C103.746 198.8 104.438 198.42 105.164 198.021C114.923 192.657 130.941 183.852 135.514 169.919C137.028 164.27 133.612 156.796 127.011 154.579C122.876 153.19 118.709 154.451 113.484 159.118C112.873 159.664 112.246 160.257 111.604 160.898C111.368 160.02 111.124 159.193 110.87 158.414ZM133.317 169.267C134.489 164.747 131.668 158.56 126.281 156.751C122.94 155.629 119.17 156.585 113.222 162.52L110.42 165.316L109.392 161.493C108.299 157.434 107.089 154.726 105.731 152.955C104.434 151.264 102.974 150.386 101.146 150.016C95.5755 148.889 90.0391 152.837 88.7946 157.337C87.2303 164.913 89.4145 173.07 92.7955 180.616C95.2683 186.135 98.239 191.05 100.657 195.051C101.106 195.793 101.536 196.504 101.94 197.182C102.65 196.786 103.402 196.373 104.187 195.941C108.277 193.693 113.29 190.938 118.18 187.415C124.9 182.574 130.884 176.607 133.317 169.267Z" fill="url(#paint5_linear)"/>
<path d="M19.4853 31.2647C22.9541 41.8457 36.121 46.899 41.6805 50.1931C44.8481 44.5605 53.7243 33.6009 51.4379 22.7031C50.4443 18.9951 46.0725 15.8611 41.6229 16.759C38.51 17.3872 36.1756 18.8663 34.7181 24.3497C30.7141 20.3297 28.0233 20.1971 25.0133 21.2096C20.7109 22.6567 18.4918 27.5568 19.4853 31.2647Z" fill="url(#paint6_radial)"/>
<path fill-rule="evenodd" clip-rule="evenodd" d="M34.1975 23.8418C30.4769 20.3202 27.891 20.2416 25.0133 21.2096C20.7109 22.6567 18.4918 27.5568 19.4853 31.2647C22.3532 40.0127 31.85 44.9822 38.1962 48.3031C39.2824 48.8715 40.2763 49.3916 41.1289 49.8741C41.3201 49.9822 41.5041 50.0885 41.6805 50.1931C41.781 50.0143 41.8873 49.8303 41.9987 49.641C42.4958 48.7969 43.0965 47.8495 43.753 46.8142C47.5885 40.7651 53.3282 31.713 51.4379 22.7031C50.4443 18.9951 46.0725 15.8611 41.6229 16.759C38.6468 17.3596 36.3823 18.7379 34.9153 23.6498C34.8479 23.8755 34.7821 24.1087 34.7181 24.3497C34.5421 24.173 34.3686 24.0038 34.1975 23.8418ZM50.8202 22.8506C49.9019 19.4638 45.852 16.5581 41.7501 17.3859C40.2601 17.6865 39.0296 18.1756 37.994 19.1922C36.9501 20.217 36.0439 21.8374 35.3317 24.5171L35.0484 25.5826L34.2704 24.8015C32.3113 22.8345 30.7329 21.8801 29.334 21.5108C27.9484 21.145 26.6574 21.3314 25.2167 21.816C21.2504 23.1501 19.1959 27.6915 20.094 31.0836C21.7661 36.1651 25.7815 39.9674 30.1524 42.9317C32.3346 44.4116 34.5867 45.6703 36.6502 46.7689C37.2735 47.1007 37.8828 47.4196 38.4687 47.7262C39.5649 48.2998 40.5787 48.8304 41.4471 49.322C41.9534 48.462 42.5661 47.4956 43.2286 46.4508C43.5826 45.8924 43.9509 45.3115 44.3248 44.7125C45.5625 42.7293 46.8836 40.5132 48.0334 38.1405C50.3367 33.3879 51.9129 28.0873 50.8202 22.8506Z" fill="#F41E0E"/>
<path d="M19.1074 30.2649C22.5782 40.8381 36.0475 46.9217 41.6343 50.2055C44.8308 44.5683 53.5002 32.5526 51.2194 21.6605C50.2265 17.9549 45.8341 14.8292 41.3564 15.7348C38.2237 16.3684 36.152 18.8934 34.6761 24.3785C30.6553 20.3662 27.716 19.1839 24.6862 20.2016C20.3556 21.6561 18.1145 26.5593 19.1074 30.2649Z" fill="url(#paint7_linear)"/>
<path fill-rule="evenodd" clip-rule="evenodd" d="M33.4442 23.2077C30.0372 20.1422 27.3979 19.2908 24.6862 20.2016C20.3556 21.6561 18.1145 26.5593 19.1074 30.2649C22.1144 39.425 32.6258 45.2154 39.0147 48.7348C39.4755 48.9887 39.9148 49.2307 40.3284 49.4613C40.7993 49.724 41.2368 49.9718 41.6343 50.2055C41.8617 49.8045 42.1168 49.3712 42.3937 48.9083C42.6441 48.4897 42.9123 48.0468 43.194 47.5817C46.9789 41.3331 53.1912 31.0769 51.2194 21.6605C50.2265 17.9549 45.8341 14.8292 41.3564 15.7348C38.552 16.302 36.5979 18.3849 35.1603 22.7502C34.992 23.2613 34.8307 23.8036 34.6761 24.3785C34.254 23.9573 33.8438 23.5673 33.4442 23.2077ZM49.7571 22.0111C48.9407 19.0588 45.3086 16.4689 41.6543 17.208C39.3877 17.6665 37.5597 19.4463 36.1275 24.7691L35.4527 27.2769L33.6143 25.4424C31.6623 23.4945 30.0863 22.3529 28.734 21.7923C27.4426 21.2571 26.3247 21.2368 25.1648 21.6264C21.6305 22.8135 19.78 26.8724 20.5491 29.8374C22.1454 34.6547 26.0619 38.5724 30.458 41.7507C33.6733 44.0752 36.973 45.8929 39.6595 47.3728C40.1581 47.6474 40.6355 47.9104 41.0873 48.1628C41.3608 47.7048 41.6522 47.2237 41.9569 46.7207C43.5432 44.102 45.4875 40.8923 47.1102 37.2867C49.3399 32.3323 50.7829 26.9793 49.7571 22.0111Z" fill="url(#paint8_linear)"/>
<path d="M5.7453 247.106C13.6414 271.192 43.6133 282.694 56.2684 290.193C63.4789 277.371 83.6839 252.424 78.4793 227.617C76.2177 219.176 66.2659 212.043 56.1374 214.086C49.0513 215.516 43.7375 218.883 40.4198 231.365C31.3055 222.214 25.1804 221.913 18.3287 224.217C8.53513 227.511 3.48364 238.665 5.7453 247.106Z" fill="url(#paint9_radial)"/>
<path fill-rule="evenodd" clip-rule="evenodd" d="M39.2347 230.209C30.7656 222.193 24.8792 222.014 18.3287 224.217C8.53513 227.511 3.48364 238.665 5.7453 247.106C12.2735 267.019 33.8912 278.331 48.337 285.891C50.8096 287.184 53.0721 288.368 55.0128 289.467C55.4479 289.713 55.8669 289.955 56.2684 290.193C56.4972 289.786 56.7391 289.367 56.9928 288.936C58.1243 287.015 59.4917 284.858 60.9861 282.501C69.7169 268.732 82.7822 248.126 78.4793 227.617C76.2177 219.176 66.2659 212.043 56.1374 214.086C49.3627 215.454 44.208 218.591 40.8687 229.772C40.7152 230.286 40.5655 230.817 40.4198 231.365C40.0191 230.963 39.6242 230.578 39.2347 230.209ZM77.0732 227.953C74.983 220.243 65.764 213.629 56.4267 215.513C53.0352 216.198 50.2341 217.311 47.8768 219.625C45.5005 221.958 43.4378 225.646 41.8164 231.746L41.1718 234.172L39.4007 232.393C34.9411 227.916 31.3482 225.744 28.1639 224.903C25.0098 224.07 22.0711 224.494 18.7915 225.598C9.76312 228.634 5.08643 238.972 7.13083 246.694C10.9371 258.261 20.0772 266.916 30.0269 273.664C34.9941 277.032 40.1208 279.897 44.8178 282.398C46.2366 283.154 47.6238 283.879 48.9574 284.577C51.4525 285.883 53.7603 287.091 55.7371 288.21C56.8895 286.252 58.2843 284.053 59.7923 281.674C60.5983 280.403 61.4367 279.081 62.2877 277.717C65.1051 273.203 68.1122 268.158 70.7297 262.757C75.9725 251.939 79.5605 239.873 77.0732 227.953Z" fill="#F41E0E"/>
<path d="M4.88442 244.83C12.785 268.898 43.4453 282.746 56.1627 290.221C63.4389 277.389 83.1731 250.037 77.9813 225.244C75.7211 216.809 65.7226 209.693 55.53 211.755C48.399 213.197 43.6832 218.945 40.3235 231.431C31.171 222.297 24.4801 219.606 17.5834 221.923C7.72558 225.234 2.62419 236.395 4.88442 244.83Z" fill="url(#paint10_linear)"/>
<path fill-rule="evenodd" clip-rule="evenodd" d="M37.5193 228.766C29.7639 221.788 23.7561 219.849 17.5834 221.923C7.72558 225.234 2.62419 236.395 4.88442 244.83C11.7291 265.681 35.6566 278.862 50.1995 286.873C51.2485 287.451 52.2486 288.002 53.19 288.527C54.262 289.125 55.2578 289.689 56.1627 290.221C56.6803 289.308 57.2609 288.322 57.8912 287.268C58.4612 286.315 59.0718 285.307 59.713 284.248C68.3285 270.025 82.4697 246.678 77.9813 225.244C75.7211 216.809 65.7226 209.693 55.53 211.755C49.1464 213.046 44.6982 217.787 41.4257 227.724C41.0426 228.887 40.6756 230.122 40.3235 231.431C39.3627 230.472 38.429 229.584 37.5193 228.766ZM74.6526 226.042C72.7943 219.321 64.5266 213.426 56.2082 215.108C51.0487 216.152 46.8877 220.203 43.6274 232.32L42.0913 238.028L37.9067 233.853C33.4632 229.418 29.8758 226.82 26.7974 225.544C23.858 224.325 21.3132 224.279 18.6728 225.166C10.6277 227.868 6.4153 237.107 8.16615 243.857C11.7998 254.822 20.7149 263.74 30.7218 270.975C38.0408 276.267 45.5521 280.404 51.6674 283.773C52.8022 284.398 53.889 284.997 54.9175 285.571C55.54 284.529 56.2034 283.433 56.8969 282.289C60.5079 276.327 64.9337 269.021 68.6275 260.814C73.703 249.536 76.9876 237.351 74.6526 226.042Z" fill="url(#paint11_linear)"/>
<path d="M153.11 123.95C158.397 140.079 178.468 147.782 186.942 152.803C191.771 144.217 205.301 127.511 201.815 110.9C200.301 105.247 193.637 100.47 186.854 101.839C182.109 102.797 178.551 105.051 176.329 113.41C170.226 107.282 166.124 107.08 161.536 108.623C154.978 110.829 151.595 118.298 153.11 123.95Z" fill="url(#paint12_radial)"/>
<path fill-rule="evenodd" clip-rule="evenodd" d="M175.536 112.635C169.864 107.267 165.923 107.148 161.536 108.623C154.978 110.829 151.595 118.298 153.11 123.95C157.481 137.285 171.957 144.86 181.631 149.922C183.287 150.789 184.802 151.581 186.101 152.317C186.393 152.482 186.673 152.644 186.942 152.803C187.095 152.531 187.257 152.25 187.427 151.962C188.185 150.675 189.101 149.231 190.101 147.653C195.948 138.432 204.697 124.634 201.815 110.9C200.301 105.247 193.637 100.47 186.854 101.839C182.318 102.754 178.866 104.855 176.63 112.343C176.527 112.687 176.427 113.042 176.329 113.41C176.061 113.14 175.796 112.882 175.536 112.635ZM200.874 111.124C199.474 105.962 193.301 101.533 187.048 102.795C184.777 103.253 182.901 103.998 181.323 105.548C179.731 107.11 178.35 109.58 177.264 113.665L176.833 115.289L175.647 114.098C172.66 111.1 170.254 109.645 168.122 109.082C166.01 108.525 164.042 108.809 161.846 109.547C155.8 111.581 152.668 118.504 154.037 123.674C156.586 131.42 162.707 137.216 169.37 141.734C172.696 143.99 176.129 145.909 179.274 147.584C180.224 148.089 181.153 148.575 182.046 149.043C183.717 149.917 185.263 150.726 186.586 151.475C187.358 150.164 188.292 148.691 189.302 147.099C189.842 146.247 190.403 145.362 190.973 144.449C192.86 141.426 194.873 138.048 196.626 134.431C200.137 127.187 202.539 119.107 200.874 111.124Z" fill="#F41E0E"/>
<path d="M152.533 122.426C157.824 138.543 178.355 147.816 186.871 152.822C191.744 144.229 204.958 125.913 201.482 109.31C199.968 103.662 193.273 98.8972 186.447 100.278C181.672 101.244 178.514 105.092 176.265 113.453C170.136 107.337 165.655 105.535 161.037 107.086C154.436 109.304 151.019 116.778 152.533 122.426Z" fill="url(#paint13_linear)"/>
<path fill-rule="evenodd" clip-rule="evenodd" d="M174.387 111.669C169.193 106.996 165.17 105.698 161.037 107.086C154.436 109.304 151.019 116.778 152.533 122.426C157.117 136.389 173.139 145.216 182.878 150.58C183.58 150.967 184.25 151.336 184.88 151.688C185.598 152.088 186.265 152.466 186.871 152.822C187.218 152.211 187.607 151.55 188.029 150.845C188.41 150.206 188.819 149.531 189.249 148.823C195.018 139.298 204.487 123.664 201.482 109.31C199.968 103.662 193.273 98.8972 186.447 100.278C182.173 101.142 179.194 104.317 177.003 110.971C176.746 111.75 176.5 112.577 176.265 113.453C175.621 112.811 174.996 112.217 174.387 111.669ZM199.253 109.845C198.008 105.344 192.472 101.397 186.902 102.523C183.447 103.222 180.66 105.935 178.477 114.049L177.448 117.872L174.646 115.075C171.671 112.106 169.268 110.366 167.207 109.511C165.239 108.695 163.534 108.665 161.766 109.258C156.379 111.068 153.558 117.255 154.731 121.774C157.164 129.118 163.134 135.089 169.835 139.934C174.736 143.477 179.766 146.248 183.861 148.504C184.621 148.923 185.349 149.323 186.037 149.708C186.454 149.01 186.898 148.277 187.363 147.51C189.781 143.518 192.745 138.626 195.218 133.13C198.617 125.578 200.816 117.418 199.253 109.845Z" fill="url(#paint14_linear)"/>
<path d="M224.423 69.8409C221.857 82.0731 231.82 94.3748 235.375 100.697C241.616 96.9995 256.395 91.3275 260.288 79.4509C261.404 75.2889 258.913 69.7889 254.083 68.1645C250.705 67.028 247.606 67.1557 243.111 71.668C241.475 65.5131 238.934 63.8741 235.44 63.169C230.446 62.1611 225.538 65.6789 224.423 69.8409Z" fill="url(#paint15_radial)"/>
<path fill-rule="evenodd" clip-rule="evenodd" d="M242.89 70.8821C241.25 65.3708 238.781 63.8431 235.44 63.169C230.446 62.1611 225.538 65.6789 224.423 69.8409C222.301 79.954 228.744 90.1146 233.049 96.9043C233.786 98.0665 234.46 99.1298 235.018 100.077C235.143 100.29 235.263 100.496 235.375 100.697C235.573 100.58 235.78 100.46 235.995 100.339C236.952 99.7974 238.067 99.2136 239.286 98.5756C246.41 94.8481 257.069 89.27 260.288 79.4509C261.404 75.2889 258.913 69.7889 254.083 68.1645C250.853 67.078 247.879 67.1469 243.696 71.0983C243.504 71.2799 243.309 71.4697 243.111 71.668C243.039 71.3974 242.966 71.1355 242.89 70.8821ZM259.605 79.2476C260.613 75.4401 258.307 70.3426 253.855 68.8452C252.238 68.3012 250.767 68.086 249.19 68.493C247.6 68.9033 245.81 69.9699 243.614 72.175L242.741 73.0518L242.423 71.8559C241.622 68.8443 240.623 67.0308 239.471 65.8867C238.329 64.7534 236.97 64.2101 235.297 63.8726C230.693 62.9435 226.147 66.205 225.117 70.0064C223.89 75.8844 225.659 81.834 228.245 87.1686C229.535 89.8318 231.018 92.3193 232.407 94.5453C232.827 95.2177 233.24 95.8697 233.638 96.4965C234.381 97.6693 235.069 98.754 235.637 99.7193C236.612 99.1674 237.75 98.5719 238.98 97.9281C239.638 97.584 240.322 97.226 241.022 96.8535C243.338 95.6204 245.866 94.2076 248.315 92.5465C253.221 89.2192 257.728 84.9513 259.605 79.2476Z" fill="#F41E0E"/>
<path d="M224.617 68.6568C222.057 80.8825 231.735 94.3555 235.323 100.683C241.594 96.9972 256.765 90.1826 260.661 78.3147C261.775 74.1553 259.26 68.6518 254.399 67.0191C250.998 65.8769 247.567 67.1687 243.054 71.6722C241.397 65.5155 239.204 62.7166 235.688 62.0054C230.662 60.9889 225.731 64.4974 224.617 68.6568Z" fill="url(#paint16_linear)"/>
<path fill-rule="evenodd" clip-rule="evenodd" d="M242.514 69.8428C240.922 64.9508 238.835 62.6419 235.688 62.0054C230.662 60.9889 225.731 64.4974 224.617 68.6568C222.399 79.2486 229.367 90.7766 233.602 97.7832C233.908 98.2886 234.199 98.7705 234.472 99.2267C234.782 99.7463 235.068 100.233 235.323 100.683C235.769 100.421 236.261 100.143 236.789 99.8482C237.268 99.5818 237.777 99.3019 238.312 99.0079C245.498 95.058 257.293 88.5747 260.661 78.3147C261.775 74.1553 259.26 68.6518 254.399 67.0191C251.355 65.9966 248.286 66.9246 244.439 70.3612C243.988 70.7635 243.527 71.2002 243.054 71.6722C242.88 71.0259 242.7 70.4166 242.514 69.8428ZM259.043 77.8348C259.906 74.5068 257.829 69.9509 253.862 68.6184C251.401 67.792 248.625 68.4962 244.246 72.8665L242.182 74.9256L241.425 72.1106C240.621 69.1216 239.729 67.1273 238.729 65.8234C237.775 64.5784 236.699 63.9313 235.353 63.659C231.251 62.8294 227.174 65.7364 226.258 69.0502C225.106 74.6289 226.715 80.6352 229.204 86.1919C231.025 90.256 233.213 93.8749 234.993 96.8211C235.324 97.3678 235.64 97.8914 235.938 98.3904C236.461 98.0987 237.014 97.7945 237.593 97.4766C240.604 95.8213 244.296 93.7924 247.897 91.1982C252.845 87.6336 257.251 83.2399 259.043 77.8348Z" fill="url(#paint17_linear)"/>
<path d="M223.061 170.408C218.945 190.025 234.923 209.753 240.624 219.892C250.632 213.962 274.333 204.866 280.577 185.82C282.365 179.145 278.371 170.325 270.626 167.72C265.208 165.898 260.238 166.102 253.031 173.339C250.407 163.468 246.332 160.84 240.728 159.709C232.719 158.093 224.849 163.734 223.061 170.408Z" fill="url(#paint18_radial)"/>
<path fill-rule="evenodd" clip-rule="evenodd" d="M252.676 172.078C250.046 163.24 246.085 160.79 240.728 159.709C232.719 158.093 224.849 163.734 223.061 170.408C219.658 186.627 229.99 202.921 236.894 213.81C238.076 215.673 239.157 217.379 240.052 218.898C240.252 219.239 240.444 219.57 240.624 219.892C240.942 219.704 241.273 219.512 241.617 219.318C243.152 218.449 244.941 217.513 246.896 216.49C258.32 210.512 275.415 201.567 280.577 185.82C282.365 179.145 278.371 170.325 270.626 167.72C265.446 165.978 260.676 166.088 253.968 172.425C253.66 172.716 253.347 173.021 253.031 173.339C252.915 172.905 252.797 172.485 252.676 172.078ZM279.481 185.494C281.098 179.388 277.4 171.213 270.26 168.812C267.667 167.939 265.308 167.594 262.779 168.247C260.23 168.905 257.359 170.615 253.836 174.152L252.436 175.558L251.926 173.64C250.642 168.81 249.041 165.902 247.192 164.067C245.362 162.25 243.181 161.378 240.499 160.837C233.116 159.347 225.825 164.578 224.172 170.674C222.206 180.1 225.043 189.642 229.189 198.197C231.259 202.468 233.637 206.457 235.865 210.027C236.538 211.105 237.2 212.15 237.838 213.156C239.03 215.036 240.133 216.776 241.045 218.324C242.608 217.439 244.433 216.484 246.406 215.451C247.46 214.9 248.557 214.326 249.679 213.728C253.394 211.751 257.448 209.485 261.376 206.821C269.244 201.485 276.471 194.641 279.481 185.494Z" fill="#F41E0E"/>
<path d="M223.371 168.51C219.265 188.116 234.787 209.722 240.541 219.87C250.598 213.959 274.927 203.03 281.174 183.998C282.962 177.328 278.927 168.502 271.132 165.883C265.678 164.052 260.176 166.123 252.939 173.345C250.282 163.472 246.764 158.983 241.125 157.843C233.065 156.213 225.158 161.839 223.371 168.51Z" fill="url(#paint19_linear)"/>
<path fill-rule="evenodd" clip-rule="evenodd" d="M252.072 170.412C249.52 162.566 246.172 158.864 241.125 157.843C233.065 156.213 225.158 161.839 223.371 168.51C219.814 185.496 230.989 203.983 237.781 215.219C238.271 216.03 238.738 216.802 239.175 217.534C239.673 218.367 240.131 219.148 240.541 219.87C241.256 219.449 242.044 219.003 242.892 218.531C243.659 218.104 244.476 217.655 245.334 217.183C256.858 210.849 275.773 200.452 281.174 183.998C282.962 177.328 278.927 168.502 271.132 165.883C266.25 164.244 261.329 165.732 255.159 171.243C254.437 171.888 253.697 172.589 252.939 173.345C252.66 172.309 252.371 171.332 252.072 170.412ZM278.579 183.228C279.964 177.891 276.633 170.585 270.271 168.448C266.325 167.123 261.873 168.252 254.85 175.261L251.541 178.563L250.326 174.048C249.036 169.255 247.607 166.057 246.003 163.966C244.472 161.969 242.747 160.931 240.589 160.495C234.011 159.164 227.473 163.826 226.003 169.141C224.156 178.087 226.735 187.719 230.728 196.63C233.648 203.148 237.156 208.951 240.012 213.676C240.542 214.553 241.049 215.393 241.527 216.193C242.365 215.725 243.252 215.237 244.18 214.728C249.01 212.073 254.93 208.819 260.704 204.659C268.639 198.942 275.707 191.896 278.579 183.228Z" fill="url(#paint20_linear)"/>
<defs>
<radialGradient id="paint0_radial" cx="0" cy="0" r="1" gradientUnits="userSpaceOnUse" gradientTransform="translate(137.077 30.9718) rotate(85.8603) scale(52.6115 53.821)">
<stop stop-color="#FF281C"/>
<stop offset="0.356209" stop-color="#FD4133"/>
<stop offset="1" stop-color="#C00F03"/>
</radialGradient>
<linearGradient id="paint1_linear" x1="135.115" y1="5.47824" x2="140.758" y2="83.433" gradientUnits="userSpaceOnUse">
<stop offset="0.0185185" stop-color="#FFE0DB"/>
<stop offset="0.481395" stop-color="#FF4237" stop-opacity="0.141509"/>
<stop offset="1" stop-color="#CB1002"/>
</linearGradient>
<linearGradient id="paint2_linear" x1="135.115" y1="5.47824" x2="140.758" y2="83.433" gradientUnits="userSpaceOnUse">
<stop stop-color="white"/>
<stop offset="0.319444" stop-color="white" stop-opacity="0"/>
</linearGradient>
<radialGradient id="paint3_radial" cx="0" cy="0" r="1" gradientUnits="userSpaceOnUse" gradientTransform="translate(109.755 168.299) rotate(105) scale(33.1585 33.9208)">
<stop stop-color="#FF281C"/>
<stop offset="0.356209" stop-color="#FD4133"/>
<stop offset="1" stop-color="#C00F03"/>
</radialGradient>
<linearGradient id="paint4_linear" x1="113.855" y1="152.714" x2="101.105" y2="200.295" gradientUnits="userSpaceOnUse">
<stop offset="0.0185185" stop-color="#FFE0DB"/>
<stop offset="0.481395" stop-color="#FF4237" stop-opacity="0.141509"/>
<stop offset="1" stop-color="#CB1002"/>
</linearGradient>
<linearGradient id="paint5_linear" x1="113.855" y1="152.714" x2="101.105" y2="200.295" gradientUnits="userSpaceOnUse">
<stop stop-color="white"/>
<stop offset="0.319444" stop-color="white" stop-opacity="0"/>
</linearGradient>
<radialGradient id="paint6_radial" cx="0" cy="0" r="1" gradientUnits="userSpaceOnUse" gradientTransform="translate(36.0527 29.1898) rotate(75) scale(21.753 22.2531)">
<stop stop-color="#FF281C"/>
<stop offset="0.356209" stop-color="#FD4133"/>
<stop offset="1" stop-color="#C00F03"/>
</radialGradient>
<linearGradient id="paint7_linear" x1="33.2703" y1="18.9907" x2="41.6343" y2="50.2055" gradientUnits="userSpaceOnUse">
<stop offset="0.0185185" stop-color="#FFE0DB"/>
<stop offset="0.481395" stop-color="#FF4237" stop-opacity="0.141509"/>
<stop offset="1" stop-color="#CB1002"/>
</linearGradient>
<linearGradient id="paint8_linear" x1="33.2703" y1="18.9907" x2="41.6343" y2="50.2055" gradientUnits="userSpaceOnUse">
<stop stop-color="white"/>
<stop offset="0.319444" stop-color="white" stop-opacity="0"/>
</linearGradient>
<radialGradient id="paint9_radial" cx="0" cy="0" r="1" gradientUnits="userSpaceOnUse" gradientTransform="translate(43.4577 242.383) rotate(75) scale(49.5167 50.6551)">
<stop stop-color="#FF281C"/>
<stop offset="0.356209" stop-color="#FD4133"/>
<stop offset="1" stop-color="#C00F03"/>
</radialGradient>
<linearGradient id="paint10_linear" x1="37.1236" y1="219.166" x2="56.1627" y2="290.221" gradientUnits="userSpaceOnUse">
<stop offset="0.0185185" stop-color="#FFE0DB"/>
<stop offset="0.481395" stop-color="#FF4237" stop-opacity="0.141509"/>
<stop offset="1" stop-color="#CB1002"/>
</linearGradient>
<linearGradient id="paint11_linear" x1="37.1236" y1="219.166" x2="56.1627" y2="290.221" gradientUnits="userSpaceOnUse">
<stop stop-color="white"/>
<stop offset="0.319444" stop-color="white" stop-opacity="0"/>
</linearGradient>
<radialGradient id="paint12_radial" cx="0" cy="0" r="1" gradientUnits="userSpaceOnUse" gradientTransform="translate(178.364 120.787) rotate(75) scale(33.1585 33.9208)">
<stop stop-color="#FF281C"/>
<stop offset="0.356209" stop-color="#FD4133"/>
<stop offset="1" stop-color="#C00F03"/>
</radialGradient>
<linearGradient id="paint13_linear" x1="174.122" y1="105.241" x2="186.871" y2="152.822" gradientUnits="userSpaceOnUse">
<stop offset="0.0185185" stop-color="#FFE0DB"/>
<stop offset="0.481395" stop-color="#FF4237" stop-opacity="0.141509"/>
<stop offset="1" stop-color="#CB1002"/>
</linearGradient>
<linearGradient id="paint14_linear" x1="174.122" y1="105.241" x2="186.871" y2="152.822" gradientUnits="userSpaceOnUse">
<stop stop-color="white"/>
<stop offset="0.319444" stop-color="white" stop-opacity="0"/>
</linearGradient>
<radialGradient id="paint15_radial" cx="0" cy="0" r="1" gradientUnits="userSpaceOnUse" gradientTransform="translate(241.692 77.1219) rotate(105) scale(24.4167 24.978)">
<stop stop-color="#FF281C"/>
<stop offset="0.356209" stop-color="#FD4133"/>
<stop offset="1" stop-color="#C00F03"/>
</radialGradient>
<linearGradient id="paint16_linear" x1="244.711" y1="65.646" x2="235.323" y2="100.683" gradientUnits="userSpaceOnUse">
<stop offset="0.0185185" stop-color="#FFE0DB"/>
<stop offset="0.481395" stop-color="#FF4237" stop-opacity="0.141509"/>
<stop offset="1" stop-color="#CB1002"/>
</linearGradient>
<linearGradient id="paint17_linear" x1="244.711" y1="65.646" x2="235.323" y2="100.683" gradientUnits="userSpaceOnUse">
<stop stop-color="white"/>
<stop offset="0.319444" stop-color="white" stop-opacity="0"/>
</linearGradient>
<radialGradient id="paint18_radial" cx="0" cy="0" r="1" gradientUnits="userSpaceOnUse" gradientTransform="translate(250.755 182.085) rotate(105) scale(39.1567 40.0568)">
<stop stop-color="#FF281C"/>
<stop offset="0.356209" stop-color="#FD4133"/>
<stop offset="1" stop-color="#C00F03"/>
</radialGradient>
<linearGradient id="paint19_linear" x1="255.596" y1="163.681" x2="240.541" y2="219.87" gradientUnits="userSpaceOnUse">
<stop offset="0.0185185" stop-color="#FFE0DB"/>
<stop offset="0.481395" stop-color="#FF4237" stop-opacity="0.141509"/>
<stop offset="1" stop-color="#CB1002"/>
</linearGradient>
<linearGradient id="paint20_linear" x1="255.596" y1="163.681" x2="240.541" y2="219.87" gradientUnits="userSpaceOnUse">
<stop stop-color="white"/>
<stop offset="0.319444" stop-color="white" stop-opacity="0"/>
</linearGradient>
</defs>
</svg>
