<svg width="12" height="12" viewBox="0 0 12 12" fill="none" xmlns="http://www.w3.org/2000/svg">
<g clip-path="url(#clip0)">
<path d="M10.3318 2.68582V9.10929C10.3318 9.56996 10.7053 9.9434 11.1659 9.9434C11.6266 9.9434 12.0001 9.56996 12.0001 9.10929V0.972884C12.0001 0.435575 11.5645 -5.64632e-09 11.0272 0L3.17552 8.25091e-08C2.70437 8.74602e-08 2.32242 0.381946 2.32242 0.8531C2.32242 1.32425 2.70437 1.7062 3.17552 1.7062H8.83994L0.598706 10.135C0.265926 10.4754 0.265926 11.0192 0.598706 11.3595C0.942247 11.7109 1.50758 11.7109 1.85112 11.3595L10.3318 2.68582Z" fill="#0082FF"/>
</g>
<defs>
<clipPath id="clip0">
<rect width="12" height="12" fill="white"/>
</clipPath>
</defs>
</svg>
