<svg width="12" height="13" viewBox="0 0 12 13" fill="none" xmlns="http://www.w3.org/2000/svg">
<g clip-path="url(#clip0)">
<path d="M2.21292 12.5C2.01143 12.4996 1.81351 12.4471 1.63862 12.3477C1.24482 12.126 1 11.6955 1 11.2283V1.77179C1 1.30321 1.24482 0.874077 1.63862 0.652339C1.81767 0.550091 2.02108 0.497509 2.22757 0.500091C2.43407 0.502672 2.63608 0.560321 2.81249 0.667013L10.9462 5.50482C11.1157 5.61043 11.2555 5.7571 11.3523 5.93105C11.4492 6.10501 11.5 6.30057 11.5 6.49938C11.5 6.69819 11.4492 6.89374 11.3523 7.0677C11.2555 7.24166 11.1157 7.38832 10.9462 7.49394L2.81117 12.333C2.63065 12.4415 2.42387 12.4992 2.21292 12.5Z" fill="white"/>
</g>
<defs>
<clipPath id="clip0">
<rect width="12" height="12" fill="white" transform="translate(0 0.5)"/>
</clipPath>
</defs>
</svg>
