<svg width="64" height="64" viewBox="0 0 64 64" fill="none" xmlns="http://www.w3.org/2000/svg">
<path d="M31.0508 52.7227C25.2064 46.9259 18.4588 44.1994 14.373 43.3232C13.0116 43.0313 11.9248 41.8786 11.9248 40.4862V30.8726H53.3974V40.337C53.3974 41.7889 52.2101 42.96 50.7932 43.2772C45.2474 44.5188 38.4934 49.2201 34.4685 52.7227C33.3292 53.7141 32.1231 53.7862 31.0508 52.7227Z" fill="url(#paint0_linear)"/>
<path fill-rule="evenodd" clip-rule="evenodd" d="M11.3987 30.3467H53.9229V40.3369C53.9229 42.0948 52.5012 43.4335 50.9078 43.7902C48.2164 44.3928 45.1985 45.8451 42.3351 47.6003C39.4778 49.3517 36.8064 51.3849 34.8134 53.1192C34.183 53.6678 33.482 54.0074 32.7425 54.0189C31.9929 54.0306 31.2933 53.7039 30.6803 53.0959C24.9167 47.3792 18.2637 44.6953 14.2625 43.8373C12.6997 43.5021 11.3987 42.1661 11.3987 40.4862V30.3467ZM12.4503 31.3983V40.4862C12.4503 41.591 13.323 42.5603 14.483 42.809C18.6534 43.7034 25.4957 46.4724 31.4208 52.3493C31.8801 52.8048 32.3198 52.9738 32.7261 52.9675C33.1426 52.961 33.6142 52.7688 34.1231 52.3259C36.155 50.5578 38.8731 48.489 41.7855 46.7037C44.6917 44.9222 47.8237 43.4031 50.6781 42.764C51.9184 42.4863 52.8713 41.4829 52.8713 40.3369V31.3983H12.4503Z" fill="url(#paint1_linear)"/>
<path d="M31.3301 8.35216C32.2387 7.88261 33.3184 7.88261 34.227 8.35216L62.7039 23.0693C63.8211 23.6467 63.8465 25.2354 62.7482 25.8481L34.3157 41.7118C33.3603 42.2448 32.1968 42.2448 31.2414 41.7118L2.80884 25.8481C1.71059 25.2354 1.73595 23.6467 2.85319 23.0693L31.3301 8.35216Z" fill="url(#paint2_linear)"/>
<path fill-rule="evenodd" clip-rule="evenodd" d="M62.2814 23.8867L33.8045 9.1696C33.161 8.837 32.3961 8.837 31.7526 9.1696L3.27565 23.8867C2.81013 24.1273 2.79957 24.7893 3.25717 25.0446L31.6898 40.9082C32.3665 41.2858 33.1906 41.2858 33.8673 40.9082L62.2999 25.0446C62.7575 24.7893 62.7469 24.1273 62.2814 23.8867ZM34.227 8.35216C33.3184 7.88261 32.2387 7.88261 31.3301 8.35216L2.85319 23.0693C1.73595 23.6467 1.71059 25.2354 2.80884 25.8481L31.2414 41.7118C32.1968 42.2448 33.3603 42.2448 34.3157 41.7118L62.7482 25.8481C63.8465 25.2354 63.8211 23.6467 62.7039 23.0693L34.227 8.35216Z" fill="url(#paint3_linear)"/>
<path d="M33.68 26.0475C38.2391 24.6662 37.5489 23.4319 36.3666 22.9124C36.3666 22.9124 30.2542 18.6403 28.4139 22.9124C26.5735 27.1845 18.3581 30.7993 16.4521 32.2453C13.4041 34.5576 13.9223 51.162 14.095 54.9252C14.1237 55.551 15.1106 55.3222 15.737 55.3222C16.1216 55.3222 16.6106 55.592 16.9308 55.8003C17.1544 55.9457 17.4196 56.0582 17.6704 55.9675C18.1159 55.8063 18.4359 55.3855 18.4417 54.8843C18.4968 50.1135 14.7905 37.525 18.1609 33.5598C19.0989 32.4564 24.0351 29.8709 27.7991 27.9805C29.6893 27.0312 31.6714 26.6561 33.68 26.0475Z" fill="url(#paint4_linear)"/>
<path d="M34.4684 24.8258C33.3884 24.954 30.9318 23.3195 30.262 23.4456C29.2273 23.6405 28.072 25.4705 27.933 25.729C27.7593 26.0522 35.8184 24.6656 34.4684 24.8258Z" fill="#80858C"/>
<path d="M37.2289 22.3283C37.2289 23.8529 35.169 25.0888 32.6281 25.0888C30.0872 25.0888 28.0273 23.8529 28.0273 22.3283C28.0273 20.8038 30.0872 19.5679 32.6281 19.5679C35.169 19.5679 37.2289 20.8038 37.2289 22.3283Z" fill="url(#paint5_linear)"/>
<defs>
<linearGradient id="paint0_linear" x1="32.6611" y1="30.8726" x2="32.6611" y2="53.4179" gradientUnits="userSpaceOnUse">
<stop offset="0.320677" stop-color="#4F5152"/>
<stop offset="0.577218" stop-color="#585A5B"/>
<stop offset="1" stop-color="#4F4F4F"/>
</linearGradient>
<linearGradient id="paint1_linear" x1="32.6608" y1="22.854" x2="32.6608" y2="53.4934" gradientUnits="userSpaceOnUse">
<stop offset="0.191763" stop-color="#686C72" stop-opacity="0"/>
<stop offset="1" stop-color="#393A3C"/>
</linearGradient>
<linearGradient id="paint2_linear" x1="32.7785" y1="8" x2="32.7785" y2="42.1116" gradientUnits="userSpaceOnUse">
<stop stop-color="#AEAEAE"/>
<stop offset="0.516374" stop-color="#727273"/>
<stop offset="1" stop-color="#434343"/>
</linearGradient>
<linearGradient id="paint3_linear" x1="32.7785" y1="8" x2="32.7785" y2="42.1116" gradientUnits="userSpaceOnUse">
<stop offset="0.431597" stop-color="#686D72" stop-opacity="0"/>
<stop offset="1" stop-color="#303132"/>
</linearGradient>
<linearGradient id="paint4_linear" x1="25.6036" y1="21.0137" x2="25.6036" y2="56.0379" gradientUnits="userSpaceOnUse">
<stop stop-color="#FBC52C"/>
<stop offset="1" stop-color="#FFE08A"/>
</linearGradient>
<linearGradient id="paint5_linear" x1="32.6281" y1="19.5679" x2="32.6281" y2="25.0888" gradientUnits="userSpaceOnUse">
<stop stop-color="#A5A6A8"/>
<stop offset="1" stop-color="#686C72"/>
</linearGradient>
</defs>
</svg>
