<svg width="272" height="316" viewBox="0 0 272 316" fill="none" xmlns="http://www.w3.org/2000/svg">
<g clip-path="url(#clip0)">
<g filter="url(#filter0_d)">
<path d="M204.511 7.15677C202.997 5.46401 200.921 4.05263 198.67 4.3532C196.419 4.65378 194.787 6.56029 193.77 8.59096C192.304 11.5195 189.46 13.6942 185.969 14.1604C182.479 14.6265 179.164 13.274 176.981 10.8328C175.467 9.14005 173.391 7.72867 171.14 8.02924C168.89 8.32981 167.257 10.2363 166.24 12.267C164.774 15.1955 161.931 17.3703 158.44 17.8364C154.949 18.3025 151.634 16.9501 149.451 14.5089C147.937 12.8161 145.862 11.4047 143.611 11.7053C141.36 12.0059 139.727 13.9124 138.711 15.943C137.244 18.8715 134.401 21.0463 130.91 21.5124C127.419 21.9786 124.105 20.6261 121.921 18.1849C120.407 16.4921 118.332 15.0807 116.081 15.3813C113.83 15.6819 112.197 17.5884 111.181 19.6191C109.715 22.5476 106.871 24.7223 103.38 25.1885C99.8892 25.6546 96.5747 24.3021 94.3915 21.8609C92.8777 20.1682 90.8021 18.7568 88.5511 19.0574C86.3001 19.3579 84.6676 21.2645 83.6509 23.2951C82.1847 26.2236 79.3412 28.3984 75.8503 28.8645C72.3594 29.3307 69.0449 27.9782 66.8617 25.537C65.3479 23.8442 63.2723 22.4328 61.0213 22.7334C58.7704 23.034 57.1378 24.9405 56.1211 26.9712C54.655 29.8997 51.8115 32.0744 48.3206 32.5406C44.8296 33.0067 41.5152 31.6542 39.332 29.213C37.8181 27.5202 35.7425 26.1089 33.4915 26.4094C31.2406 26.71 29.608 28.6165 28.5914 30.6472C27.1252 33.5757 24.2817 35.7505 20.7908 36.2166C17.8203 36.6132 14.9775 35.6931 12.8508 33.9058C10.459 31.8957 7.60968 29.8654 4.51282 30.2789C2.11215 30.5995 0.425883 32.8055 0.746444 35.2062C0.906724 36.4065 2.0179 37.224 3.22496 37.3215C7.9221 37.7009 11.8844 41.3066 12.5335 46.1678C13.1149 50.5217 10.8674 54.6012 7.20694 56.5537C5.42613 57.5036 3.96187 59.2865 4.22901 61.287C4.49614 63.2876 6.37688 64.6238 8.34454 65.0732C12.389 65.9969 15.6282 69.3437 16.2096 73.6976C16.791 78.0515 14.5434 82.131 10.883 84.0835C9.10216 85.0334 7.63791 86.8163 7.90504 88.8168C8.17218 90.8174 10.0529 92.1536 12.0206 92.603C16.0651 93.5267 19.3042 96.8735 19.8856 101.227C20.467 105.581 18.2194 109.661 14.559 111.613C12.7782 112.563 11.3139 114.346 11.5811 116.347C11.8482 118.347 13.729 119.683 15.6966 120.133C19.7411 121.056 22.9803 124.403 23.5617 128.757C24.143 133.111 21.8955 137.191 18.235 139.143C16.4542 140.093 14.99 141.876 15.2571 143.876C15.5243 145.877 17.405 147.213 19.3727 147.663C23.4171 148.586 26.6563 151.933 27.2377 156.287C27.8191 160.641 25.5715 164.72 21.9111 166.673C20.1303 167.623 18.666 169.406 18.9332 171.406C19.2003 173.407 21.081 174.743 23.0487 175.192C27.0932 176.116 30.3324 179.463 30.9137 183.817C31.4951 188.171 29.2475 192.25 25.5871 194.203C23.8063 195.153 22.3421 196.935 22.6092 198.936C22.8763 200.937 24.7571 202.273 26.7247 202.722C30.7692 203.646 34.0084 206.993 34.5898 211.347C35.1711 215.7 32.9236 219.78 29.2632 221.732C27.4824 222.682 26.0181 224.465 26.2852 226.466C26.5524 228.466 28.4331 229.803 30.4008 230.252C34.4453 231.176 37.6844 234.522 38.2658 238.876C38.8472 243.23 36.5996 247.31 32.9392 249.262C31.1584 250.212 29.6941 251.995 29.9613 253.996C30.2284 255.996 32.1092 257.332 34.0768 257.782C38.1213 258.705 41.3605 262.052 41.9418 266.406C42.5232 270.76 40.2757 274.839 36.6152 276.792C34.8344 277.742 33.3702 279.525 33.6373 281.525C33.9044 283.526 35.7852 284.862 37.7528 285.311C41.7973 286.235 45.0365 289.582 45.6179 293.936C46.2333 298.544 43.6791 302.846 39.6347 304.642C38.1591 305.298 37.0029 306.73 37.2166 308.331C37.5372 310.731 39.7432 312.418 42.1438 312.097C44.9446 311.723 46.7887 309.027 47.8055 306.391C49.1076 303.015 52.1639 300.436 56.0033 299.923C60.3572 299.342 64.4367 301.589 66.3892 305.25C67.3391 307.03 69.122 308.495 71.1226 308.228C73.1231 307.96 74.4593 306.08 74.9087 304.112C75.8324 300.068 79.1792 296.828 83.5331 296.247C87.887 295.666 91.9665 297.913 93.919 301.574C94.8689 303.354 96.6518 304.819 98.6524 304.551C100.653 304.284 101.989 302.404 102.439 300.436C103.362 296.391 106.709 293.152 111.063 292.571C115.417 291.99 119.496 294.237 121.449 297.897C122.399 299.678 124.182 301.143 126.182 300.875C128.183 300.608 129.519 298.728 129.968 296.76C130.892 292.715 134.239 289.476 138.593 288.895C142.947 288.313 147.026 290.561 148.979 294.221C149.929 296.002 151.711 297.467 153.712 297.199C155.712 296.932 157.049 295.052 157.498 293.084C158.422 289.039 161.769 285.8 166.122 285.219C170.476 284.637 174.556 286.885 176.508 290.545C177.458 292.326 179.241 293.79 181.242 293.523C183.242 293.256 184.578 291.375 185.028 289.408C185.952 285.363 189.298 282.124 193.652 281.543C198.006 280.961 202.086 283.209 204.038 286.869C204.988 288.65 206.771 290.114 208.771 289.847C210.772 289.58 212.108 287.699 212.558 285.732C213.481 281.687 216.828 278.448 221.182 277.867C225.536 277.285 229.615 279.533 231.568 283.193C232.518 284.974 234.301 286.438 236.301 286.171C238.302 285.904 239.638 284.023 240.087 282.056C241.011 278.011 244.358 274.772 248.712 274.191C252.809 273.644 256.663 275.602 258.731 278.885C260.021 280.935 262.155 282.719 264.556 282.399C266.956 282.078 268.642 279.872 268.322 277.471C268.108 275.871 266.617 274.792 265.021 274.547C260.647 273.874 257.053 270.394 256.438 265.785C255.857 261.431 258.104 257.352 261.765 255.399C263.546 254.449 265.01 252.667 264.743 250.666C264.475 248.665 262.595 247.329 260.627 246.88C256.583 245.956 253.343 242.609 252.762 238.255C252.181 233.901 254.428 229.822 258.089 227.87C259.869 226.92 261.334 225.137 261.067 223.136C260.799 221.136 258.919 219.799 256.951 219.35C252.907 218.426 249.667 215.08 249.086 210.726C248.505 206.372 250.752 202.292 254.413 200.34C256.193 199.39 257.658 197.607 257.391 195.606C257.123 193.606 255.243 192.27 253.275 191.82C249.231 190.897 245.991 187.55 245.41 183.196C244.829 178.842 247.076 174.762 250.737 172.81C252.517 171.86 253.982 170.077 253.715 168.077C253.447 166.076 251.567 164.74 249.599 164.29C245.554 163.367 242.315 160.02 241.734 155.666C241.153 151.312 243.4 147.233 247.061 145.28C248.841 144.33 250.306 142.547 250.038 140.547C249.771 138.546 247.891 137.21 245.923 136.761C241.878 135.837 238.639 132.49 238.058 128.136C237.477 123.782 239.724 119.703 243.385 117.75C245.165 116.8 246.63 115.018 246.362 113.017C246.095 111.016 244.215 109.68 242.247 109.231C238.202 108.307 234.963 104.96 234.382 100.606C233.8 96.2526 236.048 92.1731 239.708 90.2206C241.489 89.2707 242.954 87.4878 242.686 85.4872C242.419 83.4867 240.539 82.1505 238.571 81.7011C234.526 80.7774 231.287 77.4306 230.706 73.0767C230.124 68.7228 232.372 64.6433 236.032 62.6908C237.813 61.7409 239.277 59.958 239.01 57.9574C238.743 55.9569 236.862 54.6207 234.895 54.1713C230.85 53.2476 227.611 49.9008 227.03 45.5469C226.448 41.193 228.696 37.1135 232.356 35.161C234.137 34.2111 235.601 32.4282 235.334 30.4277C235.067 28.4271 233.186 27.0909 231.219 26.6415C227.174 25.7178 223.935 22.371 223.354 18.0171C222.705 13.1559 225.582 8.63686 230.015 7.03829C231.154 6.62749 232.012 5.54715 231.852 4.34681C231.531 1.94613 229.325 0.259866 226.925 0.580429C224.251 0.937475 222.326 3.23617 220.95 5.55636C219.407 8.15792 216.73 10.0529 213.499 10.4843C210.008 10.9505 206.694 9.59798 204.511 7.15677Z" fill="url(#paint0_linear)"/>
</g>
<g filter="url(#filter1_d)">
<path fill-rule="evenodd" clip-rule="evenodd" d="M194.424 8.91817C192.854 12.0539 189.807 14.3853 186.066 14.8848C182.325 15.3844 178.774 13.934 176.436 11.32C174.972 9.68288 173.12 8.50232 171.237 8.75371C169.355 9.0051 167.877 10.6302 166.894 12.5942C165.324 15.7299 162.277 18.0614 158.536 18.5609C154.796 19.0604 151.244 17.61 148.906 14.9961C147.442 13.3589 145.59 12.1784 143.707 12.4297C141.825 12.6811 140.347 14.3063 139.364 16.2702C137.794 19.406 134.748 21.7374 131.007 22.2369C127.266 22.7364 123.714 21.2861 121.376 18.6721C119.912 17.035 118.06 15.8544 116.178 16.1058C114.295 16.3572 112.818 17.9823 111.834 19.9463C110.264 23.082 107.218 25.4134 103.477 25.913C99.7359 26.4125 96.1844 24.9621 93.8467 22.3482C92.3826 20.711 90.5305 19.5304 88.6479 19.7818C86.7652 20.0332 85.2878 21.6584 84.3045 23.6223C82.7346 26.7581 79.688 29.0895 75.9471 29.589C72.2062 30.0885 68.6546 28.6381 66.3169 26.0242C64.8528 24.387 63.0007 23.2065 61.1181 23.4579C59.2354 23.7093 57.758 25.3344 56.7747 27.2984C55.2048 30.4341 52.1582 32.7655 48.4173 33.265C44.6764 33.7646 41.1248 32.3142 38.7871 29.7002C37.323 28.0631 35.4709 26.8825 33.5883 27.1339C31.7056 27.3853 30.2282 29.0104 29.2449 30.9744C27.675 34.1101 24.6284 36.4415 20.8875 36.9411C17.7048 37.3661 14.6581 36.3793 12.3806 34.4654C11.1949 33.4689 9.93698 32.5036 8.61638 31.8358C7.30058 31.1704 5.96542 30.8224 4.60956 31.0034C2.609 31.2705 1.20378 33.1089 1.47091 35.1095C1.57392 35.8809 2.32273 36.5153 3.28381 36.5929C8.31666 36.9995 12.5624 40.8618 13.258 46.0711C13.8811 50.7371 11.4717 55.1072 7.55093 57.1986C5.89785 58.0804 4.74444 59.6249 4.95347 61.1903C5.16251 62.7557 6.68075 63.9435 8.50727 64.3606C12.8395 65.35 16.311 68.9348 16.934 73.6009C17.5571 78.2669 15.1478 82.6369 11.227 84.7284C9.57389 85.6101 8.42048 87.1546 8.62951 88.7201C8.83854 90.2855 10.3568 91.4733 12.1833 91.8904C16.5155 92.8798 19.987 96.4646 20.6101 101.131C21.2331 105.797 18.8238 110.167 14.903 112.258C13.2499 113.14 12.0965 114.684 12.3055 116.25C12.5146 117.815 14.0328 119.003 15.8594 119.42C20.1915 120.41 23.6631 123.994 24.2861 128.66C24.9092 133.326 22.4999 137.697 18.579 139.788C16.926 140.67 15.7726 142.214 15.9816 143.78C16.1906 145.345 17.7089 146.533 19.5354 146.95C23.8676 147.939 27.3391 151.524 27.9622 156.19C28.5852 160.856 26.1759 165.226 22.2551 167.318C20.602 168.2 19.4486 169.744 19.6576 171.309C19.8667 172.875 21.3849 174.063 23.2114 174.48C27.5436 175.469 31.0151 179.054 31.6382 183.72C32.2612 188.386 29.8519 192.756 25.9311 194.848C24.278 195.729 23.1246 197.274 23.3337 198.839C23.5427 200.405 25.0609 201.592 26.8875 202.01C31.2197 202.999 34.6912 206.584 35.3142 211.25C35.9373 215.916 33.528 220.286 29.6072 222.377C27.9541 223.259 26.8007 224.804 27.0097 226.369C27.2187 227.934 28.737 229.122 30.5635 229.539C34.8957 230.529 38.3672 234.114 38.9903 238.78C39.6133 243.446 37.204 247.816 33.2832 249.907C31.6301 250.789 30.4767 252.333 30.6857 253.899C30.8948 255.464 32.413 256.652 34.2395 257.069C38.5717 258.059 42.0433 261.643 42.6663 266.309C43.2894 270.975 40.88 275.345 36.9592 277.437C35.3062 278.319 34.1527 279.863 34.3618 281.429C34.5708 282.994 36.0891 284.182 37.9156 284.599C42.2478 285.588 45.7193 289.173 46.3424 293.839C47.0018 298.778 44.2642 303.385 39.9314 305.31C38.6346 305.886 37.7852 307.067 37.9411 308.234C38.2082 310.234 40.0465 311.64 42.0471 311.373C43.2271 311.215 44.2403 310.566 45.0986 309.606C45.9602 308.641 46.6356 307.393 47.1236 306.128C48.5179 302.513 51.792 299.748 55.9066 299.199C60.5726 298.575 64.9427 300.985 67.0341 304.906C67.9159 306.559 69.4604 307.712 71.0258 307.503C72.5913 307.294 73.779 305.776 74.1962 303.949C75.1856 299.617 78.7704 296.146 83.4364 295.522C88.1024 294.899 92.4725 297.309 94.5639 301.23C95.4457 302.883 96.9902 304.036 98.5556 303.827C100.121 303.618 101.309 302.1 101.726 300.273C102.715 295.941 106.3 292.469 110.966 291.846C115.632 291.223 120.002 293.633 122.094 297.553C122.975 299.207 124.52 300.36 126.085 300.151C127.651 299.942 128.839 298.424 129.256 296.597C130.245 292.265 133.83 288.793 138.496 288.17C143.162 287.547 147.532 289.957 149.623 293.877C150.505 295.531 152.05 296.684 153.615 296.475C155.181 296.266 156.368 294.748 156.786 292.921C157.775 288.589 161.36 285.117 166.026 284.494C170.692 283.871 175.062 286.281 177.153 290.201C178.035 291.855 179.58 293.008 181.145 292.799C182.71 292.59 183.898 291.072 184.315 289.245C185.305 284.913 188.89 281.441 193.556 280.818C198.222 280.195 202.592 282.605 204.683 286.525C205.565 288.178 207.109 289.332 208.675 289.123C210.24 288.914 211.428 287.396 211.845 285.569C212.834 281.237 216.419 277.765 221.085 277.142C225.751 276.519 230.121 278.929 232.213 282.849C233.095 284.502 234.639 285.656 236.205 285.447C237.77 285.238 238.958 283.72 239.375 281.893C240.364 277.561 243.949 274.089 248.615 273.466C253.006 272.88 257.135 274.979 259.349 278.496C260.59 280.466 262.492 281.937 264.459 281.674C266.459 281.407 267.865 279.569 267.597 277.568C267.442 276.401 266.312 275.485 264.91 275.269C260.224 274.548 256.373 270.821 255.714 265.882C255.091 261.216 257.5 256.846 261.421 254.754C263.074 253.873 264.227 252.328 264.018 250.763C263.809 249.197 262.291 248.009 260.464 247.592C256.132 246.603 252.661 243.018 252.038 238.352C251.415 233.686 253.824 229.316 257.745 227.225C259.398 226.343 260.551 224.798 260.342 223.233C260.133 221.667 258.615 220.48 256.788 220.063C252.456 219.073 248.985 215.488 248.362 210.822C247.738 206.156 250.148 201.786 254.069 199.695C255.722 198.813 256.875 197.269 256.666 195.703C256.457 194.138 254.939 192.95 253.112 192.533C248.78 191.543 245.309 187.959 244.686 183.293C244.062 178.627 246.472 174.256 250.393 172.165C252.046 171.283 253.199 169.739 252.99 168.173C252.781 166.608 251.263 165.42 249.436 165.003C245.104 164.014 241.633 160.429 241.009 155.763C240.386 151.097 242.796 146.727 246.717 144.635C248.37 143.753 249.523 142.209 249.314 140.644C249.105 139.078 247.587 137.89 245.76 137.473C241.428 136.484 237.956 132.899 237.333 128.233C236.71 123.567 239.12 119.197 243.041 117.105C244.694 116.224 245.847 114.679 245.638 113.114C245.429 111.548 243.911 110.361 242.084 109.943C237.752 108.954 234.28 105.369 233.657 100.703C233.034 96.0372 235.444 91.6671 239.364 89.5757C241.018 88.6939 242.171 87.1494 241.962 85.584C241.753 84.0185 240.235 82.8308 238.408 82.4136C234.076 81.4242 230.604 77.8394 229.981 73.1734C229.358 68.5074 231.768 64.1373 235.688 62.0459C237.342 61.1641 238.495 59.6196 238.286 58.0542C238.077 56.4888 236.559 55.301 234.732 54.8839C230.4 53.8945 226.928 50.3096 226.305 45.6436C225.682 40.9776 228.092 36.6075 232.012 34.5161C233.665 33.6343 234.819 32.0898 234.61 30.5244C234.401 28.959 232.883 27.7712 231.056 27.3541C226.724 26.3647 223.252 22.7799 222.629 18.1138C221.934 12.9046 225.017 8.06355 229.767 6.35073C230.674 6.02364 231.23 5.21498 231.127 4.44355C230.86 2.44298 229.022 1.03776 227.021 1.3049C224.712 1.61326 222.943 3.62835 221.578 5.92924C219.926 8.71495 217.058 10.7465 213.596 11.2088C209.855 11.7083 206.304 10.2579 203.966 7.644C202.502 6.00684 200.65 4.82628 198.767 5.07767C196.884 5.32906 195.407 6.95421 194.424 8.91817ZM198.67 4.3532C200.921 4.05263 202.997 5.46401 204.511 7.15677C206.694 9.59799 210.008 10.9505 213.499 10.4843C216.73 10.0529 219.406 8.15793 220.95 5.55636C222.326 3.23617 224.251 0.937473 226.925 0.580429C229.325 0.259866 231.531 1.94613 231.852 4.34681C232.012 5.54715 231.154 6.62749 230.015 7.03829C225.582 8.63686 222.705 13.1559 223.354 18.0171C223.935 22.371 227.174 25.7178 231.219 26.6415C233.186 27.0909 235.067 28.4271 235.334 30.4277C235.601 32.4282 234.137 34.2111 232.356 35.161C228.696 37.1135 226.448 41.193 227.03 45.5469C227.611 49.9008 230.85 53.2476 234.895 54.1713C236.862 54.6207 238.743 55.9569 239.01 57.9574C239.277 59.958 237.813 61.7409 236.032 62.6908C232.372 64.6433 230.124 68.7228 230.706 73.0767C231.287 77.4306 234.526 80.7774 238.571 81.7011C240.539 82.1505 242.419 83.4867 242.686 85.4872C242.954 87.4878 241.489 89.2707 239.708 90.2206C236.048 92.1731 233.8 96.2526 234.382 100.606C234.963 104.96 238.202 108.307 242.247 109.231C244.215 109.68 246.095 111.016 246.362 113.017C246.63 115.018 245.165 116.8 243.385 117.75C239.724 119.703 237.477 123.782 238.058 128.136C238.639 132.49 241.878 135.837 245.923 136.761C247.891 137.21 249.771 138.546 250.038 140.547C250.306 142.547 248.841 144.33 247.061 145.28C243.4 147.233 241.153 151.312 241.734 155.666C242.315 160.02 245.555 163.367 249.599 164.29C251.567 164.74 253.447 166.076 253.715 168.077C253.982 170.077 252.517 171.86 250.737 172.81C247.076 174.762 244.829 178.842 245.41 183.196C245.991 187.55 249.231 190.897 253.275 191.82C255.243 192.27 257.123 193.606 257.391 195.606C257.658 197.607 256.193 199.39 254.413 200.34C250.752 202.292 248.505 206.372 249.086 210.726C249.667 215.08 252.907 218.426 256.951 219.35C258.919 219.799 260.799 221.136 261.067 223.136C261.334 225.137 259.869 226.92 258.089 227.87C254.428 229.822 252.181 233.901 252.762 238.255C253.343 242.609 256.583 245.956 260.627 246.88C262.595 247.329 264.475 248.665 264.743 250.666C265.01 252.667 263.545 254.449 261.765 255.399C258.104 257.352 255.857 261.431 256.438 265.785C257.053 270.394 260.647 273.874 265.021 274.547C266.617 274.792 268.108 275.871 268.322 277.471C268.642 279.872 266.956 282.078 264.556 282.399C262.155 282.719 260.021 280.935 258.731 278.885C256.663 275.602 252.809 273.644 248.712 274.191C244.358 274.772 241.011 278.011 240.087 282.056C239.638 284.023 238.302 285.904 236.301 286.171C234.301 286.438 232.518 284.974 231.568 283.193C229.615 279.533 225.536 277.285 221.182 277.867C216.828 278.448 213.481 281.687 212.558 285.732C212.108 287.699 210.772 289.58 208.771 289.847C206.771 290.114 204.988 288.65 204.038 286.869C202.086 283.209 198.006 280.961 193.652 281.543C189.298 282.124 185.952 285.363 185.028 289.408C184.578 291.375 183.242 293.256 181.242 293.523C179.241 293.79 177.458 292.326 176.508 290.545C174.556 286.885 170.476 284.637 166.122 285.219C161.769 285.8 158.422 289.039 157.498 293.084C157.049 295.052 155.712 296.932 153.712 297.199C151.711 297.467 149.929 296.002 148.979 294.221C147.026 290.561 142.947 288.313 138.593 288.895C134.239 289.476 130.892 292.715 129.968 296.76C129.519 298.728 128.183 300.608 126.182 300.875C124.182 301.143 122.399 299.678 121.449 297.897C119.496 294.237 115.417 291.99 111.063 292.571C106.709 293.152 103.362 296.391 102.439 300.436C101.989 302.404 100.653 304.284 98.6524 304.551C96.6518 304.819 94.8689 303.354 93.919 301.574C91.9665 297.913 87.887 295.666 83.5331 296.247C79.1792 296.828 75.8324 300.068 74.9087 304.112C74.4593 306.08 73.1231 307.96 71.1226 308.228C69.122 308.495 67.3391 307.03 66.3892 305.25C64.4367 301.589 60.3572 299.342 56.0033 299.923C52.1639 300.436 49.1076 303.015 47.8055 306.391C46.7887 309.027 44.9446 311.723 42.1438 312.097C39.7432 312.418 37.5372 310.731 37.2166 308.331C37.0029 306.73 38.1591 305.298 39.6347 304.642C43.6791 302.846 46.2333 298.544 45.6179 293.936C45.0365 289.582 41.7973 286.235 37.7528 285.311C35.7852 284.862 33.9044 283.526 33.6373 281.525C33.3702 279.525 34.8344 277.742 36.6152 276.792C40.2757 274.839 42.5232 270.76 41.9418 266.406C41.3605 262.052 38.1213 258.705 34.0768 257.782C32.1092 257.332 30.2284 255.996 29.9613 253.996C29.6941 251.995 31.1584 250.212 32.9392 249.262C36.5996 247.31 38.8472 243.23 38.2658 238.876C37.6844 234.522 34.4452 231.176 30.4008 230.252C28.4331 229.803 26.5524 228.466 26.2852 226.466C26.0181 224.465 27.4824 222.682 29.2632 221.732C32.9236 219.78 35.1711 215.7 34.5898 211.347C34.0084 206.993 30.7692 203.646 26.7247 202.722C24.7571 202.273 22.8763 200.937 22.6092 198.936C22.3421 196.935 23.8063 195.153 25.5871 194.203C29.2475 192.25 31.4951 188.171 30.9137 183.817C30.3324 179.463 27.0932 176.116 23.0487 175.192C21.081 174.743 19.2003 173.407 18.9332 171.406C18.666 169.406 20.1303 167.623 21.9111 166.673C25.5715 164.72 27.8191 160.641 27.2377 156.287C26.6563 151.933 23.4171 148.586 19.3727 147.663C17.405 147.213 15.5243 145.877 15.2571 143.876C14.99 141.876 16.4542 140.093 18.235 139.143C21.8955 137.191 24.143 133.111 23.5617 128.757C22.9803 124.403 19.7411 121.056 15.6966 120.133C13.729 119.683 11.8482 118.347 11.5811 116.347C11.3139 114.346 12.7782 112.563 14.559 111.613C18.2194 109.661 20.467 105.581 19.8856 101.227C19.3042 96.8735 16.0651 93.5267 12.0206 92.603C10.0529 92.1536 8.17218 90.8174 7.90504 88.8168C7.63791 86.8163 9.10216 85.0334 10.883 84.0835C14.5434 82.131 16.791 78.0515 16.2096 73.6976C15.6282 69.3437 12.389 65.9969 8.34454 65.0732C6.37688 64.6238 4.49614 63.2876 4.22901 61.287C3.96187 59.2865 5.42613 57.5036 7.20694 56.5537C10.8674 54.6012 13.1149 50.5217 12.5335 46.1678C11.8844 41.3066 7.9221 37.7009 3.22496 37.3215C2.0179 37.224 0.906724 36.4065 0.746444 35.2062C0.425883 32.8055 2.11215 30.5995 4.51282 30.2789C7.60968 29.8654 10.459 31.8957 12.8508 33.9058C14.9775 35.6931 17.8203 36.6132 20.7908 36.2166C24.2817 35.7505 27.1252 33.5757 28.5914 30.6472C29.608 28.6165 31.2406 26.71 33.4915 26.4094C35.7425 26.1089 37.8181 27.5202 39.332 29.213C41.5152 31.6542 44.8296 33.0067 48.3206 32.5406C51.8115 32.0744 54.655 29.8997 56.1211 26.9712C57.1378 24.9405 58.7704 23.034 61.0213 22.7334C63.2723 22.4328 65.3479 23.8442 66.8617 25.537C69.0449 27.9782 72.3594 29.3307 75.8503 28.8645C79.3412 28.3984 82.1847 26.2236 83.6509 23.2951C84.6676 21.2645 86.3001 19.3579 88.5511 19.0574C90.8021 18.7568 92.8777 20.1682 94.3915 21.8609C96.5747 24.3021 99.8892 25.6546 103.38 25.1885C106.871 24.7223 109.715 22.5476 111.181 19.6191C112.197 17.5884 113.83 15.6819 116.081 15.3813C118.332 15.0807 120.407 16.4921 121.921 18.1849C124.105 20.6261 127.419 21.9786 130.91 21.5124C134.401 21.0463 137.244 18.8715 138.711 15.943C139.727 13.9124 141.36 12.0059 143.611 11.7053C145.862 11.4047 147.937 12.8161 149.451 14.5089C151.634 16.9501 154.949 18.3025 158.44 17.8364C161.931 17.3703 164.774 15.1955 166.24 12.267C167.257 10.2363 168.89 8.32981 171.14 8.02924C173.391 7.72867 175.467 9.14005 176.981 10.8328C179.164 13.274 182.479 14.6265 185.969 14.1604C189.46 13.6942 192.304 11.5195 193.77 8.59096C194.787 6.56029 196.419 4.65377 198.67 4.3532Z" fill="#EBEBEB"/>
</g>
<g filter="url(#filter2_ii)">
<path d="M25.9139 52.4924C25.5934 50.0917 27.2796 47.8857 29.6803 47.5651L207.175 23.8644C209.576 23.5438 211.782 25.2301 212.102 27.6308L243.058 259.461C243.379 261.861 241.693 264.067 239.292 264.388L61.7973 288.089C59.3966 288.409 57.1906 286.723 56.87 284.322L25.9139 52.4924Z" fill="url(#paint1_linear)"/>
</g>
<g filter="url(#filter3_d)">
<path d="M217.427 223.179C193.651 226.291 176.838 248.166 179.949 271.943C183.061 295.719 204.936 312.532 228.713 309.421C236.295 308.429 243.49 305.458 249.523 300.827L242.907 292.201C238.387 295.67 232.99 297.897 227.302 298.641C209.468 300.975 193.063 288.366 190.729 270.532C188.396 252.699 201.005 236.293 218.838 233.96C236.672 231.626 253.077 244.235 255.411 262.068L256.025 266.763C256.487 270.29 254.555 273.145 251.431 273.554C248.46 273.943 245.725 271.84 245.336 268.869L242.514 247.309L235.063 248.284C230.838 245.467 225.667 244.031 220.249 244.74C208.361 246.295 199.954 257.233 201.51 269.122C203.065 281.01 214.003 289.416 225.891 287.861C231.553 287.12 236.378 284.211 239.761 280.126C243.191 283.265 247.881 284.983 252.842 284.334C261.909 283.148 268.043 274.809 266.805 265.353L266.191 260.658C263.08 236.881 241.204 220.068 217.427 223.179V223.179ZM224.481 277.08C218.535 277.858 213.068 273.656 212.29 267.711C211.512 261.765 215.714 256.298 221.659 255.52C227.605 254.742 233.072 258.944 233.85 264.89C234.628 270.835 230.426 276.302 224.481 277.08Z" fill="url(#paint2_linear)"/>
</g>
<path fill-rule="evenodd" clip-rule="evenodd" d="M240.366 280.654C243.732 283.455 248.167 284.946 252.842 284.334C261.909 283.148 268.043 274.809 266.805 265.353L266.191 260.658C263.08 236.881 241.204 220.068 217.427 223.179C217.161 223.214 216.896 223.251 216.632 223.291C193.277 226.78 176.873 248.432 179.949 271.943C183.061 295.719 204.936 312.532 228.713 309.421C236.028 308.464 242.983 305.665 248.881 301.31C249.09 301.156 249.298 301 249.504 300.842C249.511 300.837 249.517 300.832 249.523 300.827L242.907 292.201C238.387 295.67 232.99 297.897 227.302 298.641C209.468 300.975 193.063 288.366 190.729 270.532C188.396 252.699 201.005 236.293 218.838 233.96C236.672 231.626 253.077 244.235 255.411 262.068L256.025 266.763C256.487 270.29 254.555 273.145 251.431 273.554C248.46 273.943 245.725 271.84 245.336 268.869L242.514 247.309L235.063 248.284C230.838 245.467 225.667 244.031 220.249 244.74C208.361 246.295 199.954 257.233 201.51 269.122C203.065 281.01 214.003 289.416 225.891 287.861C231.267 287.157 235.889 284.5 239.237 280.736C239.415 280.535 239.59 280.332 239.761 280.126C239.958 280.307 240.16 280.483 240.366 280.654ZM241.822 248.209L234.869 249.119L234.618 248.952C230.539 246.233 225.562 244.855 220.353 245.536C208.905 247.034 200.808 257.569 202.306 269.017C203.804 280.466 214.339 288.562 225.787 287.064C231.233 286.352 235.879 283.554 239.142 279.614L239.68 278.963L240.303 279.533C243.573 282.526 248.031 284.154 252.738 283.538C261.333 282.413 267.193 274.506 266.009 265.457L265.394 260.762C262.341 237.425 240.868 220.922 217.532 223.976C194.195 227.03 177.692 248.502 180.746 271.839C183.799 295.175 205.272 311.678 228.609 308.625C235.785 307.686 242.607 304.941 248.392 300.673L242.752 293.319C238.255 296.6 232.965 298.71 227.406 299.437C209.133 301.829 192.324 288.91 189.933 270.636C187.542 252.363 200.46 235.554 218.734 233.163C237.007 230.772 253.816 243.691 256.207 261.964L256.822 266.659C257.328 270.532 255.188 273.872 251.535 274.35C248.124 274.797 244.986 272.384 244.539 268.973L241.822 248.209ZM224.585 277.877C218.2 278.712 212.329 274.2 211.493 267.815C210.658 261.43 215.17 255.559 221.555 254.724C227.941 253.888 233.811 258.4 234.647 264.785C235.482 271.171 230.97 277.041 224.585 277.877ZM212.29 267.711C213.068 273.656 218.535 277.858 224.481 277.08C230.426 276.302 234.628 270.835 233.85 264.89C233.072 258.944 227.605 254.742 221.659 255.52C215.714 256.298 211.512 261.765 212.29 267.711Z" fill="#9CE1FF"/>
<g filter="url(#filter4_d)">
<circle cx="47.7748" cy="80.9122" r="39.1031" transform="rotate(-7.60569 47.7748 80.9122)" fill="#3D80E0"/>
</g>
<mask id="mask0" mask-type="alpha" maskUnits="userSpaceOnUse" x="3" y="36" width="89" height="89">
<circle cx="47.7748" cy="80.9123" r="39.1031" transform="rotate(-7.60569 47.7748 80.9123)" fill="#3D80E0"/>
</mask>
<g mask="url(#mask0)">
<path d="M47.3089 40.1692L52.7254 61.9811L68.3222 45.7997L62.1071 67.3976L83.705 61.1825L67.5236 76.7793L89.3355 82.1958L67.5236 87.6124L83.705 103.209L62.1071 96.9941L68.3222 118.592L52.7254 102.411L47.3089 124.222L41.8923 102.411L26.2955 118.592L32.5107 96.9941L10.9127 103.209L27.0941 87.6124L5.28223 82.1958L27.0941 76.7793L10.9127 61.1825L32.5107 67.3976L26.2955 45.7997L41.8923 61.9811L47.3089 40.1692Z" fill="#B7DCFD"/>
</g>
<g filter="url(#filter5_d)">
<path d="M86.5339 75.7368C89.3922 97.1428 74.3564 116.813 52.9503 119.671C31.5443 122.53 11.8741 107.494 9.01581 86.0877C6.15747 64.6817 21.1933 45.0115 42.5994 42.1532C64.0054 39.2949 83.6756 54.3307 86.5339 75.7368Z" fill="url(#paint3_linear)"/>
</g>
<path d="M56.311 152.051L199.031 132.993L201.063 148.207L58.3425 167.265L56.311 152.051Z" fill="#EDE8E8"/>
<path d="M60.8579 176.131L203.578 157.074L205.61 172.288L62.8894 191.345L60.8579 176.131Z" fill="#EDE8E8"/>
<path d="M65.4043 201.021L208.124 181.963L210.156 197.177L67.4358 216.235L65.4043 201.021Z" fill="#EDE8E8"/>
<path d="M71.063 238.801L135.459 230.203L137.49 245.416L73.0945 254.015L71.063 238.801Z" fill="#EDE8E8"/>
<path d="M34.153 93.5248H54.6182L62.2926 143.957L44.0201 133.359L27.2095 143.957L34.153 93.5248Z" fill="url(#paint4_linear)"/>
<path d="M47.5595 93.8817L64.4549 85.1172L105.593 120.472L87.7593 120.942L76.63 135.497L47.5595 93.8817Z" fill="url(#paint5_linear)"/>
<g filter="url(#filter6_d)">
<path d="M74.3146 78.1057C76.2646 92.7098 66.0065 106.13 51.4024 108.08C36.7983 110.03 23.3785 99.7717 21.4284 85.1676C19.4783 70.5635 29.7364 57.1436 44.3405 55.1936C58.9447 53.2435 72.3645 63.5016 74.3146 78.1057Z" fill="url(#paint6_linear)"/>
</g>
<path fill-rule="evenodd" clip-rule="evenodd" d="M114.582 78.8323C114.702 82.7893 115.141 86.9548 115.682 90.5162L114.236 90.7355C113.689 87.129 113.243 82.9039 113.121 78.8765C113 74.8635 113.198 70.9885 113.97 68.1118C114.355 66.6756 114.9 65.4242 115.673 64.5302C116.468 63.6106 117.506 63.0738 118.782 63.122C120.014 63.1685 121.371 63.7574 122.861 64.8555C124.36 65.9596 126.054 67.6237 127.973 69.926C131.663 74.3542 134.983 76.4263 137.748 77.161C139.7 75.1478 141.346 73.6982 142.709 72.6982C144.368 71.4804 145.698 70.8615 146.701 70.7973C147.223 70.7638 147.73 70.878 148.114 71.2232C148.499 71.568 148.649 72.0423 148.667 72.4965C148.7 73.3717 148.263 74.4024 147.574 75.3305C146.169 77.2255 143.429 79.0882 139.766 78.9429C139.268 78.9231 138.756 78.8664 138.231 78.7687C137.953 79.0628 137.667 79.3686 137.375 79.6867C135.328 81.9173 134.154 83.63 133.644 84.9014C133.141 86.1582 133.343 86.7972 133.726 87.1742C134.199 87.6409 135.188 87.9736 136.807 88.0435C138.385 88.1116 140.399 87.9249 142.732 87.5303C152.076 85.9504 166.011 81.1376 176.024 77.1648L176.563 78.5236C166.538 82.5014 152.482 87.3644 142.976 88.9717C140.597 89.3739 138.469 89.5784 136.744 89.504C135.061 89.4313 133.585 89.0876 132.7 88.2156C131.724 87.254 131.672 85.8922 132.288 84.3575C132.897 82.8375 134.215 80.9683 136.299 78.6982C136.407 78.5803 136.514 78.464 136.621 78.3492C133.668 77.3632 130.363 75.078 126.85 70.8618C124.972 68.609 123.363 67.0409 121.994 66.0324C120.617 65.0179 119.544 64.6136 118.727 64.5827C117.953 64.5535 117.324 64.8552 116.778 65.4864C116.21 66.1434 115.74 67.155 115.382 68.4906C114.666 71.1575 114.462 74.8608 114.582 78.8323ZM139.502 77.4635C139.61 77.4718 139.718 77.478 139.824 77.4822C142.936 77.6057 145.239 76.025 146.4 74.4597C146.995 73.6577 147.221 72.954 147.206 72.5524C147.199 72.3682 147.146 72.3185 147.139 72.3115C147.131 72.3048 147.056 72.2393 146.794 72.2561C146.23 72.2922 145.186 72.6933 143.573 73.8767C142.454 74.6982 141.102 75.865 139.502 77.4635Z" fill="#453C3C"/>
</g>
<defs>
<filter id="filter0_d" x="-7.83398" y="-4" width="284.736" height="328.677" filterUnits="userSpaceOnUse" color-interpolation-filters="sRGB">
<feFlood flood-opacity="0" result="BackgroundImageFix"/>
<feColorMatrix in="SourceAlpha" type="matrix" values="0 0 0 0 0 0 0 0 0 0 0 0 0 0 0 0 0 0 127 0"/>
<feOffset dy="4"/>
<feGaussianBlur stdDeviation="4"/>
<feColorMatrix type="matrix" values="0 0 0 0 0 0 0 0 0 0 0 0 0 0 0 0 0 0 0.25 0"/>
<feBlend mode="normal" in2="BackgroundImageFix" result="effect1_dropShadow"/>
<feBlend mode="normal" in="SourceGraphic" in2="effect1_dropShadow" result="shape"/>
</filter>
<filter id="filter1_d" x="-7.83398" y="-4" width="284.736" height="328.677" filterUnits="userSpaceOnUse" color-interpolation-filters="sRGB">
<feFlood flood-opacity="0" result="BackgroundImageFix"/>
<feColorMatrix in="SourceAlpha" type="matrix" values="0 0 0 0 0 0 0 0 0 0 0 0 0 0 0 0 0 0 127 0"/>
<feOffset dy="4"/>
<feGaussianBlur stdDeviation="4"/>
<feColorMatrix type="matrix" values="0 0 0 0 0 0 0 0 0 0 0 0 0 0 0 0 0 0 0.25 0"/>
<feBlend mode="normal" in2="BackgroundImageFix" result="effect1_dropShadow"/>
<feBlend mode="normal" in="SourceGraphic" in2="effect1_dropShadow" result="shape"/>
</filter>
<filter id="filter2_ii" x="21.3335" y="19.2839" width="226.305" height="273.385" filterUnits="userSpaceOnUse" color-interpolation-filters="sRGB">
<feFlood flood-opacity="0" result="BackgroundImageFix"/>
<feBlend mode="normal" in="SourceGraphic" in2="BackgroundImageFix" result="shape"/>
<feColorMatrix in="SourceAlpha" type="matrix" values="0 0 0 0 0 0 0 0 0 0 0 0 0 0 0 0 0 0 127 0" result="hardAlpha"/>
<feOffset dx="4" dy="4"/>
<feGaussianBlur stdDeviation="4"/>
<feComposite in2="hardAlpha" operator="arithmetic" k2="-1" k3="1"/>
<feColorMatrix type="matrix" values="0 0 0 0 0 0 0 0 0 0 0 0 0 0 0 0 0 0 0.15 0"/>
<feBlend mode="normal" in2="shape" result="effect1_innerShadow"/>
<feColorMatrix in="SourceAlpha" type="matrix" values="0 0 0 0 0 0 0 0 0 0 0 0 0 0 0 0 0 0 127 0" result="hardAlpha"/>
<feOffset dx="-4" dy="-4"/>
<feGaussianBlur stdDeviation="4"/>
<feComposite in2="hardAlpha" operator="arithmetic" k2="-1" k3="1"/>
<feColorMatrix type="matrix" values="0 0 0 0 0 0 0 0 0 0 0 0 0 0 0 0 0 0 0.14 0"/>
<feBlend mode="normal" in2="effect1_innerShadow" result="effect2_innerShadow"/>
</filter>
<filter id="filter3_d" x="172.307" y="217.537" width="101.527" height="103.527" filterUnits="userSpaceOnUse" color-interpolation-filters="sRGB">
<feFlood flood-opacity="0" result="BackgroundImageFix"/>
<feColorMatrix in="SourceAlpha" type="matrix" values="0 0 0 0 0 0 0 0 0 0 0 0 0 0 0 0 0 0 127 0"/>
<feOffset dy="4"/>
<feGaussianBlur stdDeviation="1"/>
<feColorMatrix type="matrix" values="0 0 0 0 0 0 0 0 0 0.54435 0 0 0 0 0.783333 0 0 0 0.53 0"/>
<feBlend mode="normal" in2="BackgroundImageFix" result="effect1_dropShadow"/>
<feBlend mode="normal" in="SourceGraphic" in2="effect1_dropShadow" result="shape"/>
</filter>
<filter id="filter4_d" x="-0.159668" y="36.9777" width="95.869" height="95.869" filterUnits="userSpaceOnUse" color-interpolation-filters="sRGB">
<feFlood flood-opacity="0" result="BackgroundImageFix"/>
<feColorMatrix in="SourceAlpha" type="matrix" values="0 0 0 0 0 0 0 0 0 0 0 0 0 0 0 0 0 0 127 0"/>
<feOffset dy="4"/>
<feGaussianBlur stdDeviation="2"/>
<feColorMatrix type="matrix" values="0 0 0 0 0 0 0 0 0 0 0 0 0 0 0 0 0 0 0.25 0"/>
<feBlend mode="normal" in2="BackgroundImageFix" result="effect1_dropShadow"/>
<feBlend mode="normal" in="SourceGraphic" in2="effect1_dropShadow" result="shape"/>
</filter>
<filter id="filter5_d" x="-0.159668" y="36.9777" width="95.869" height="95.869" filterUnits="userSpaceOnUse" color-interpolation-filters="sRGB">
<feFlood flood-opacity="0" result="BackgroundImageFix"/>
<feColorMatrix in="SourceAlpha" type="matrix" values="0 0 0 0 0 0 0 0 0 0 0 0 0 0 0 0 0 0 127 0"/>
<feOffset dy="4"/>
<feGaussianBlur stdDeviation="2"/>
<feColorMatrix type="matrix" values="0 0 0 0 0 0 0 0 0 0 0 0 0 0 0 0 0 0 0.25 0"/>
<feBlend mode="normal" in2="BackgroundImageFix" result="effect1_dropShadow"/>
<feBlend mode="normal" in="SourceGraphic" in2="effect1_dropShadow" result="shape"/>
</filter>
<filter id="filter6_d" x="13.8975" y="51.6626" width="67.948" height="67.948" filterUnits="userSpaceOnUse" color-interpolation-filters="sRGB">
<feFlood flood-opacity="0" result="BackgroundImageFix"/>
<feColorMatrix in="SourceAlpha" type="matrix" values="0 0 0 0 0 0 0 0 0 0 0 0 0 0 0 0 0 0 127 0"/>
<feOffset dy="4"/>
<feGaussianBlur stdDeviation="2"/>
<feColorMatrix type="matrix" values="0 0 0 0 0 0 0 0 0 0 0 0 0 0 0 0 0 0 0.25 0"/>
<feBlend mode="normal" in2="BackgroundImageFix" result="effect1_dropShadow"/>
<feBlend mode="normal" in="SourceGraphic" in2="effect1_dropShadow" result="shape"/>
</filter>
<linearGradient id="paint0_linear" x1="115.719" y1="15.4297" x2="153.35" y2="297.248" gradientUnits="userSpaceOnUse">
<stop stop-color="#F7F6F6"/>
<stop offset="1" stop-color="#FEFEFE"/>
</linearGradient>
<linearGradient id="paint1_linear" x1="118.428" y1="35.7148" x2="150.545" y2="276.238" gradientUnits="userSpaceOnUse">
<stop stop-color="white"/>
<stop offset="1" stop-color="white"/>
</linearGradient>
<linearGradient id="paint2_linear" x1="217.163" y1="223.214" x2="317.138" y2="320.99" gradientUnits="userSpaceOnUse">
<stop stop-color="white"/>
<stop offset="0.156711" stop-color="white"/>
<stop offset="0.733372" stop-color="#4DC9FF"/>
</linearGradient>
<linearGradient id="paint3_linear" x1="40.3653" y1="14.9532" x2="52.9503" y2="119.671" gradientUnits="userSpaceOnUse">
<stop stop-color="white"/>
<stop offset="1" stop-color="#3D80E0" stop-opacity="0"/>
</linearGradient>
<linearGradient id="paint4_linear" x1="44.751" y1="93.5248" x2="44.751" y2="143.957" gradientUnits="userSpaceOnUse">
<stop stop-color="#9ED2FF"/>
<stop offset="0.494792" stop-color="#BFE1FF"/>
<stop offset="1" stop-color="#7AB5EA"/>
</linearGradient>
<linearGradient id="paint5_linear" x1="56.3089" y1="89.343" x2="79.4836" y2="134.017" gradientUnits="userSpaceOnUse">
<stop stop-color="#9ED2FF"/>
<stop offset="0.494792" stop-color="#BFE1FF"/>
<stop offset="1" stop-color="#7AB5EA"/>
</linearGradient>
<linearGradient id="paint6_linear" x1="41.0963" y1="66.4815" x2="51.4024" y2="108.08" gradientUnits="userSpaceOnUse">
<stop stop-color="white"/>
<stop offset="1" stop-color="#EAEAEA"/>
</linearGradient>
<clipPath id="clip0">
<rect width="271.668" height="315.064" fill="white" transform="translate(0.166016)"/>
</clipPath>
</defs>
</svg>
