<svg width="272" height="316" viewBox="0 0 272 316" fill="none" xmlns="http://www.w3.org/2000/svg">
<g clip-path="url(#clip0)">
<g filter="url(#filter0_d)">
<path d="M204.345 7.15677C202.831 5.46401 200.755 4.05263 198.504 4.3532C196.253 4.65378 194.621 6.56029 193.604 8.59096C192.138 11.5195 189.294 13.6942 185.803 14.1604C182.313 14.6265 178.998 13.274 176.815 10.8328C175.301 9.14005 173.225 7.72867 170.974 8.02924C168.723 8.32981 167.091 10.2363 166.074 12.267C164.608 15.1955 161.765 17.3703 158.274 17.8364C154.783 18.3025 151.468 16.9501 149.285 14.5089C147.771 12.8161 145.696 11.4047 143.445 11.7053C141.194 12.0059 139.561 13.9124 138.545 15.943C137.078 18.8715 134.235 21.0463 130.744 21.5124C127.253 21.9786 123.938 20.6261 121.755 18.1849C120.241 16.4921 118.166 15.0807 115.915 15.3813C113.664 15.6819 112.031 17.5884 111.015 19.6191C109.549 22.5476 106.705 24.7223 103.214 25.1885C99.7232 25.6546 96.4087 24.3021 94.2255 21.8609C92.7117 20.1682 90.6361 18.7568 88.3851 19.0574C86.1341 19.3579 84.5016 21.2645 83.4849 23.2951C82.0187 26.2236 79.1752 28.3984 75.6843 28.8645C72.1934 29.3307 68.8789 27.9782 66.6957 25.537C65.1819 23.8442 63.1063 22.4328 60.8553 22.7334C58.6043 23.034 56.9718 24.9405 55.9551 26.9712C54.4889 29.8997 51.6455 32.0744 48.1545 32.5406C44.6636 33.0067 41.3491 31.6542 39.1659 29.213C37.6521 27.5202 35.5765 26.1089 33.3255 26.4094C31.0746 26.71 29.442 28.6165 28.4253 30.6472C26.9592 33.5757 24.1157 35.7505 20.6248 36.2166C17.6543 36.6132 14.8115 35.6931 12.6848 33.9058C10.293 31.8957 7.44367 29.8654 4.34681 30.2789C1.94613 30.5995 0.259867 32.8055 0.580428 35.2062C0.740708 36.4065 1.85189 37.224 3.05894 37.3215C7.75609 37.7009 11.7184 41.3066 12.3675 46.1678C12.9489 50.5217 10.7013 54.6012 7.04092 56.5537C5.26011 57.5036 3.79586 59.2865 4.06299 61.287C4.33012 63.2876 6.21087 64.6238 8.17852 65.0732C12.223 65.9969 15.4622 69.3437 16.0436 73.6976C16.6249 78.0515 14.3774 82.131 10.717 84.0835C8.93615 85.0334 7.47189 86.8163 7.73903 88.8168C8.00616 90.8174 9.88691 92.1536 11.8546 92.603C15.899 93.5267 19.1382 96.8735 19.7196 101.227C20.301 105.581 18.0534 109.661 14.393 111.613C12.6122 112.563 11.1479 114.346 11.4151 116.347C11.6822 118.347 13.5629 119.683 15.5306 120.133C19.5751 121.056 22.8143 124.403 23.3956 128.757C23.977 133.111 21.7295 137.191 18.069 139.143C16.2882 140.093 14.824 141.876 15.0911 143.876C15.3582 145.877 17.239 147.213 19.2066 147.663C23.2511 148.586 26.4903 151.933 27.0717 156.287C27.653 160.641 25.4055 164.72 21.7451 166.673C19.9643 167.623 18.5 169.406 18.7671 171.406C19.0343 173.407 20.915 174.743 22.8827 175.192C26.9272 176.116 30.1663 179.463 30.7477 183.817C31.3291 188.171 29.0815 192.25 25.4211 194.203C23.6403 195.153 22.176 196.935 22.4432 198.936C22.7103 200.937 24.5911 202.273 26.5587 202.722C30.6032 203.646 33.8424 206.993 34.4238 211.347C35.0051 215.7 32.7576 219.78 29.0972 221.732C27.3163 222.682 25.8521 224.465 26.1192 226.466C26.3864 228.466 28.2671 229.803 30.2348 230.252C34.2792 231.176 37.5184 234.522 38.0998 238.876C38.6812 243.23 36.4336 247.31 32.7732 249.262C30.9924 250.212 29.5281 251.995 29.7953 253.996C30.0624 255.996 31.9431 257.332 33.9108 257.782C37.9553 258.705 41.1945 262.052 41.7758 266.406C42.3572 270.76 40.1096 274.839 36.4492 276.792C34.6684 277.742 33.2042 279.525 33.4713 281.525C33.7384 283.526 35.6192 284.862 37.5868 285.311C41.6313 286.235 44.8705 289.582 45.4519 293.936C46.0673 298.544 43.5131 302.846 39.4687 304.642C37.9931 305.298 36.8369 306.73 37.0506 308.331C37.3712 310.731 39.5772 312.418 41.9778 312.097C44.7786 311.723 46.6227 309.027 47.6395 306.391C48.9416 303.015 51.9979 300.436 55.8373 299.923C60.1912 299.342 64.2707 301.589 66.2232 305.25C67.1731 307.03 68.956 308.495 70.9566 308.228C72.9571 307.96 74.2933 306.08 74.7427 304.112C75.6664 300.068 79.0132 296.828 83.3671 296.247C87.721 295.666 91.8005 297.913 93.753 301.574C94.7029 303.354 96.4858 304.819 98.4863 304.551C100.487 304.284 101.823 302.404 102.272 300.436C103.196 296.391 106.543 293.152 110.897 292.571C115.251 291.99 119.33 294.237 121.283 297.897C122.233 299.678 124.016 301.143 126.016 300.875C128.017 300.608 129.353 298.728 129.802 296.76C130.726 292.715 134.073 289.476 138.427 288.895C142.781 288.313 146.86 290.561 148.813 294.221C149.762 296.002 151.545 297.467 153.546 297.199C155.546 296.932 156.883 295.052 157.332 293.084C158.256 289.039 161.603 285.8 165.956 285.219C170.31 284.637 174.39 286.885 176.342 290.545C177.292 292.326 179.075 293.79 181.076 293.523C183.076 293.256 184.412 291.375 184.862 289.408C185.786 285.363 189.132 282.124 193.486 281.543C197.84 280.961 201.92 283.209 203.872 286.869C204.822 288.65 206.605 290.114 208.605 289.847C210.606 289.58 211.942 287.699 212.392 285.732C213.315 281.687 216.662 278.448 221.016 277.867C225.37 277.285 229.449 279.533 231.402 283.193C232.352 284.974 234.135 286.438 236.135 286.171C238.136 285.904 239.472 284.023 239.921 282.056C240.845 278.011 244.192 274.772 248.546 274.191C252.643 273.644 256.497 275.602 258.565 278.885C259.855 280.935 261.989 282.719 264.39 282.399C266.79 282.078 268.476 279.872 268.156 277.471C267.942 275.871 266.451 274.792 264.855 274.547C260.481 273.874 256.887 270.394 256.272 265.785C255.691 261.431 257.938 257.352 261.599 255.399C263.379 254.449 264.844 252.667 264.577 250.666C264.309 248.665 262.429 247.329 260.461 246.88C256.417 245.956 253.177 242.609 252.596 238.255C252.015 233.901 254.262 229.822 257.923 227.87C259.703 226.92 261.168 225.137 260.901 223.136C260.633 221.136 258.753 219.799 256.785 219.35C252.741 218.426 249.501 215.08 248.92 210.726C248.339 206.372 250.586 202.292 254.247 200.34C256.027 199.39 257.492 197.607 257.225 195.606C256.957 193.606 255.077 192.27 253.109 191.82C249.065 190.897 245.825 187.55 245.244 183.196C244.663 178.842 246.91 174.762 250.571 172.81C252.351 171.86 253.816 170.077 253.548 168.077C253.281 166.076 251.401 164.74 249.433 164.29C245.388 163.367 242.149 160.02 241.568 155.666C240.987 151.312 243.234 147.233 246.895 145.28C248.675 144.33 250.14 142.547 249.872 140.547C249.605 138.546 247.725 137.21 245.757 136.761C241.712 135.837 238.473 132.49 237.892 128.136C237.311 123.782 239.558 119.703 243.218 117.75C244.999 116.8 246.464 115.018 246.196 113.017C245.929 111.016 244.049 109.68 242.081 109.231C238.036 108.307 234.797 104.96 234.216 100.606C233.634 96.2526 235.882 92.1731 239.542 90.2206C241.323 89.2707 242.788 87.4878 242.52 85.4872C242.253 83.4867 240.373 82.1505 238.405 81.7011C234.36 80.7774 231.121 77.4306 230.54 73.0767C229.958 68.7228 232.206 64.6433 235.866 62.6908C237.647 61.7409 239.111 59.958 238.844 57.9574C238.577 55.9569 236.696 54.6207 234.729 54.1713C230.684 53.2476 227.445 49.9008 226.864 45.5469C226.282 41.193 228.53 37.1135 232.19 35.161C233.971 34.2111 235.435 32.4282 235.168 30.4277C234.901 28.4271 233.02 27.0909 231.053 26.6415C227.008 25.7178 223.769 22.371 223.188 18.0171C222.539 13.1559 225.416 8.63686 229.849 7.03829C230.988 6.62749 231.846 5.54715 231.686 4.34681C231.365 1.94613 229.159 0.259866 226.758 0.580429C224.085 0.937475 222.16 3.23617 220.784 5.55636C219.24 8.15792 216.564 10.0529 213.333 10.4843C209.842 10.9505 206.528 9.59798 204.345 7.15677Z" fill="url(#paint0_linear)"/>
</g>
<g filter="url(#filter1_d)">
<path fill-rule="evenodd" clip-rule="evenodd" d="M194.258 8.91817C192.688 12.0539 189.641 14.3853 185.9 14.8848C182.159 15.3844 178.608 13.934 176.27 11.32C174.806 9.68288 172.954 8.50232 171.071 8.75371C169.189 9.0051 167.711 10.6302 166.728 12.5942C165.158 15.7299 162.111 18.0614 158.37 18.5609C154.629 19.0604 151.078 17.61 148.74 14.9961C147.276 13.3589 145.424 12.1784 143.541 12.4297C141.659 12.6811 140.181 14.3063 139.198 16.2702C137.628 19.406 134.582 21.7374 130.841 22.2369C127.1 22.7364 123.548 21.2861 121.21 18.6721C119.746 17.035 117.894 15.8544 116.012 16.1058C114.129 16.3572 112.652 17.9823 111.668 19.9463C110.098 23.082 107.052 25.4134 103.311 25.913C99.5699 26.4125 96.0184 24.9621 93.6807 22.3482C92.2166 20.711 90.3645 19.5304 88.4818 19.7818C86.5992 20.0332 85.1218 21.6584 84.1385 23.6223C82.5686 26.7581 79.522 29.0895 75.7811 29.589C72.0401 30.0885 68.4886 28.6381 66.1509 26.0242C64.6868 24.387 62.8347 23.2065 60.9521 23.4579C59.0694 23.7093 57.592 25.3344 56.6087 27.2984C55.0388 30.4341 51.9922 32.7655 48.2513 33.265C44.5104 33.7646 40.9588 32.3142 38.6211 29.7002C37.157 28.0631 35.3049 26.8825 33.4223 27.1339C31.5396 27.3853 30.0622 29.0104 29.0789 30.9744C27.509 34.1101 24.4624 36.4415 20.7215 36.9411C17.5388 37.3661 14.492 36.3793 12.2146 34.4654C11.0289 33.4689 9.77096 32.5036 8.45036 31.8358C7.13456 31.1704 5.79941 30.8224 4.44355 31.0034C2.44298 31.2705 1.03776 33.1089 1.3049 35.1095C1.40791 35.8809 2.15671 36.5153 3.11779 36.5929C8.15065 36.9995 12.3964 40.8618 13.092 46.0711C13.715 50.7371 11.3057 55.1072 7.38491 57.1986C5.73183 58.0804 4.57843 59.6249 4.78746 61.1903C4.99649 62.7557 6.51473 63.9435 8.34126 64.3606C12.6734 65.35 16.145 68.9348 16.768 73.6009C17.3911 78.2669 14.9818 82.6369 11.061 84.7284C9.40787 85.6101 8.25446 87.1546 8.4635 88.7201C8.67253 90.2855 10.1908 91.4733 12.0173 91.8904C16.3495 92.8798 19.821 96.4646 20.4441 101.131C21.0671 105.797 18.6578 110.167 14.737 112.258C13.0839 113.14 11.9305 114.684 12.1395 116.25C12.3486 117.815 13.8668 119.003 15.6933 119.42C20.0255 120.41 23.4971 123.994 24.1201 128.66C24.7432 133.326 22.3338 137.697 18.413 139.788C16.7599 140.67 15.6065 142.214 15.8156 143.78C16.0246 145.345 17.5428 146.533 19.3694 146.95C23.7016 147.939 27.1731 151.524 27.7961 156.19C28.4192 160.856 26.0099 165.226 22.0891 167.318C20.436 168.2 19.2826 169.744 19.4916 171.309C19.7006 172.875 21.2189 174.063 23.0454 174.48C27.3776 175.469 30.8491 179.054 31.4722 183.72C32.0952 188.386 29.6859 192.756 25.7651 194.848C24.112 195.729 22.9586 197.274 23.1677 198.839C23.3767 200.405 24.8949 201.592 26.7214 202.01C31.0536 202.999 34.5252 206.584 35.1482 211.25C35.7713 215.916 33.362 220.286 29.4411 222.377C27.7881 223.259 26.6347 224.804 26.8437 226.369C27.0527 227.934 28.571 229.122 30.3975 229.539C34.7297 230.529 38.2012 234.114 38.8243 238.78C39.4473 243.446 37.038 247.816 33.1172 249.907C31.4641 250.789 30.3107 252.333 30.5197 253.899C30.7288 255.464 32.247 256.652 34.0735 257.069C38.4057 258.059 41.8772 261.643 42.5003 266.309C43.1234 270.975 40.714 275.345 36.7932 277.437C35.1401 278.319 33.9867 279.863 34.1958 281.429C34.4048 282.994 35.923 284.182 37.7496 284.599C42.0818 285.588 45.5533 289.173 46.1763 293.839C46.8358 298.778 44.0982 303.385 39.7654 305.31C38.4686 305.886 37.6192 307.067 37.7751 308.234C38.0422 310.234 39.8805 311.64 41.8811 311.373C43.0611 311.215 44.0743 310.566 44.9326 309.606C45.7942 308.641 46.4696 307.393 46.9576 306.128C48.3519 302.513 51.6259 299.748 55.7406 299.199C60.4066 298.575 64.7767 300.985 66.8681 304.906C67.7499 306.559 69.2944 307.712 70.8598 307.503C72.4253 307.294 73.613 305.776 74.0302 303.949C75.0196 299.617 78.6044 296.146 83.2704 295.522C87.9364 294.899 92.3065 297.309 94.3979 301.23C95.2797 302.883 96.8242 304.036 98.3896 303.827C99.955 303.618 101.143 302.1 101.56 300.273C102.549 295.941 106.134 292.469 110.8 291.846C115.466 291.223 119.836 293.633 121.928 297.553C122.809 299.207 124.354 300.36 125.919 300.151C127.485 299.942 128.673 298.424 129.09 296.597C130.079 292.265 133.664 288.793 138.33 288.17C142.996 287.547 147.366 289.957 149.457 293.877C150.339 295.531 151.884 296.684 153.449 296.475C155.015 296.266 156.202 294.748 156.62 292.921C157.609 288.589 161.194 285.117 165.86 284.494C170.526 283.871 174.896 286.281 176.987 290.201C177.869 291.855 179.414 293.008 180.979 292.799C182.544 292.59 183.732 291.072 184.149 289.245C185.139 284.913 188.723 281.441 193.39 280.818C198.056 280.195 202.426 282.605 204.517 286.525C205.399 288.178 206.943 289.332 208.509 289.123C210.074 288.914 211.262 287.396 211.679 285.569C212.668 281.237 216.253 277.765 220.919 277.142C225.585 276.519 229.955 278.929 232.047 282.849C232.929 284.502 234.473 285.656 236.039 285.447C237.604 285.238 238.792 283.72 239.209 281.893C240.198 277.561 243.783 274.089 248.449 273.466C252.84 272.88 256.969 274.979 259.183 278.496C260.424 280.466 262.326 281.937 264.293 281.674C266.293 281.407 267.699 279.569 267.431 277.568C267.276 276.401 266.146 275.485 264.744 275.269C260.058 274.548 256.207 270.821 255.548 265.882C254.925 261.216 257.334 256.846 261.255 254.754C262.908 253.873 264.061 252.328 263.852 250.763C263.643 249.197 262.125 248.009 260.298 247.592C255.966 246.603 252.495 243.018 251.872 238.352C251.249 233.686 253.658 229.316 257.579 227.225C259.232 226.343 260.385 224.798 260.176 223.233C259.967 221.667 258.449 220.48 256.622 220.063C252.29 219.073 248.819 215.488 248.196 210.822C247.572 206.156 249.982 201.786 253.903 199.695C255.556 198.813 256.709 197.269 256.5 195.703C256.291 194.138 254.773 192.95 252.946 192.533C248.614 191.543 245.143 187.959 244.519 183.293C243.896 178.627 246.306 174.256 250.227 172.165C251.88 171.283 253.033 169.739 252.824 168.173C252.615 166.608 251.097 165.42 249.27 165.003C244.938 164.014 241.467 160.429 240.843 155.763C240.22 151.097 242.63 146.727 246.551 144.635C248.204 143.753 249.357 142.209 249.148 140.644C248.939 139.078 247.421 137.89 245.594 137.473C241.262 136.484 237.79 132.899 237.167 128.233C236.544 123.567 238.954 119.197 242.874 117.105C244.528 116.224 245.681 114.679 245.472 113.114C245.263 111.548 243.745 110.361 241.918 109.943C237.586 108.954 234.114 105.369 233.491 100.703C232.868 96.0372 235.278 91.6671 239.198 89.5757C240.852 88.6939 242.005 87.1494 241.796 85.584C241.587 84.0185 240.069 82.8308 238.242 82.4136C233.91 81.4242 230.438 77.8394 229.815 73.1734C229.192 68.5074 231.602 64.1373 235.522 62.0459C237.175 61.1641 238.329 59.6196 238.12 58.0542C237.911 56.4888 236.393 55.301 234.566 54.8839C230.234 53.8945 226.762 50.3096 226.139 45.6436C225.516 40.9776 227.926 36.6075 231.846 34.5161C233.499 33.6343 234.653 32.0898 234.444 30.5244C234.235 28.959 232.717 27.7712 230.89 27.3541C226.558 26.3647 223.086 22.7799 222.463 18.1138C221.768 12.9046 224.851 8.06355 229.601 6.35073C230.508 6.02364 231.064 5.21498 230.961 4.44355C230.694 2.44298 228.856 1.03776 226.855 1.3049C224.546 1.61326 222.777 3.62835 221.412 5.92924C219.76 8.71495 216.892 10.7465 213.43 11.2088C209.689 11.7083 206.138 10.2579 203.8 7.644C202.336 6.00684 200.484 4.82628 198.601 5.07767C196.718 5.32906 195.241 6.95421 194.258 8.91817ZM198.504 4.3532C200.755 4.05263 202.831 5.46401 204.345 7.15677C206.528 9.59799 209.842 10.9505 213.333 10.4843C216.564 10.0529 219.24 8.15793 220.784 5.55636C222.16 3.23617 224.085 0.937473 226.758 0.580429C229.159 0.259866 231.365 1.94613 231.686 4.34681C231.846 5.54715 230.988 6.62749 229.849 7.03829C225.416 8.63686 222.539 13.1559 223.188 18.0171C223.769 22.371 227.008 25.7178 231.053 26.6415C233.02 27.0909 234.901 28.4271 235.168 30.4277C235.435 32.4282 233.971 34.2111 232.19 35.161C228.53 37.1135 226.282 41.193 226.864 45.5469C227.445 49.9008 230.684 53.2476 234.729 54.1713C236.696 54.6207 238.577 55.9569 238.844 57.9574C239.111 59.958 237.647 61.7409 235.866 62.6908C232.206 64.6433 229.958 68.7228 230.54 73.0767C231.121 77.4306 234.36 80.7774 238.405 81.7011C240.372 82.1505 242.253 83.4867 242.52 85.4872C242.788 87.4878 241.323 89.2707 239.542 90.2206C235.882 92.1731 233.634 96.2526 234.216 100.606C234.797 104.96 238.036 108.307 242.081 109.231C244.049 109.68 245.929 111.016 246.196 113.017C246.464 115.018 244.999 116.8 243.218 117.75C239.558 119.703 237.311 123.782 237.892 128.136C238.473 132.49 241.712 135.837 245.757 136.761C247.725 137.21 249.605 138.546 249.872 140.547C250.14 142.547 248.675 144.33 246.895 145.28C243.234 147.233 240.987 151.312 241.568 155.666C242.149 160.02 245.388 163.367 249.433 164.29C251.401 164.74 253.281 166.076 253.548 168.077C253.816 170.077 252.351 171.86 250.571 172.81C246.91 174.762 244.663 178.842 245.244 183.196C245.825 187.55 249.065 190.897 253.109 191.82C255.077 192.27 256.957 193.606 257.225 195.606C257.492 197.607 256.027 199.39 254.247 200.34C250.586 202.292 248.339 206.372 248.92 210.726C249.501 215.08 252.741 218.426 256.785 219.35C258.753 219.799 260.633 221.136 260.901 223.136C261.168 225.137 259.703 226.92 257.923 227.87C254.262 229.822 252.015 233.901 252.596 238.255C253.177 242.609 256.417 245.956 260.461 246.88C262.429 247.329 264.309 248.665 264.577 250.666C264.844 252.667 263.379 254.449 261.599 255.399C257.938 257.352 255.691 261.431 256.272 265.785C256.887 270.394 260.481 273.874 264.855 274.547C266.451 274.792 267.942 275.871 268.156 277.471C268.476 279.872 266.79 282.078 264.39 282.399C261.989 282.719 259.855 280.935 258.565 278.885C256.497 275.602 252.643 273.644 248.546 274.191C244.192 274.772 240.845 278.011 239.921 282.056C239.472 284.023 238.136 285.904 236.135 286.171C234.135 286.438 232.352 284.974 231.402 283.193C229.449 279.533 225.37 277.285 221.016 277.867C216.662 278.448 213.315 281.687 212.392 285.732C211.942 287.699 210.606 289.58 208.605 289.847C206.605 290.114 204.822 288.65 203.872 286.869C201.92 283.209 197.84 280.961 193.486 281.543C189.132 282.124 185.786 285.363 184.862 289.408C184.412 291.375 183.076 293.256 181.076 293.523C179.075 293.79 177.292 292.326 176.342 290.545C174.39 286.885 170.31 284.637 165.956 285.219C161.603 285.8 158.256 289.039 157.332 293.084C156.883 295.052 155.546 296.932 153.546 297.199C151.545 297.467 149.762 296.002 148.813 294.221C146.86 290.561 142.781 288.313 138.427 288.895C134.073 289.476 130.726 292.715 129.802 296.76C129.353 298.728 128.017 300.608 126.016 300.875C124.016 301.143 122.233 299.678 121.283 297.897C119.33 294.237 115.251 291.99 110.897 292.571C106.543 293.152 103.196 296.391 102.272 300.436C101.823 302.404 100.487 304.284 98.4863 304.551C96.4858 304.819 94.7029 303.354 93.753 301.574C91.8005 297.913 87.721 295.666 83.3671 296.247C79.0132 296.828 75.6664 300.068 74.7427 304.112C74.2933 306.08 72.9571 307.96 70.9566 308.228C68.956 308.495 67.1731 307.03 66.2232 305.25C64.2707 301.589 60.1912 299.342 55.8373 299.923C51.9979 300.436 48.9416 303.015 47.6395 306.391C46.6227 309.027 44.7786 311.723 41.9778 312.097C39.5772 312.418 37.3712 310.731 37.0506 308.331C36.8369 306.73 37.9931 305.298 39.4687 304.642C43.5131 302.846 46.0673 298.544 45.4519 293.936C44.8705 289.582 41.6313 286.235 37.5868 285.311C35.6192 284.862 33.7384 283.526 33.4713 281.525C33.2042 279.525 34.6684 277.742 36.4492 276.792C40.1096 274.839 42.3572 270.76 41.7758 266.406C41.1945 262.052 37.9553 258.705 33.9108 257.782C31.9431 257.332 30.0624 255.996 29.7953 253.996C29.5281 251.995 30.9924 250.212 32.7732 249.262C36.4336 247.31 38.6812 243.23 38.0998 238.876C37.5184 234.522 34.2792 231.176 30.2348 230.252C28.2671 229.803 26.3864 228.466 26.1192 226.466C25.8521 224.465 27.3163 222.682 29.0972 221.732C32.7576 219.78 35.0051 215.7 34.4238 211.347C33.8424 206.993 30.6032 203.646 26.5587 202.722C24.5911 202.273 22.7103 200.937 22.4432 198.936C22.176 196.935 23.6403 195.153 25.4211 194.203C29.0815 192.25 31.3291 188.171 30.7477 183.817C30.1663 179.463 26.9272 176.116 22.8827 175.192C20.915 174.743 19.0343 173.407 18.7671 171.406C18.5 169.406 19.9643 167.623 21.7451 166.673C25.4055 164.72 27.6531 160.641 27.0717 156.287C26.4903 151.933 23.2511 148.586 19.2066 147.663C17.239 147.213 15.3582 145.877 15.0911 143.876C14.824 141.876 16.2882 140.093 18.069 139.143C21.7295 137.191 23.977 133.111 23.3956 128.757C22.8143 124.403 19.5751 121.056 15.5306 120.133C13.5629 119.683 11.6822 118.347 11.4151 116.347C11.1479 114.346 12.6122 112.563 14.393 111.613C18.0534 109.661 20.301 105.581 19.7196 101.227C19.1382 96.8735 15.899 93.5267 11.8546 92.603C9.88691 92.1536 8.00616 90.8174 7.73903 88.8168C7.47189 86.8163 8.93615 85.0334 10.717 84.0835C14.3774 82.131 16.6249 78.0515 16.0436 73.6976C15.4622 69.3437 12.223 65.9969 8.17852 65.0732C6.21087 64.6238 4.33012 63.2876 4.06299 61.287C3.79586 59.2865 5.26011 57.5036 7.04092 56.5537C10.7013 54.6012 12.9489 50.5217 12.3675 46.1678C11.7184 41.3066 7.75609 37.7009 3.05894 37.3215C1.85189 37.224 0.740708 36.4065 0.580428 35.2062C0.259867 32.8055 1.94613 30.5995 4.34681 30.2789C7.44367 29.8654 10.293 31.8957 12.6848 33.9058C14.8115 35.6931 17.6543 36.6132 20.6248 36.2166C24.1157 35.7505 26.9592 33.5757 28.4253 30.6472C29.442 28.6165 31.0746 26.71 33.3255 26.4094C35.5765 26.1089 37.6521 27.5202 39.1659 29.213C41.3491 31.6542 44.6636 33.0067 48.1545 32.5406C51.6454 32.0744 54.4889 29.8997 55.9551 26.9712C56.9718 24.9405 58.6043 23.034 60.8553 22.7334C63.1063 22.4328 65.1819 23.8442 66.6957 25.537C68.8789 27.9782 72.1934 29.3307 75.6843 28.8645C79.1752 28.3984 82.0187 26.2236 83.4849 23.2951C84.5016 21.2645 86.1341 19.3579 88.3851 19.0574C90.6361 18.7568 92.7117 20.1682 94.2255 21.8609C96.4087 24.3021 99.7232 25.6546 103.214 25.1885C106.705 24.7223 109.549 22.5476 111.015 19.6191C112.031 17.5884 113.664 15.6819 115.915 15.3813C118.166 15.0807 120.241 16.4921 121.755 18.1849C123.938 20.6261 127.253 21.9786 130.744 21.5124C134.235 21.0463 137.078 18.8715 138.545 15.943C139.561 13.9124 141.194 12.0059 143.445 11.7053C145.696 11.4047 147.771 12.8161 149.285 14.5089C151.468 16.9501 154.783 18.3025 158.274 17.8364C161.765 17.3703 164.608 15.1955 166.074 12.267C167.091 10.2363 168.723 8.32981 170.974 8.02924C173.225 7.72867 175.301 9.14005 176.815 10.8328C178.998 13.274 182.313 14.6265 185.803 14.1604C189.294 13.6942 192.138 11.5195 193.604 8.59096C194.621 6.56029 196.253 4.65377 198.504 4.3532Z" fill="#494949"/>
</g>
<g filter="url(#filter2_ii)">
<path d="M25.9139 52.4924C25.5934 50.0918 27.2796 47.8858 29.6803 47.5652L207.175 23.8644C209.576 23.5439 211.782 25.2301 212.102 27.6308L243.058 259.461C243.379 261.861 241.693 264.067 239.292 264.388L61.7973 288.089C59.3966 288.409 57.1906 286.723 56.87 284.322L25.9139 52.4924Z" fill="url(#paint1_linear)"/>
</g>
<g filter="url(#filter3_d)">
<path d="M217.427 223.179C193.651 226.291 176.838 248.166 179.949 271.943C183.061 295.719 204.936 312.532 228.713 309.421C236.295 308.429 243.49 305.458 249.523 300.827L242.907 292.201C238.387 295.67 232.99 297.897 227.302 298.641C209.468 300.975 193.063 288.366 190.729 270.532C188.396 252.699 201.005 236.293 218.838 233.96C236.672 231.626 253.077 244.235 255.411 262.068L256.025 266.763C256.487 270.29 254.555 273.145 251.431 273.554C248.46 273.943 245.725 271.84 245.336 268.869L242.514 247.309L235.063 248.284C230.838 245.467 225.667 244.031 220.249 244.74C208.361 246.295 199.954 257.233 201.51 269.122C203.065 281.01 214.003 289.416 225.891 287.861C231.553 287.12 236.378 284.211 239.761 280.126C243.191 283.265 247.881 284.983 252.842 284.334C261.909 283.148 268.043 274.809 266.805 265.353L266.191 260.658C263.08 236.881 241.204 220.068 217.427 223.179V223.179ZM224.481 277.08C218.535 277.858 213.068 273.656 212.29 267.711C211.512 261.765 215.714 256.298 221.659 255.52C227.605 254.742 233.072 258.944 233.85 264.89C234.628 270.835 230.426 276.302 224.481 277.08Z" fill="url(#paint2_linear)"/>
</g>
<path fill-rule="evenodd" clip-rule="evenodd" d="M240.366 280.654C243.732 283.455 248.167 284.946 252.842 284.334C261.909 283.148 268.043 274.809 266.805 265.353L266.191 260.658C263.08 236.881 241.204 220.068 217.427 223.179C217.161 223.214 216.896 223.251 216.632 223.291C193.277 226.78 176.873 248.432 179.949 271.943C183.061 295.719 204.936 312.532 228.713 309.421C236.028 308.464 242.983 305.665 248.881 301.31C249.09 301.156 249.298 301 249.504 300.842C249.511 300.837 249.517 300.832 249.523 300.827L242.907 292.201C238.387 295.67 232.99 297.897 227.302 298.641C209.468 300.975 193.063 288.366 190.729 270.532C188.396 252.699 201.005 236.293 218.838 233.96C236.672 231.626 253.077 244.235 255.411 262.068L256.025 266.763C256.487 270.29 254.555 273.145 251.431 273.554C248.46 273.943 245.725 271.84 245.336 268.869L242.514 247.309L235.063 248.284C230.838 245.467 225.667 244.031 220.249 244.74C208.361 246.295 199.954 257.233 201.51 269.122C203.065 281.01 214.003 289.416 225.891 287.861C231.267 287.157 235.889 284.5 239.237 280.736C239.415 280.535 239.59 280.332 239.761 280.126C239.958 280.307 240.16 280.483 240.366 280.654ZM241.822 248.209L234.869 249.119L234.618 248.952C230.539 246.233 225.562 244.855 220.353 245.536C208.905 247.034 200.808 257.569 202.306 269.017C203.804 280.466 214.339 288.562 225.787 287.064C231.233 286.352 235.879 283.554 239.142 279.614L239.68 278.963L240.303 279.533C243.573 282.526 248.031 284.154 252.738 283.538C261.333 282.413 267.193 274.506 266.009 265.457L265.394 260.762C262.341 237.425 240.868 220.922 217.532 223.976C194.195 227.03 177.692 248.502 180.746 271.839C183.799 295.175 205.272 311.678 228.609 308.625C235.785 307.686 242.607 304.941 248.392 300.673L242.752 293.319C238.255 296.6 232.965 298.71 227.406 299.437C209.133 301.829 192.324 288.91 189.933 270.636C187.542 252.363 200.46 235.554 218.734 233.163C237.007 230.772 253.816 243.691 256.207 261.964L256.822 266.659C257.328 270.532 255.188 273.872 251.535 274.35C248.124 274.797 244.986 272.384 244.539 268.973L241.822 248.209ZM224.585 277.877C218.2 278.712 212.329 274.2 211.493 267.815C210.658 261.43 215.17 255.559 221.555 254.724C227.941 253.888 233.811 258.4 234.647 264.785C235.482 271.171 230.97 277.041 224.585 277.877ZM212.29 267.711C213.068 273.656 218.535 277.858 224.481 277.08C230.426 276.302 234.628 270.835 233.85 264.89C233.072 258.944 227.605 254.742 221.659 255.52C215.714 256.298 211.512 261.765 212.29 267.711Z" fill="#9CE1FF"/>
<g filter="url(#filter4_d)">
<circle cx="47.7748" cy="80.9122" r="39.1031" transform="rotate(-7.60569 47.7748 80.9122)" fill="#3D80E0"/>
</g>
<mask id="mask0" mask-type="alpha" maskUnits="userSpaceOnUse" x="3" y="36" width="89" height="89">
<circle cx="47.7748" cy="80.9123" r="39.1031" transform="rotate(-7.60569 47.7748 80.9123)" fill="#3D80E0"/>
</mask>
<g mask="url(#mask0)">
<path d="M47.3089 40.1692L52.7254 61.9811L68.3222 45.7997L62.1071 67.3976L83.705 61.1825L67.5236 76.7793L89.3355 82.1958L67.5236 87.6124L83.705 103.209L62.1071 96.9941L68.3222 118.592L52.7254 102.411L47.3089 124.222L41.8923 102.411L26.2955 118.592L32.5107 96.9941L10.9127 103.209L27.0941 87.6124L5.28223 82.1958L27.0941 76.7793L10.9127 61.1825L32.5107 67.3976L26.2955 45.7997L41.8923 61.9811L47.3089 40.1692Z" fill="#B7DCFD"/>
</g>
<g filter="url(#filter5_d)">
<path d="M86.5339 75.7367C89.3922 97.1427 74.3564 116.813 52.9503 119.671C31.5443 122.53 11.8741 107.494 9.01581 86.0877C6.15747 64.6816 21.1933 45.0115 42.5994 42.1531C64.0054 39.2948 83.6756 54.3307 86.5339 75.7367Z" fill="url(#paint3_linear)"/>
</g>
<path d="M56.311 152.051L199.031 132.993L201.063 148.207L58.3425 167.265L56.311 152.051Z" fill="#868686"/>
<path d="M60.8579 176.132L203.578 157.074L205.61 172.288L62.8894 191.345L60.8579 176.132Z" fill="#868686"/>
<path d="M65.4043 201.021L208.124 181.964L210.156 197.177L67.4358 216.235L65.4043 201.021Z" fill="#868686"/>
<path d="M71.063 238.802L135.459 230.203L137.49 245.417L73.0945 254.015L71.063 238.802Z" fill="#868686"/>
<path d="M34.153 93.5249H54.6182L62.2926 143.957L44.0201 133.359L27.2095 143.957L34.153 93.5249Z" fill="url(#paint4_linear)"/>
<path d="M47.5595 93.8818L64.4549 85.1173L105.593 120.472L87.7593 120.942L76.63 135.497L47.5595 93.8818Z" fill="url(#paint5_linear)"/>
<g filter="url(#filter6_d)">
<path d="M74.3146 78.1057C76.2646 92.7098 66.0065 106.13 51.4024 108.08C36.7983 110.03 23.3785 99.7717 21.4284 85.1676C19.4783 70.5635 29.7364 57.1436 44.3405 55.1936C58.9447 53.2435 72.3645 63.5016 74.3146 78.1057Z" fill="url(#paint6_linear)"/>
</g>
<path fill-rule="evenodd" clip-rule="evenodd" d="M114.582 78.8322C114.702 82.7892 115.141 86.9547 115.682 90.5161L114.236 90.7354C113.689 87.1289 113.243 82.9038 113.121 78.8764C113 74.8634 113.198 70.9884 113.97 68.1118C114.355 66.6756 114.9 65.4241 115.673 64.5302C116.468 63.6106 117.506 63.0738 118.782 63.1219C120.014 63.1684 121.371 63.7573 122.861 64.8555C124.36 65.9595 126.054 67.6236 127.973 69.9259C131.663 74.3541 134.983 76.4263 137.748 77.1609C139.7 75.1478 141.346 73.6981 142.709 72.6981C144.368 71.4803 145.698 70.8614 146.701 70.7972C147.223 70.7638 147.73 70.878 148.114 71.2231C148.499 71.5679 148.649 72.0422 148.667 72.4965C148.7 73.3716 148.263 74.4023 147.574 75.3304C146.169 77.2255 143.429 79.0881 139.766 78.9428C139.268 78.9231 138.756 78.8664 138.231 78.7686C137.953 79.0627 137.667 79.3686 137.375 79.6866C135.328 81.9173 134.154 83.63 133.644 84.9014C133.141 86.1581 133.343 86.7971 133.726 87.1741C134.199 87.6408 135.188 87.9736 136.807 88.0435C138.385 88.1116 140.399 87.9248 142.732 87.5303C152.076 85.9503 166.011 81.1376 176.024 77.1648L176.563 78.5235C166.538 82.5014 152.482 87.3643 142.976 88.9716C140.597 89.3739 138.469 89.5784 136.744 89.5039C135.061 89.4312 133.585 89.0875 132.7 88.2156C131.724 87.2539 131.672 85.8921 132.288 84.3574C132.897 82.8375 134.215 80.9683 136.299 78.6981C136.407 78.5803 136.514 78.4639 136.621 78.3492C133.668 77.3632 130.363 75.078 126.85 70.8617C124.972 68.6089 123.363 67.0409 121.994 66.0323C120.617 65.0178 119.544 64.6135 118.727 64.5827C117.953 64.5535 117.324 64.8552 116.778 65.4864C116.21 66.1433 115.74 67.1549 115.382 68.4905C114.666 71.1574 114.462 74.8608 114.582 78.8322ZM139.502 77.4634C139.61 77.4717 139.718 77.4779 139.824 77.4822C142.936 77.6056 145.239 76.0249 146.4 74.4597C146.995 73.6576 147.221 72.9539 147.206 72.5523C147.199 72.3682 147.146 72.3184 147.139 72.3114C147.131 72.3048 147.056 72.2393 146.794 72.256C146.23 72.2922 145.186 72.6932 143.573 73.8767C142.454 74.6982 141.102 75.8649 139.502 77.4634Z" fill="#789DD3"/>
</g>
<defs>
<filter id="filter0_d" x="-8" y="-4" width="284.736" height="328.677" filterUnits="userSpaceOnUse" color-interpolation-filters="sRGB">
<feFlood flood-opacity="0" result="BackgroundImageFix"/>
<feColorMatrix in="SourceAlpha" type="matrix" values="0 0 0 0 0 0 0 0 0 0 0 0 0 0 0 0 0 0 127 0"/>
<feOffset dy="4"/>
<feGaussianBlur stdDeviation="4"/>
<feColorMatrix type="matrix" values="0 0 0 0 0 0 0 0 0 0 0 0 0 0 0 0 0 0 0.25 0"/>
<feBlend mode="normal" in2="BackgroundImageFix" result="effect1_dropShadow"/>
<feBlend mode="normal" in="SourceGraphic" in2="effect1_dropShadow" result="shape"/>
</filter>
<filter id="filter1_d" x="-8" y="-4" width="284.736" height="328.677" filterUnits="userSpaceOnUse" color-interpolation-filters="sRGB">
<feFlood flood-opacity="0" result="BackgroundImageFix"/>
<feColorMatrix in="SourceAlpha" type="matrix" values="0 0 0 0 0 0 0 0 0 0 0 0 0 0 0 0 0 0 127 0"/>
<feOffset dy="4"/>
<feGaussianBlur stdDeviation="4"/>
<feColorMatrix type="matrix" values="0 0 0 0 0 0 0 0 0 0 0 0 0 0 0 0 0 0 0.25 0"/>
<feBlend mode="normal" in2="BackgroundImageFix" result="effect1_dropShadow"/>
<feBlend mode="normal" in="SourceGraphic" in2="effect1_dropShadow" result="shape"/>
</filter>
<filter id="filter2_ii" x="21.3335" y="19.2841" width="226.305" height="273.385" filterUnits="userSpaceOnUse" color-interpolation-filters="sRGB">
<feFlood flood-opacity="0" result="BackgroundImageFix"/>
<feBlend mode="normal" in="SourceGraphic" in2="BackgroundImageFix" result="shape"/>
<feColorMatrix in="SourceAlpha" type="matrix" values="0 0 0 0 0 0 0 0 0 0 0 0 0 0 0 0 0 0 127 0" result="hardAlpha"/>
<feOffset dx="4" dy="4"/>
<feGaussianBlur stdDeviation="4"/>
<feComposite in2="hardAlpha" operator="arithmetic" k2="-1" k3="1"/>
<feColorMatrix type="matrix" values="0 0 0 0 0 0 0 0 0 0 0 0 0 0 0 0 0 0 0.15 0"/>
<feBlend mode="normal" in2="shape" result="effect1_innerShadow"/>
<feColorMatrix in="SourceAlpha" type="matrix" values="0 0 0 0 0 0 0 0 0 0 0 0 0 0 0 0 0 0 127 0" result="hardAlpha"/>
<feOffset dx="-4" dy="-4"/>
<feGaussianBlur stdDeviation="4"/>
<feComposite in2="hardAlpha" operator="arithmetic" k2="-1" k3="1"/>
<feColorMatrix type="matrix" values="0 0 0 0 0 0 0 0 0 0 0 0 0 0 0 0 0 0 0.14 0"/>
<feBlend mode="normal" in2="effect1_innerShadow" result="effect2_innerShadow"/>
</filter>
<filter id="filter3_d" x="172.307" y="217.537" width="101.527" height="103.527" filterUnits="userSpaceOnUse" color-interpolation-filters="sRGB">
<feFlood flood-opacity="0" result="BackgroundImageFix"/>
<feColorMatrix in="SourceAlpha" type="matrix" values="0 0 0 0 0 0 0 0 0 0 0 0 0 0 0 0 0 0 127 0"/>
<feOffset dy="4"/>
<feGaussianBlur stdDeviation="1"/>
<feColorMatrix type="matrix" values="0 0 0 0 0 0 0 0 0 0.54435 0 0 0 0 0.783333 0 0 0 0.53 0"/>
<feBlend mode="normal" in2="BackgroundImageFix" result="effect1_dropShadow"/>
<feBlend mode="normal" in="SourceGraphic" in2="effect1_dropShadow" result="shape"/>
</filter>
<filter id="filter4_d" x="-0.159668" y="36.9777" width="95.869" height="95.869" filterUnits="userSpaceOnUse" color-interpolation-filters="sRGB">
<feFlood flood-opacity="0" result="BackgroundImageFix"/>
<feColorMatrix in="SourceAlpha" type="matrix" values="0 0 0 0 0 0 0 0 0 0 0 0 0 0 0 0 0 0 127 0"/>
<feOffset dy="4"/>
<feGaussianBlur stdDeviation="2"/>
<feColorMatrix type="matrix" values="0 0 0 0 0 0 0 0 0 0 0 0 0 0 0 0 0 0 0.25 0"/>
<feBlend mode="normal" in2="BackgroundImageFix" result="effect1_dropShadow"/>
<feBlend mode="normal" in="SourceGraphic" in2="effect1_dropShadow" result="shape"/>
</filter>
<filter id="filter5_d" x="-0.159668" y="36.9777" width="95.869" height="95.869" filterUnits="userSpaceOnUse" color-interpolation-filters="sRGB">
<feFlood flood-opacity="0" result="BackgroundImageFix"/>
<feColorMatrix in="SourceAlpha" type="matrix" values="0 0 0 0 0 0 0 0 0 0 0 0 0 0 0 0 0 0 127 0"/>
<feOffset dy="4"/>
<feGaussianBlur stdDeviation="2"/>
<feColorMatrix type="matrix" values="0 0 0 0 0 0 0 0 0 0 0 0 0 0 0 0 0 0 0.25 0"/>
<feBlend mode="normal" in2="BackgroundImageFix" result="effect1_dropShadow"/>
<feBlend mode="normal" in="SourceGraphic" in2="effect1_dropShadow" result="shape"/>
</filter>
<filter id="filter6_d" x="13.8975" y="51.6626" width="67.948" height="67.948" filterUnits="userSpaceOnUse" color-interpolation-filters="sRGB">
<feFlood flood-opacity="0" result="BackgroundImageFix"/>
<feColorMatrix in="SourceAlpha" type="matrix" values="0 0 0 0 0 0 0 0 0 0 0 0 0 0 0 0 0 0 127 0"/>
<feOffset dy="4"/>
<feGaussianBlur stdDeviation="2"/>
<feColorMatrix type="matrix" values="0 0 0 0 0 0 0 0 0 0 0 0 0 0 0 0 0 0 0.25 0"/>
<feBlend mode="normal" in2="BackgroundImageFix" result="effect1_dropShadow"/>
<feBlend mode="normal" in="SourceGraphic" in2="effect1_dropShadow" result="shape"/>
</filter>
<linearGradient id="paint0_linear" x1="115.553" y1="15.4297" x2="153.184" y2="297.248" gradientUnits="userSpaceOnUse">
<stop stop-color="#2D2D2D"/>
<stop offset="1" stop-color="#8D8D8D"/>
</linearGradient>
<linearGradient id="paint1_linear" x1="118.428" y1="35.7148" x2="150.545" y2="276.238" gradientUnits="userSpaceOnUse">
<stop stop-color="#736E6E"/>
<stop offset="1" stop-color="#424242"/>
</linearGradient>
<linearGradient id="paint2_linear" x1="217.163" y1="223.214" x2="317.138" y2="320.99" gradientUnits="userSpaceOnUse">
<stop stop-color="white"/>
<stop offset="0.156711" stop-color="white"/>
<stop offset="0.733372" stop-color="#4DC9FF"/>
</linearGradient>
<linearGradient id="paint3_linear" x1="40.3653" y1="14.9532" x2="52.9503" y2="119.671" gradientUnits="userSpaceOnUse">
<stop stop-color="white"/>
<stop offset="1" stop-color="#3D80E0" stop-opacity="0"/>
</linearGradient>
<linearGradient id="paint4_linear" x1="44.751" y1="93.5249" x2="44.751" y2="143.957" gradientUnits="userSpaceOnUse">
<stop stop-color="#9ED2FF"/>
<stop offset="0.494792" stop-color="#BFE1FF"/>
<stop offset="1" stop-color="#145DCE"/>
</linearGradient>
<linearGradient id="paint5_linear" x1="56.3089" y1="89.343" x2="79.4836" y2="134.017" gradientUnits="userSpaceOnUse">
<stop stop-color="#9ED2FF"/>
<stop offset="0.494792" stop-color="#BFE1FF"/>
<stop offset="1" stop-color="#145DCE"/>
</linearGradient>
<linearGradient id="paint6_linear" x1="41.0963" y1="66.4815" x2="51.4024" y2="108.08" gradientUnits="userSpaceOnUse">
<stop stop-color="white"/>
<stop offset="1" stop-color="#EAEAEA"/>
</linearGradient>
<clipPath id="clip0">
<rect width="271.668" height="315.064" fill="white" transform="translate(0.166016)"/>
</clipPath>
</defs>
</svg>
