<svg width="20" height="20" viewBox="0 0 20 20" fill="none" xmlns="http://www.w3.org/2000/svg">
<path fill-rule="evenodd" clip-rule="evenodd" d="M10 5.5C7.51485 5.5 5.5 7.51485 5.5 10C5.5 12.4851 7.51485 14.5 10 14.5C12.4851 14.5 14.5 12.4851 14.5 10C14.5 7.51485 12.4851 5.5 10 5.5ZM10 12.8125C8.44973 12.8125 7.1875 11.5503 7.1875 10C7.1875 8.44865 8.44973 7.1875 10 7.1875C11.5503 7.1875 12.8125 8.44865 12.8125 10C12.8125 11.5503 11.5503 12.8125 10 12.8125Z" fill="white"/>
<path d="M15.4372 5.16255C15.4372 5.49368 15.1686 5.76213 14.8375 5.76213C14.5063 5.76213 14.2379 5.49368 14.2379 5.16255C14.2379 4.83134 14.5063 4.56289 14.8375 4.56289C15.1686 4.56289 15.4372 4.83134 15.4372 5.16255Z" fill="white"/>
<path fill-rule="evenodd" clip-rule="evenodd" d="M13.375 1H6.625C3.51891 1 1 3.51884 1 6.625V13.375C1 16.4812 3.51891 19 6.625 19H13.375C16.4811 19 19 16.4812 19 13.375V6.625C19 3.51884 16.4811 1 13.375 1ZM17.3125 13.375C17.3125 15.5463 15.5462 17.3125 13.375 17.3125H6.625C4.45379 17.3125 2.6875 15.5463 2.6875 13.375V6.625C2.6875 4.45372 4.45379 2.6875 6.625 2.6875H13.375C15.5462 2.6875 17.3125 4.45372 17.3125 6.625V13.375Z" fill="white"/>
</svg>
