<svg width="20" height="20" viewBox="0 0 20 20" fill="none" xmlns="http://www.w3.org/2000/svg">
<path d="M19.4615 4.77577C18.775 5.07692 18.0435 5.27654 17.2808 5.37346C18.0654 4.905 18.6642 4.16885 18.9458 3.28154C18.2142 3.71769 17.4065 4.02577 16.5458 4.19769C15.8512 3.45808 14.8612 3 13.7812 3C11.6858 3 9.99884 4.70077 9.99884 6.78577C9.99884 7.08577 10.0242 7.37423 10.0865 7.64885C6.94 7.49538 4.15577 5.98731 2.28538 3.69C1.95885 4.25654 1.76731 4.905 1.76731 5.60308C1.76731 6.91385 2.44231 8.07577 3.44846 8.74846C2.84038 8.73692 2.24385 8.56038 1.73846 8.28231C1.73846 8.29385 1.73846 8.30885 1.73846 8.32385C1.73846 10.1631 3.05038 11.6908 4.77077 12.0427C4.46269 12.1269 4.12692 12.1673 3.77846 12.1673C3.53615 12.1673 3.29154 12.1535 3.06192 12.1027C3.55231 13.6015 4.94385 14.7035 6.59846 14.7392C5.31077 15.7465 3.67577 16.3535 1.90577 16.3535C1.59538 16.3535 1.29769 16.3396 1 16.3015C2.67654 17.3827 4.66346 18 6.80615 18C13.7708 18 17.5785 12.2308 17.5785 7.23C17.5785 7.06269 17.5727 6.90115 17.5646 6.74077C18.3158 6.20769 18.9469 5.54192 19.4615 4.77577Z" fill="white"/>
</svg>
