<svg width="20" height="20" viewBox="0 0 20 20" fill="none" xmlns="http://www.w3.org/2000/svg">
<path d="M16.5964 10.8811C16.2731 10.4611 16.3656 10.2743 16.5964 9.89886C16.6006 9.89457 19.2698 6.10086 19.5448 4.81429L19.5465 4.81343C19.6832 4.34457 19.5465 4 18.8857 4H16.6989C16.1422 4 15.8856 4.29571 15.748 4.62657C15.748 4.62657 14.6347 7.36771 13.0596 9.14457C12.5513 9.658 12.3163 9.82257 12.0388 9.82257C11.9021 9.82257 11.6896 9.658 11.6896 9.18914V4.81343C11.6896 4.25114 11.5337 4 11.0729 4H7.63443C7.28525 4 7.07775 4.26229 7.07775 4.50657C7.07775 5.03971 7.86527 5.16229 7.94694 6.66229V9.91686C7.94694 10.63 7.8211 10.7611 7.54193 10.7611C6.79857 10.7611 4.99434 8.00886 3.92514 4.85886C3.7093 4.24771 3.49845 4.00086 2.9376 4.00086H0.750026C0.125838 4.00086 0 4.29657 0 4.62743C0 5.212 0.743359 8.11857 3.45679 11.9586C5.26518 14.5797 7.81194 16 10.1287 16C11.5212 16 11.6912 15.6846 11.6912 15.142C11.6912 12.6374 11.5654 12.4009 12.2629 12.4009C12.5863 12.4009 13.143 12.5654 14.443 13.8297C15.9289 15.3289 16.1731 16 17.0048 16H19.1915C19.8149 16 20.1307 15.6846 19.949 15.0623C19.5332 13.7534 16.7231 11.0611 16.5964 10.8811V10.8811Z" fill="white"/>
</svg>
