<svg width="1110" height="366" viewBox="0 0 1110 366" fill="none" xmlns="http://www.w3.org/2000/svg">
<g clip-path="url(#clip0)">
<rect width="1110" height="366" rx="24" fill="url(#paint0_radial)"/>
<path opacity="0.6" d="M591 334C611.745 298.5 659.889 237.181 686.5 275.909C713.111 314.636 761.255 283.439 782 263" stroke="white" stroke-width="2" stroke-linecap="round" stroke-linejoin="round" stroke-dasharray="4 4"/>
<path opacity="0.6" d="M971.862 40.2092C954.376 39.2466 920.858 41.1168 926.668 56.2979C933.931 75.2743 1003.34 38.9715 977.108 59.598C956.125 76.0993 968.365 84.0749 977.108 86" stroke="white" stroke-width="2" stroke-linecap="round" stroke-linejoin="round" stroke-dasharray="4 4"/>
<path opacity="0.3" fill-rule="evenodd" clip-rule="evenodd" d="M987.111 612.166C970.349 620.076 950.041 613.93 940.607 597.59L801 355.784C791.059 338.565 796.958 316.548 814.177 306.607L1055.98 167C1073.2 157.059 1095.22 162.958 1105.16 180.177L1244.77 421.983C1254.71 439.202 1248.81 461.219 1231.59 471.16L1226.7 473.984C1224.17 482.501 1218.5 490.103 1210.19 494.897L1013.65 608.371C1005.29 613.197 995.802 614.289 987.111 612.166ZM1056.98 168.732L815.177 308.339C798.915 317.728 793.343 338.522 802.732 354.784L942.339 596.59C950.846 611.324 968.715 617.283 984.094 611.289C981.116 610.28 978.264 608.883 975.623 607.118C966.556 604.804 958.394 598.979 953.345 590.235L828.447 373.906C818.506 356.687 824.406 334.67 841.624 324.729L1057.95 199.831C1075.17 189.89 1097.19 195.789 1107.13 213.008L1232.03 429.338C1239.89 442.957 1237.84 459.579 1228.12 470.852L1230.59 469.428C1246.85 460.039 1252.42 439.245 1243.03 422.983L1103.43 181.177C1094.04 164.915 1073.25 159.343 1056.98 168.732ZM981.499 608.111C983.243 608.908 985.05 609.555 986.897 610.048C987.532 609.732 988.161 609.394 988.784 609.035L991.25 607.611C988.008 608.228 984.728 608.386 981.499 608.111ZM1224.09 475.489C1221.44 482.685 1216.35 489.03 1209.19 493.165L1012.65 606.639C1005.49 610.773 997.451 612.006 989.894 610.704L1224.09 475.489ZM1225.44 470.831C1223.26 473.112 1220.72 475.125 1217.85 476.782L1001.52 601.68C993.626 606.239 984.661 607.271 976.452 605.264C972.373 602.478 968.841 598.757 966.206 594.194L852.732 397.651C843.343 381.389 848.915 360.595 865.177 351.206L1061.72 237.732C1077.98 228.343 1098.78 233.915 1108.16 250.177L1221.64 446.72C1226.02 454.31 1227.14 462.887 1225.44 470.831ZM1227.95 467.881C1228.82 460.454 1227.4 452.693 1223.37 445.72L1109.9 249.177C1099.96 231.959 1077.94 226.059 1060.72 236L864.177 349.474C846.958 359.415 841.059 381.432 851 398.651L964.474 595.194C966.279 598.319 968.481 601.072 970.981 603.425C964.52 600.626 958.869 595.802 955.077 589.235L830.179 372.906C820.791 356.644 826.362 335.85 842.624 326.461L1058.95 201.563C1075.22 192.174 1096.01 197.746 1105.4 214.008L1230.3 430.338C1237.34 442.546 1235.96 457.308 1227.95 467.881Z" fill="white"/>
<path opacity="0.2" fill-rule="evenodd" clip-rule="evenodd" d="M-0.0748831 414.375L37.8798 332.354C38.3436 331.352 37.907 330.163 36.9046 329.699L8.60962 316.606C7.60718 316.142 7.17058 314.953 7.63446 313.951L16.9523 293.815C17.4162 292.813 18.6049 292.376 19.6073 292.84L105.341 332.513C106.344 332.977 106.78 334.166 106.316 335.168L96.9984 355.304C96.5346 356.306 95.3459 356.743 94.3434 356.279L66.0485 343.186C65.046 342.722 63.8573 343.158 63.3935 344.161L25.4388 426.181L-0.0748831 414.375ZM62.7402 342.382C63.2041 341.38 64.3928 340.943 65.3952 341.407L93.6902 354.501C94.6927 354.965 95.8814 354.528 96.3452 353.525L104.538 335.821C105.002 334.819 104.565 333.63 103.563 333.166L20.2605 294.618C19.2581 294.155 18.0694 294.591 17.6055 295.594L9.41292 313.298C8.94904 314.3 9.38564 315.489 10.3881 315.953L38.6831 329.046C39.6855 329.51 40.1221 330.699 39.6582 331.701L1.70358 413.722L24.7856 424.403L62.7402 342.382Z" fill="white"/>
<g opacity="0.4">
<path fill-rule="evenodd" clip-rule="evenodd" d="M474.109 282.729C484.495 286.488 489.868 297.955 486.11 308.341L428.726 466.914L374.744 447.38L432.128 288.806C435.886 278.42 447.353 273.047 457.74 276.806L474.109 282.729ZM376.386 450.883L425.223 468.556L482.606 309.983C486.365 299.596 480.992 288.129 470.605 284.371L459.381 280.309C448.995 276.55 437.528 281.923 433.769 292.31L376.386 450.883Z" fill="white"/>
<path fill-rule="evenodd" clip-rule="evenodd" d="M345.286 301.845C353.097 294.035 365.76 294.035 373.571 301.845L575.884 504.159L535.29 544.752L332.977 342.439C325.167 334.628 325.167 321.965 332.977 314.155L345.286 301.845ZM540.364 545.957L577.089 509.232L373.867 305.733C366.058 297.914 353.387 297.91 345.573 305.724L337.133 314.164C329.326 321.971 329.322 334.627 337.123 342.439L540.364 545.957Z" fill="white"/>
</g>
<path opacity="0.2" fill-rule="evenodd" clip-rule="evenodd" d="M777.925 14.3748L815.88 -67.6455C816.344 -68.648 815.907 -69.8367 814.905 -70.3005L786.61 -83.3939C785.607 -83.8578 785.171 -85.0465 785.634 -86.049L794.952 -106.185C795.416 -107.187 796.605 -107.624 797.607 -107.16L883.341 -67.487C884.344 -67.0232 884.78 -65.8345 884.316 -64.832L874.998 -44.6961C874.535 -43.6936 873.346 -43.257 872.343 -43.7209L844.048 -56.8143C843.046 -57.2782 841.857 -56.8416 841.393 -55.8391L803.439 26.1812L777.925 14.3748ZM840.74 -57.6176C841.204 -58.6201 842.393 -59.0566 843.395 -58.5928L871.69 -45.4994C872.693 -45.0355 873.881 -45.4721 874.345 -46.4745L882.538 -64.1788C883.002 -65.1813 882.565 -66.3699 881.563 -66.8338L798.261 -105.382C797.258 -105.845 796.069 -105.409 795.606 -104.406L787.413 -86.7022C786.949 -85.6997 787.386 -84.511 788.388 -84.0472L816.683 -70.9538C817.685 -70.4899 818.122 -69.3012 817.658 -68.2987L779.704 13.7216L802.786 24.4027L840.74 -57.6176Z" fill="white"/>
</g>
<defs>
<radialGradient id="paint0_radial" cx="0" cy="0" r="1" gradientUnits="userSpaceOnUse" gradientTransform="translate(2.48863e-05 103.891) rotate(14.0034) scale(1083.19 450.572)">
<stop stop-color="#6CB3FA"/>
<stop offset="0.711035" stop-color="#067DFF"/>
</radialGradient>
<clipPath id="clip0">
<rect width="1110" height="366" rx="24" fill="white"/>
</clipPath>
</defs>
</svg>
