<svg width="91" height="182" viewBox="0 0 91 182" fill="none" xmlns="http://www.w3.org/2000/svg">
<g opacity="0.2">
<circle cx="8.25824" cy="68.7133" r="6.04545" transform="rotate(-30 8.25824 68.7133)" fill="white"/>
<circle cx="20.3491" cy="89.6552" r="6.04545" transform="rotate(-30 20.3491 89.6552)" fill="white"/>
<circle cx="32.4399" cy="110.597" r="6.04545" transform="rotate(-30 32.4399 110.597)" fill="white"/>
<circle cx="44.5307" cy="131.539" r="6.04545" transform="rotate(-30 44.5307 131.539)" fill="white"/>
<circle cx="56.6215" cy="152.481" r="6.04545" transform="rotate(-30 56.6215 152.481)" fill="white"/>
<circle cx="68.7133" cy="173.424" r="6.04545" transform="rotate(-30 68.7133 173.424)" fill="white"/>
<circle cx="71.0844" cy="32.4408" r="6.04545" transform="rotate(-30 71.0844 32.4408)" fill="white"/>
<circle cx="83.1752" cy="53.3827" r="6.04545" transform="rotate(-30 83.1752 53.3827)" fill="white"/>
<circle cx="95.2661" cy="74.3246" r="6.04545" transform="rotate(-30 95.2661 74.3246)" fill="white"/>
<circle cx="29.2006" cy="56.6225" r="6.04545" transform="rotate(-30 29.2006 56.6225)" fill="white"/>
<circle cx="41.2914" cy="77.5644" r="6.04545" transform="rotate(-30 41.2914 77.5644)" fill="white"/>
<circle cx="53.3823" cy="98.5062" r="6.04545" transform="rotate(-30 53.3823 98.5062)" fill="white"/>
<circle cx="65.4731" cy="119.448" r="6.04545" transform="rotate(-30 65.4731 119.448)" fill="white"/>
<circle cx="77.5639" cy="140.39" r="6.04545" transform="rotate(-30 77.5639 140.39)" fill="white"/>
<circle cx="89.6547" cy="161.333" r="6.04545" transform="rotate(-30 89.6547 161.333)" fill="white"/>
<circle cx="92.0258" cy="20.35" r="6.04545" transform="rotate(-30 92.0258 20.35)" fill="white"/>
<circle cx="50.142" cy="44.5316" r="6.04545" transform="rotate(-30 50.142 44.5316)" fill="white"/>
<circle cx="62.2328" cy="65.4735" r="6.04545" transform="rotate(-30 62.2328 65.4735)" fill="white"/>
<circle cx="74.3237" cy="86.4154" r="6.04545" transform="rotate(-30 74.3237 86.4154)" fill="white"/>
<circle cx="86.4145" cy="107.357" r="6.04545" transform="rotate(-30 86.4145 107.357)" fill="white"/>
<circle cx="98.5053" cy="128.299" r="6.04545" transform="rotate(-30 98.5053 128.299)" fill="white"/>
</g>
</svg>
