<svg width="50" height="51" viewBox="0 0 50 51" fill="none" xmlns="http://www.w3.org/2000/svg">
<path fill-rule="evenodd" clip-rule="evenodd" d="M25 50.5C38.8071 50.5 50 39.3071 50 25.5C50 11.6929 38.8071 0.5 25 0.5C11.1929 0.5 0 11.6929 0 25.5C0 39.3071 11.1929 50.5 25 50.5ZM21.8202 30.0589V30.4273H27.4971V29.9852C27.4971 29.5185 27.5929 29.1255 27.7846 28.8062C27.9762 28.4623 28.3475 28.0816 28.8984 27.664L30.3715 26.5587C31.4734 25.699 32.3357 24.7779 32.9585 23.7953C33.6052 22.7883 33.9286 21.5601 33.9286 20.1109C33.9286 17.8512 33.1501 16.1072 31.5931 14.8791C30.0601 13.6264 28.0241 13 25.4851 13C22.3951 13 20.0477 13.7737 18.4428 15.3212C16.8619 16.8686 16.0714 18.8705 16.0714 21.3268H21.8202C21.8202 20.0495 22.1316 19.0916 22.7544 18.4529C23.4011 17.8143 24.2515 17.495 25.3054 17.495C26.1438 17.495 26.8145 17.7529 27.3175 18.2687C27.8444 18.7845 28.1079 19.4846 28.1079 20.3688C28.1079 21.7689 27.4372 22.9234 26.0959 23.8322L24.4072 24.9744C23.3772 25.6867 22.6825 26.4113 22.3232 27.1482C21.9879 27.885 21.8202 28.8553 21.8202 30.0589ZM21.9999 38.6804C22.7185 39.4173 23.6047 39.7857 24.6587 39.7857C25.6887 39.7857 26.563 39.4173 27.2815 38.6804C28.0241 37.9189 28.3954 37.0224 28.3954 35.9908C28.3954 34.9591 28.0241 34.0749 27.2815 33.338C26.563 32.6011 25.6887 32.2327 24.6587 32.2327C23.6047 32.2327 22.7185 32.6011 21.9999 33.338C21.2813 34.0749 20.922 34.9591 20.922 35.9908C20.922 37.0224 21.2813 37.9189 21.9999 38.6804Z" fill="url(#paint0_linear)"/>
<defs>
<linearGradient id="paint0_linear" x1="25" y1="0.5" x2="25" y2="50.5" gradientUnits="userSpaceOnUse">
<stop stop-color="#3A9FFF"/>
<stop offset="1" stop-color="#0082FF"/>
</linearGradient>
</defs>
</svg>
