<svg width="51" height="58" viewBox="0 0 51 58" fill="none" xmlns="http://www.w3.org/2000/svg">
<path d="M41.9791 7.16313C41.7499 7.1637 41.5246 7.10361 41.327 6.98913C35.8865 4.11813 31.1827 2.90014 25.5436 2.90014C19.9327 2.90014 14.6049 4.26313 9.75898 6.98913C9.07371 7.37096 8.22907 7.10513 7.83188 6.4043C7.65459 6.06603 7.6146 5.67394 7.72002 5.30766C7.82544 4.94138 8.06838 4.6284 8.39946 4.4323C13.6259 1.51053 19.5351 -0.0171328 25.5436 0.000144945C31.5787 0.000144945 36.85 1.36314 42.6313 4.40813C42.9686 4.59094 43.2198 4.89677 43.3309 5.26002C43.4421 5.62326 43.4044 6.01498 43.2259 6.35113C43.1186 6.58979 42.9441 6.79312 42.7231 6.93704C42.5022 7.08095 42.244 7.15941 41.9791 7.16313ZM1.42781 22.3881C1.13337 22.386 0.846676 22.2949 0.60646 22.1271C0.293928 21.8982 0.0837397 21.5586 0.0201695 21.1799C-0.0434007 20.8013 0.0446094 20.4131 0.265662 20.0971C3.07173 16.0371 6.64031 12.8471 10.8929 10.6141C19.7905 5.92096 31.1827 5.88713 40.1084 10.5851C44.3598 12.8181 47.9296 15.9791 50.7357 20.0101C50.9558 20.3264 51.0433 20.7143 50.9798 21.0927C50.9163 21.4711 50.7067 21.8106 50.3949 22.0401C50.2436 22.1515 50.0708 22.2312 49.887 22.2741C49.7033 22.3171 49.5126 22.3224 49.3266 22.2898C49.1407 22.2572 48.9636 22.1873 48.8061 22.0845C48.6487 21.9817 48.5144 21.8481 48.4114 21.6921C45.8615 18.0381 42.6313 15.1671 38.8053 13.1661C30.6727 8.90312 20.2722 8.90312 12.1679 13.1951C8.31365 15.2251 5.08342 18.1251 2.53356 21.7743C2.42361 21.9663 2.26245 22.125 2.06754 22.2332C1.87263 22.3414 1.6514 22.395 1.42781 22.3881ZM19.1383 57.3958C18.951 57.3976 18.7655 57.3597 18.5944 57.2846C18.4233 57.2096 18.2706 57.0992 18.1465 56.9608C15.6813 54.433 14.345 52.8042 12.451 49.3C10.4896 45.733 9.4758 41.383 9.4758 36.7141C9.4758 28.1011 16.673 21.0831 25.5154 21.0831C34.3578 21.0831 41.5599 28.1011 41.5599 36.7141C41.5655 36.9009 41.533 37.0869 41.4643 37.2611C41.3956 37.4353 41.2921 37.5941 41.1601 37.7282C41.028 37.8623 40.8699 37.9689 40.6953 38.0417C40.5207 38.1145 40.333 38.152 40.1434 38.152C39.9538 38.152 39.7661 38.1145 39.5914 38.0417C39.4168 37.9689 39.2588 37.8623 39.1267 37.7282C38.9946 37.5941 38.8911 37.4353 38.8225 37.2611C38.7538 37.0869 38.7213 36.9009 38.7268 36.7141C38.7268 29.6961 32.8033 23.9831 25.5215 23.9831C18.2397 23.9831 12.3101 29.6961 12.3101 36.7141C12.3101 40.89 13.216 44.747 14.9445 47.879C16.7588 51.214 18.0092 52.635 20.1877 54.897C20.446 55.1785 20.5891 55.5445 20.5891 55.9241C20.5891 56.3037 20.446 56.6697 20.1877 56.9512C19.9095 57.2278 19.5333 57.3872 19.1383 57.3958ZM39.4575 52.0308C36.085 52.0308 33.1098 51.1608 30.6727 49.4499C28.5964 48.0154 26.9002 46.1102 25.7268 43.8946C24.5534 41.6791 23.9373 39.2181 23.9303 36.7189C23.9224 36.5306 23.9531 36.3426 24.0208 36.1663C24.0884 35.99 24.1915 35.829 24.3239 35.693C24.4563 35.557 24.6152 35.4487 24.7911 35.3748C24.967 35.3008 25.1562 35.2627 25.3474 35.2627C25.5387 35.2627 25.7279 35.3008 25.9038 35.3748C26.0797 35.4487 26.2386 35.557 26.371 35.693C26.5034 35.829 26.6065 35.99 26.6741 36.1663C26.7418 36.3426 26.7725 36.5306 26.7646 36.7189C26.7693 38.7489 27.2716 40.7477 28.2287 42.5452C29.1858 44.3428 30.5693 45.8857 32.2615 47.0429C34.2732 48.4349 36.6257 49.097 39.4599 49.097C40.447 49.0797 41.431 48.9827 42.4021 48.807C43.167 48.662 43.9038 49.184 44.0448 49.996C44.1166 50.3708 44.0347 50.7583 43.8171 51.0736C43.5995 51.3889 43.2638 51.6063 42.8839 51.678C41.755 51.8978 40.608 52.0143 39.4575 52.026V52.0308ZM33.7608 58C33.6363 57.9949 33.5129 57.9754 33.393 57.942C28.8866 56.666 25.9396 54.955 22.8503 51.852C18.8821 47.821 16.7012 42.456 16.7012 36.7141C16.7012 32.0161 20.6118 28.1881 25.4284 28.1881C30.2449 28.1881 34.1567 32.0161 34.1567 36.7141C34.1567 39.817 36.7924 42.34 40.0508 42.34C43.3092 42.34 45.9449 39.817 45.9449 36.7141C45.9449 25.7811 36.7348 16.9071 25.4002 16.9071C17.3522 16.9071 9.98455 21.4891 6.66973 28.5941C5.56642 30.9431 4.99761 33.6981 4.99761 36.7141C4.99761 38.976 5.19498 42.543 6.89529 47.183C7.1797 47.937 6.81071 48.778 6.07395 49.039C5.89885 49.1047 5.71208 49.1349 5.52487 49.1277C5.33765 49.1205 5.15384 49.076 4.98449 48.997C4.81514 48.918 4.66374 48.8061 4.53939 48.6679C4.41503 48.5298 4.32029 48.3683 4.26085 48.1932C2.89357 44.516 2.19313 40.6304 2.19154 36.7141C2.19154 33.2341 2.84372 30.0682 4.11864 27.3181C7.88827 19.2223 16.2476 13.9781 25.4002 13.9781C38.2941 13.9781 48.7792 24.1571 48.7792 36.6851C48.7792 41.383 44.8686 45.211 40.0508 45.211C35.2331 45.211 31.3224 41.383 31.3224 36.6851C31.3237 33.5821 28.688 31.0542 25.4296 31.0542C22.1712 31.0542 19.5355 33.5772 19.5355 36.6802C19.5355 41.6344 21.4062 46.2792 24.835 49.7592C27.532 52.4852 30.1064 53.9883 34.1016 55.1242C34.8665 55.3272 35.2919 56.1392 35.0933 56.8932C35.0314 57.1992 34.8658 57.4755 34.6237 57.6766C34.3816 57.8777 34.0773 57.9918 33.7608 58Z" fill="url(#paint0_linear)"/>
<defs>
<linearGradient id="paint0_linear" x1="3.85714" y1="8.21667" x2="41.5033" y2="10.9028" gradientUnits="userSpaceOnUse">
<stop stop-color="#408BE1"/>
<stop offset="1" stop-color="#CE44FF"/>
</linearGradient>
</defs>
</svg>
