<?xml version="1.0" encoding="UTF-8"?>
<svg width="280px" height="280px" viewBox="0 0 280 280" version="1.1" xmlns="http://www.w3.org/2000/svg" xmlns:xlink="http://www.w3.org/1999/xlink">
    <!-- Generator: Sketch 63.1 (92452) - https://sketch.com -->
    <title>Group 7</title>
    <desc>Created with Sketch.</desc>
    <defs>
        <circle id="path-1" cx="113" cy="113" r="113"></circle>
    </defs>
    <g id="Typing-School-2.5.4" stroke="none" stroke-width="1" fill="none" fill-rule="evenodd">
        <g id="Goal-1" transform="translate(-669.000000, -198.000000)">
            <g id="Group-7" transform="translate(668.976010, 198.000000)">
                <g id="Group-2" fill="#9DD7FF">
                    <circle id="Oval" opacity="0.200000003" cx="140.52399" cy="139.5" r="125.5"></circle>
                    <circle id="Oval-Copy" opacity="0.209999993" cx="140.02399" cy="140" r="140"></circle>
                </g>
                <g id="goal" transform="translate(27.023990, 27.000000)">
                    <g id="Mask" fill="#D5E2FE" fill-rule="nonzero">
                        <circle id="path-1" cx="113" cy="113" r="113"></circle>
                    </g>
                    <g id="Group-21-Clipped">
                        <mask id="mask-2" fill="white">
                            <use xlink:href="#path-1"></use>
                        </mask>
                        <use id="path-1" fill="#9DD7FF" xlink:href="#path-1"></use>
                        <g id="Group-21" mask="url(#mask-2)">
                            <g transform="translate(-16.534483, 79.879310)" id="Path">
                                <g>
                                    <path d="M44.1176881,157.810345 C42.9388744,153.292793 43.76862,148.441699 46.5388929,144.510167 L76.0598542,102.611602 L59.4054156,79.6056058 C58.5975375,78.4892249 57.3591958,77.9310345 56.1208543,77.9310345 C54.8825127,77.9310345 53.6441712,78.4892249 52.835888,79.6056058 L0.849029778,151.41858 C-1.08218373,154.086118 0.832021817,157.810345 4.133996,157.810345 L44.1176881,157.810345 Z" fill="#245DF4" fill-rule="nonzero"></path>
                                    <path d="M135.824702,44.8103448 L135.824702,33.7632277 L162.033947,33.7632277 C163.176041,33.7632277 164.228605,33.1398741 164.783192,32.1352071 C165.33778,31.1305401 165.307587,29.9017695 164.704355,28.9258014 L159.21509,20.0469164 L164.704355,11.1680316 C165.307797,10.1920633 165.33799,8.96350391 164.783192,7.95862583 C164.228395,6.95374777 163.176251,6.3306052 162.033947,6.3306052 L135.824702,6.3306052 L135.824702,3.1653026 C135.824702,1.41721148 134.416531,0 132.679592,0 C130.942653,0 129.534483,1.41721148 129.534483,3.1653026 L129.534483,44.8103448 C131.332018,42.8240119 133.985651,42.7841292 135.824702,44.8103448 Z" fill="#FFFFFF" fill-rule="nonzero"></path>
                                    <path d="M162.571783,91.5689655 L148.22936,105.140584 C147.075814,106.232091 145.605042,106.778047 144.13387,106.778047 C142.662699,106.778047 141.191927,106.232091 140.038381,105.140584 L129.635638,95.2970925 L119.234897,105.140178 C116.927405,107.324004 113.351011,107.324004 111.043518,105.140178 L96.7030975,91.5689655 L55.3624872,151.405322 C53.4999908,154.101339 55.3985355,157.810345 58.6412819,157.810345 L106.423726,157.810345 L200.6336,157.810345 C203.876345,157.810345 205.774889,154.101339 203.912394,151.405322 L162.571783,91.5689655 Z" fill="#245DF4" fill-rule="nonzero"></path>
                                    <path d="M116.958875,93.5172414 L127.451763,83.8060857 C129.779385,81.6520201 133.387603,81.6516187 135.715629,83.8056843 L146.211345,93.5172414 L157.88744,82.958828 L134.893687,50.4150581 C134.089122,49.2764175 132.837621,48.7068966 131.585716,48.7068966 C130.334215,48.7068966 129.08231,49.2764175 128.277745,50.4150581 L105.283992,82.958828 L116.958875,93.5172414 Z" fill="#5D95FF" fill-rule="nonzero"></path>
                                </g>
                            </g>
                        </g>
                    </g>
                </g>
            </g>
        </g>
    </g>
</svg>