<svg width="288" height="175" viewBox="0 0 288 175" fill="none" xmlns="http://www.w3.org/2000/svg">
<g filter="url(#filter0_f)">
<ellipse cx="143.5" cy="117.5" rx="71.5" ry="3.5" fill="#323126"/>
</g>
<path d="M55 54.2941C55 46.3997 61.3997 40 69.2941 40H219.382C227.277 40 233.676 46.3997 233.676 54.2941V106.706C233.676 114.6 227.277 121 219.382 121H69.2941C61.3997 121 55 114.6 55 106.706V54.2941Z" fill="url(#paint0_linear)" fill-opacity="0.8"/>
<path fill-rule="evenodd" clip-rule="evenodd" d="M219.382 42.7H69.2941C62.8909 42.7 57.7 47.8909 57.7 54.2941V106.706C57.7 113.109 62.8909 118.3 69.2941 118.3H219.382C225.786 118.3 230.976 113.109 230.976 106.706V54.2941C230.976 47.8909 225.786 42.7 219.382 42.7ZM69.2941 40C61.3997 40 55 46.3997 55 54.2941V106.706C55 114.6 61.3997 121 69.2941 121H219.382C227.277 121 233.676 114.6 233.676 106.706V54.2941C233.676 46.3997 227.277 40 219.382 40H69.2941Z" fill="url(#paint1_linear)" fill-opacity="0.24"/>
<path d="M143.689 95.2489C140.262 95.2489 137.49 93.9511 135.373 91.3555C133.257 88.7347 132.198 85.4713 132.198 81.5653C132.198 77.7097 133.269 74.4715 135.411 71.8507C137.578 69.2047 140.363 67.8817 143.765 67.8817C147.167 67.8817 149.926 69.1921 152.043 71.8129C154.185 74.4337 155.256 77.6845 155.256 81.5653C155.256 85.4209 154.173 88.6717 152.005 91.3177C149.863 93.9385 147.091 95.2489 143.689 95.2489ZM138.851 88.3315C140.111 90.1459 141.749 91.0531 143.765 91.0531C145.781 91.0531 147.394 90.1585 148.603 88.3693C149.838 86.5549 150.456 84.2869 150.456 81.5653C150.456 78.8941 149.826 76.6513 148.566 74.8369C147.306 72.9973 145.68 72.0775 143.689 72.0775C141.673 72.0775 140.048 72.9847 138.813 74.7991C137.604 76.5883 136.999 78.8437 136.999 81.5653C136.999 84.2365 137.616 86.4919 138.851 88.3315Z" fill="url(#paint2_linear)"/>
<path d="M154.907 99.6337L171.993 64.6309H175.962L158.876 99.6337H154.907Z" fill="url(#paint3_linear)"/>
<path d="M186.101 95.2489C182.397 95.2489 179.158 93.9007 176.386 91.2043L179.259 87.8401C181.527 89.9569 183.795 91.0153 186.063 91.0153C187.651 91.0153 188.923 90.5995 189.881 89.7679C190.839 88.9111 191.317 87.7771 191.317 86.3659C191.317 85.0303 190.801 83.9719 189.768 83.1907C188.76 82.3843 187.449 81.9811 185.836 81.9811C184.249 81.9811 182.623 82.3717 180.96 83.1529L178.163 81.3007L178.919 68.3353H194.719V72.4555H182.926L182.51 78.6547C183.896 78.1507 185.295 77.8987 186.706 77.8987C189.402 77.8987 191.607 78.6169 193.321 80.0533C195.034 81.4897 195.891 83.5687 195.891 86.2903C195.891 88.9867 194.984 91.1539 193.17 92.7919C191.38 94.4299 189.024 95.2489 186.101 95.2489Z" fill="url(#paint4_linear)"/>
<path fill-rule="evenodd" clip-rule="evenodd" d="M101.153 64.8619C100.369 63.4777 98.3316 63.4777 97.5471 64.8619L81.4669 93.235C80.7064 94.577 81.6998 96.2237 83.2699 96.2237H115.43C117 96.2237 117.994 94.577 117.233 93.235L101.153 64.8619ZM100.562 74.5163H98.1396C97.9923 74.5163 97.875 74.6367 97.8823 74.7804L98.4186 85.351C98.4254 85.485 98.5386 85.5902 98.6759 85.5902H100.074C100.212 85.5902 100.326 85.4843 100.332 85.3499L100.819 74.7793C100.826 74.636 100.709 74.5163 100.562 74.5163ZM100.703 90.2462C100.703 90.9412 100.126 91.5046 99.4146 91.5046C98.7032 91.5046 98.1265 90.9412 98.1265 90.2462C98.1265 89.5512 98.7032 88.9878 99.4146 88.9878C100.126 88.9878 100.703 89.5512 100.703 90.2462Z" fill="url(#paint5_radial)"/>
<defs>
<filter id="filter0_f" x="18" y="60" width="251" height="115" filterUnits="userSpaceOnUse" color-interpolation-filters="sRGB">
<feFlood flood-opacity="0" result="BackgroundImageFix"/>
<feBlend mode="normal" in="SourceGraphic" in2="BackgroundImageFix" result="shape"/>
<feGaussianBlur stdDeviation="27" result="effect1_foregroundBlur"/>
</filter>
<linearGradient id="paint0_linear" x1="144.338" y1="40" x2="144.338" y2="121" gradientUnits="userSpaceOnUse">
<stop stop-color="#FFF284"/>
<stop offset="1" stop-color="#FAE642"/>
</linearGradient>
<linearGradient id="paint1_linear" x1="144.338" y1="40" x2="144.338" y2="121" gradientUnits="userSpaceOnUse">
<stop stop-color="#656565"/>
<stop offset="1" stop-color="#1D1D1D"/>
</linearGradient>
<linearGradient id="paint2_linear" x1="165.144" y1="66.2059" x2="165.144" y2="101.306" gradientUnits="userSpaceOnUse">
<stop stop-color="#1D1D1D" stop-opacity="0.62"/>
<stop offset="1" stop-color="#1D1D1D"/>
</linearGradient>
<linearGradient id="paint3_linear" x1="165.144" y1="66.2059" x2="165.144" y2="101.306" gradientUnits="userSpaceOnUse">
<stop stop-color="#1D1D1D" stop-opacity="0.62"/>
<stop offset="1" stop-color="#1D1D1D"/>
</linearGradient>
<linearGradient id="paint4_linear" x1="165.144" y1="66.2059" x2="165.144" y2="101.306" gradientUnits="userSpaceOnUse">
<stop stop-color="#1D1D1D" stop-opacity="0.62"/>
<stop offset="1" stop-color="#1D1D1D"/>
</linearGradient>
<radialGradient id="paint5_radial" cx="0" cy="0" r="1" gradientUnits="userSpaceOnUse" gradientTransform="translate(99 65.9995) rotate(89.3364) scale(30.2262 27.3924)">
<stop offset="0.305061" stop-color="#C6B956"/>
<stop offset="1" stop-color="#B3A541"/>
</radialGradient>
</defs>
</svg>
