<svg width="374" height="229" viewBox="0 0 374 229" fill="none" xmlns="http://www.w3.org/2000/svg">
<path d="M70.462 222.88C43.39 222.88 21.406 212.8 4.51003 192.64L32.446 161.536C44.734 174.976 57.022 181.696 69.31 181.696C87.358 181.696 96.382 170.56 96.382 148.288V18.4H141.886V150.304C141.886 173.536 135.55 191.488 122.878 204.16C110.398 216.64 92.926 222.88 70.462 222.88ZM258.945 222.88C225.921 222.88 197.409 212.128 173.409 190.624L199.617 159.232C219.393 175.552 239.457 183.712 259.809 183.712C268.833 183.712 275.937 181.984 281.121 178.528C286.305 175.072 288.897 170.272 288.897 164.128C288.897 158.368 286.209 153.76 280.833 150.304C275.457 146.656 264.609 142.72 248.289 138.496C236.769 135.616 227.457 132.832 220.353 130.144C213.249 127.264 206.433 123.52 199.905 118.912C193.569 114.304 188.865 108.544 185.793 101.632C182.913 94.528 181.473 86.08 181.473 76.288C181.473 58.048 188.001 43.36 201.057 32.224C214.305 21.088 231.297 15.52 252.033 15.52C280.641 15.52 305.601 24.064 326.913 41.152L303.873 74.56C284.865 61.312 267.393 54.688 251.457 54.688C243.201 54.688 236.769 56.416 232.161 59.872C227.745 63.136 225.537 67.456 225.537 72.832C225.537 79.36 228.321 84.256 233.889 87.52C239.457 90.784 251.169 94.72 269.025 99.328C290.913 105.088 307.041 112.48 317.409 121.504C327.777 130.528 332.961 143.488 332.961 160.384C332.961 179.968 326.145 195.328 312.513 206.464C299.073 217.408 281.217 222.88 258.945 222.88Z" fill="#E8E9E8"/>
<path d="M4.51003 192.64L3.02207 191.304L1.8625 192.595L2.97718 193.925L4.51003 192.64ZM32.446 161.536L33.9221 160.186L32.4328 158.558L30.9581 160.2L32.446 161.536ZM96.382 18.4V16.4H94.382V18.4H96.382ZM141.886 18.4H143.886V16.4H141.886V18.4ZM122.878 204.16L121.464 202.746L122.878 204.16ZM70.462 220.88C43.9617 220.88 22.5463 211.047 6.04287 191.355L2.97718 193.925C20.2658 214.553 42.8183 224.88 70.462 224.88V220.88ZM5.99798 193.976L33.934 162.872L30.9581 160.2L3.02207 191.304L5.99798 193.976ZM30.97 162.886C43.453 176.539 56.2361 183.696 69.31 183.696V179.696C57.8079 179.696 46.0151 173.413 33.9221 160.186L30.97 162.886ZM69.31 183.696C78.7666 183.696 86.1804 180.758 91.1679 174.603C96.0902 168.529 98.382 159.642 98.382 148.288H94.382C94.382 159.206 92.1618 167.023 88.0602 172.085C84.0237 177.066 77.9014 179.696 69.31 179.696V183.696ZM98.382 148.288V18.4H94.382V148.288H98.382ZM96.382 20.4H141.886V16.4H96.382V20.4ZM139.886 18.4V150.304H143.886V18.4H139.886ZM139.886 150.304C139.886 173.17 133.659 190.551 121.464 202.746L124.292 205.574C137.441 192.425 143.886 173.902 143.886 150.304H139.886ZM121.464 202.746C109.454 214.755 92.5475 220.88 70.462 220.88V224.88C93.3046 224.88 111.342 218.525 124.292 205.574L121.464 202.746ZM173.409 190.624L171.873 189.342L170.636 190.825L172.074 192.114L173.409 190.624ZM199.617 159.232L200.89 157.689L199.356 156.424L198.081 157.95L199.617 159.232ZM281.121 178.528L282.23 180.192L281.121 178.528ZM280.833 150.304L279.71 151.959L279.73 151.973L279.751 151.986L280.833 150.304ZM248.289 138.496L248.79 136.56L248.782 136.558L248.774 136.556L248.289 138.496ZM220.353 130.144L219.601 131.997L219.623 132.006L219.645 132.015L220.353 130.144ZM199.905 118.912L198.728 120.529L198.74 120.538L198.751 120.546L199.905 118.912ZM185.793 101.632L183.939 102.383L183.951 102.414L183.965 102.444L185.793 101.632ZM201.057 32.224L199.77 30.693L199.764 30.6977L199.759 30.7023L201.057 32.224ZM326.913 41.152L328.559 42.2874L329.615 40.7556L328.164 39.5916L326.913 41.152ZM303.873 74.56L302.729 76.2008L304.378 77.35L305.519 75.6955L303.873 74.56ZM232.161 59.872L233.349 61.4804L233.361 61.472L232.161 59.872ZM233.889 87.52L232.877 89.2454L233.889 87.52ZM269.025 99.328L269.534 97.3938L269.524 97.3914L269.025 99.328ZM317.409 121.504L316.095 123.013V123.013L317.409 121.504ZM312.513 206.464L313.775 208.015L313.778 208.013L312.513 206.464ZM258.945 220.88C226.4 220.88 198.366 210.301 174.743 189.134L172.074 192.114C196.451 213.955 225.441 224.88 258.945 224.88V220.88ZM174.944 191.906L201.152 160.514L198.081 157.95L171.873 189.342L174.944 191.906ZM198.344 160.775C218.382 177.312 238.882 185.712 259.809 185.712V181.712C240.031 181.712 220.403 173.792 200.89 157.689L198.344 160.775ZM259.809 185.712C269.059 185.712 276.601 183.945 282.23 180.192L280.011 176.864C275.272 180.023 268.606 181.712 259.809 181.712V185.712ZM282.23 180.192C287.961 176.371 290.897 170.952 290.897 164.128H286.897C286.897 169.592 284.648 173.773 280.011 176.864L282.23 180.192ZM290.897 164.128C290.897 157.604 287.788 152.398 281.914 148.622L279.751 151.986C284.629 155.122 286.897 159.132 286.897 164.128H290.897ZM281.956 148.649C276.256 144.782 265.086 140.778 248.79 136.56L247.787 140.432C264.131 144.662 274.657 148.53 279.71 151.959L281.956 148.649ZM248.774 136.556C237.292 133.685 228.063 130.923 221.06 128.273L219.645 132.015C226.85 134.741 236.245 137.547 247.803 140.436L248.774 136.556ZM221.104 128.291C214.148 125.47 207.466 121.801 201.058 117.278L198.751 120.546C205.399 125.239 212.349 129.058 219.601 131.997L221.104 128.291ZM201.081 117.295C195.018 112.885 190.544 107.399 187.62 100.82L183.965 102.444C187.185 109.689 192.119 115.723 198.728 120.529L201.081 117.295ZM187.646 100.881C184.886 94.0714 183.473 85.8909 183.473 76.288H179.473C179.473 86.2691 180.94 94.9846 183.939 102.383L187.646 100.881ZM183.473 76.288C183.473 58.5916 189.775 44.4753 202.354 33.7457L199.759 30.7023C186.226 42.2447 179.473 57.5044 179.473 76.288H183.473ZM202.343 33.755C215.163 22.9792 231.67 17.52 252.033 17.52V13.52C230.923 13.52 213.446 19.1968 199.77 30.693L202.343 33.755ZM252.033 17.52C280.209 17.52 304.722 25.9231 325.661 42.7123L328.164 39.5916C306.479 22.2049 281.072 13.52 252.033 13.52V17.52ZM325.266 40.0165L302.226 73.4245L305.519 75.6955L328.559 42.2874L325.266 40.0165ZM305.016 72.9192C285.818 59.5386 267.949 52.688 251.457 52.688V56.688C266.836 56.688 283.911 63.0854 302.729 76.2008L305.016 72.9192ZM251.457 52.688C242.949 52.688 236.036 54.4653 230.961 58.272L233.361 61.472C237.501 58.3667 243.452 56.688 251.457 56.688V52.688ZM230.972 58.2636C226.058 61.8952 223.537 66.8056 223.537 72.832H227.537C227.537 68.1063 229.431 64.3768 233.349 61.4803L230.972 58.2636ZM223.537 72.832C223.537 80.0598 226.688 85.6174 232.877 89.2454L234.9 85.7946C229.953 82.8946 227.537 78.6602 227.537 72.832H223.537ZM232.877 89.2454C238.723 92.6726 250.706 96.6662 268.525 101.265L269.524 97.3914C251.631 92.7737 240.19 88.8954 234.9 85.7946L232.877 89.2454ZM268.516 101.262C290.276 106.988 306.063 114.28 316.095 123.013L318.722 119.995C308.018 110.68 291.549 103.187 269.534 97.3938L268.516 101.262ZM316.095 123.013C325.929 131.571 330.961 143.922 330.961 160.384H334.961C334.961 143.054 329.624 129.485 318.722 119.995L316.095 123.013ZM330.961 160.384C330.961 179.444 324.358 194.205 311.247 204.915L313.778 208.013C327.931 196.451 334.961 180.492 334.961 160.384H330.961ZM311.25 204.913C298.258 215.492 280.89 220.88 258.945 220.88V224.88C281.543 224.88 299.887 219.324 313.775 208.015L311.25 204.913Z" fill="url(#paint0_linear)"/>
<g filter="url(#filter0_dddi)">
<path fill-rule="evenodd" clip-rule="evenodd" d="M296.832 122.106C302.177 112.631 315.822 112.631 321.167 122.106L369.979 208.637C374.424 216.516 368.731 226.265 359.684 226.265H258.316C249.269 226.265 243.575 216.516 248.02 208.637L296.832 122.106Z" fill="url(#paint1_linear)"/>
</g>
<path fill-rule="evenodd" clip-rule="evenodd" d="M301.541 124.305C304.843 118.54 313.158 118.54 316.46 124.305L365.951 210.705C368.824 215.72 365.203 221.967 359.424 221.967H258.577C252.798 221.967 249.177 215.72 252.05 210.705L301.541 124.305Z" fill="url(#paint2_linear)"/>
<g filter="url(#filter1_diii)">
<path fill-rule="evenodd" clip-rule="evenodd" d="M309 142.446C304.448 142.446 300.937 146.455 301.539 150.967L306.764 190.156C306.813 190.526 307.13 190.803 307.503 190.803H310.82C311.008 190.803 311.167 190.664 311.192 190.477L316.46 150.967C317.062 146.455 313.552 142.446 309 142.446ZM315.985 204.236C315.985 208.093 312.858 211.221 309 211.221C305.143 211.221 302.015 208.093 302.015 204.236C302.015 200.378 305.143 197.251 309 197.251C312.858 197.251 315.985 200.378 315.985 204.236Z" fill="url(#paint3_linear)"/>
</g>
<defs>
<filter id="filter0_dddi" x="244.478" y="113" width="129.044" height="115.265" filterUnits="userSpaceOnUse" color-interpolation-filters="sRGB">
<feFlood flood-opacity="0" result="BackgroundImageFix"/>
<feColorMatrix in="SourceAlpha" type="matrix" values="0 0 0 0 0 0 0 0 0 0 0 0 0 0 0 0 0 0 127 0"/>
<feOffset dy="1"/>
<feGaussianBlur stdDeviation="0.5"/>
<feColorMatrix type="matrix" values="0 0 0 0 0 0 0 0 0 0 0 0 0 0 0 0 0 0 0.200719 0"/>
<feBlend mode="normal" in2="BackgroundImageFix" result="effect1_dropShadow"/>
<feColorMatrix in="SourceAlpha" type="matrix" values="0 0 0 0 0 0 0 0 0 0 0 0 0 0 0 0 0 0 127 0"/>
<feOffset dy="0.5"/>
<feColorMatrix type="matrix" values="0 0 0 0 0 0 0 0 0 0 0 0 0 0 0 0 0 0 0.104704 0"/>
<feBlend mode="normal" in2="effect1_dropShadow" result="effect2_dropShadow"/>
<feColorMatrix in="SourceAlpha" type="matrix" values="0 0 0 0 0 0 0 0 0 0 0 0 0 0 0 0 0 0 127 0"/>
<feOffset/>
<feGaussianBlur stdDeviation="1"/>
<feColorMatrix type="matrix" values="0 0 0 0 0 0 0 0 0 0 0 0 0 0 0 0 0 0 0.201313 0"/>
<feBlend mode="normal" in2="effect2_dropShadow" result="effect3_dropShadow"/>
<feBlend mode="normal" in="SourceGraphic" in2="effect3_dropShadow" result="shape"/>
<feColorMatrix in="SourceAlpha" type="matrix" values="0 0 0 0 0 0 0 0 0 0 0 0 0 0 0 0 0 0 127 0" result="hardAlpha"/>
<feOffset dy="-0.5"/>
<feGaussianBlur stdDeviation="0.25"/>
<feComposite in2="hardAlpha" operator="arithmetic" k2="-1" k3="1"/>
<feColorMatrix type="matrix" values="0 0 0 0 0 0 0 0 0 0 0 0 0 0 0 0 0 0 0.149513 0"/>
<feBlend mode="normal" in2="shape" result="effect4_innerShadow"/>
</filter>
<filter id="filter1_diii" x="300.972" y="141.946" width="16.0558" height="70.2745" filterUnits="userSpaceOnUse" color-interpolation-filters="sRGB">
<feFlood flood-opacity="0" result="BackgroundImageFix"/>
<feColorMatrix in="SourceAlpha" type="matrix" values="0 0 0 0 0 0 0 0 0 0 0 0 0 0 0 0 0 0 127 0"/>
<feOffset dy="0.5"/>
<feGaussianBlur stdDeviation="0.25"/>
<feColorMatrix type="matrix" values="0 0 0 0 0 0 0 0 0 0 0 0 0 0 0 0 0 0 0.252236 0"/>
<feBlend mode="normal" in2="BackgroundImageFix" result="effect1_dropShadow"/>
<feBlend mode="normal" in="SourceGraphic" in2="effect1_dropShadow" result="shape"/>
<feColorMatrix in="SourceAlpha" type="matrix" values="0 0 0 0 0 0 0 0 0 0 0 0 0 0 0 0 0 0 127 0" result="hardAlpha"/>
<feOffset dy="0.5"/>
<feComposite in2="hardAlpha" operator="arithmetic" k2="-1" k3="1"/>
<feColorMatrix type="matrix" values="0 0 0 0 1 0 0 0 0 1 0 0 0 0 1 0 0 0 0.5 0"/>
<feBlend mode="normal" in2="shape" result="effect2_innerShadow"/>
<feColorMatrix in="SourceAlpha" type="matrix" values="0 0 0 0 0 0 0 0 0 0 0 0 0 0 0 0 0 0 127 0" result="hardAlpha"/>
<feOffset dy="-0.5"/>
<feGaussianBlur stdDeviation="0.5"/>
<feComposite in2="hardAlpha" operator="arithmetic" k2="-1" k3="1"/>
<feColorMatrix type="matrix" values="0 0 0 0 0.882353 0 0 0 0 0.666667 0 0 0 0 0 0 0 0 0.801404 0"/>
<feBlend mode="normal" in2="effect2_innerShadow" result="effect3_innerShadow"/>
<feColorMatrix in="SourceAlpha" type="matrix" values="0 0 0 0 0 0 0 0 0 0 0 0 0 0 0 0 0 0 127 0" result="hardAlpha"/>
<feOffset dy="-0.5"/>
<feGaussianBlur stdDeviation="0.25"/>
<feComposite in2="hardAlpha" operator="arithmetic" k2="-1" k3="1"/>
<feColorMatrix type="matrix" values="0 0 0 0 0 0 0 0 0 0 0 0 0 0 0 0 0 0 0.195511 0"/>
<feBlend mode="normal" in2="effect3_innerShadow" result="effect4_innerShadow"/>
</filter>
<linearGradient id="paint0_linear" x1="46.282" y1="-93.8443" x2="386.294" y2="47.8075" gradientUnits="userSpaceOnUse">
<stop stop-color="white"/>
<stop offset="1" stop-color="#696868" stop-opacity="0"/>
</linearGradient>
<linearGradient id="paint1_linear" x1="246.495" y1="111.66" x2="246.495" y2="226.265" gradientUnits="userSpaceOnUse">
<stop stop-color="#FDFDFD"/>
<stop offset="1" stop-color="#E6E6E6"/>
</linearGradient>
<linearGradient id="paint2_linear" x1="251.054" y1="121.067" x2="251.054" y2="221.967" gradientUnits="userSpaceOnUse">
<stop stop-color="#FEE543"/>
<stop offset="1" stop-color="#E1AA00"/>
</linearGradient>
<linearGradient id="paint3_linear" x1="301.472" y1="142.446" x2="301.472" y2="211.221" gradientUnits="userSpaceOnUse">
<stop stop-color="#FAF8EC"/>
<stop offset="0.972577" stop-color="#E6E7E7"/>
</linearGradient>
</defs>
</svg>
