<svg width="88" height="72" viewBox="0 0 88 72" fill="none" xmlns="http://www.w3.org/2000/svg">
<path fill-rule="evenodd" clip-rule="evenodd" d="M17.1283 71.0293L-0.000297546 71.0293L11.2575 35.3648C5.89876 31.9671 0.780254 25.9819 0.780255 19.1665C0.780256 8.58126 9.36165 -0.000144161 19.9469 -0.000143235C30.5322 -0.00014231 39.1136 8.58126 39.1136 19.1665C39.1136 36.1778 17.1283 71.0293 17.1283 71.0293ZM65.5215 71.0293L48.3929 71.0293L59.6507 35.3648C54.292 31.9671 49.1735 25.9819 49.1735 19.1665C49.1735 8.58126 57.7549 -0.00013993 68.3402 -0.000139005C78.9254 -0.000138079 87.5068 8.58126 87.5068 19.1665C87.5068 36.1778 65.5215 71.0293 65.5215 71.0293Z" fill="white"/>
</svg>
