<svg width="88" height="72" viewBox="0 0 88 72" fill="none" xmlns="http://www.w3.org/2000/svg">
<path fill-rule="evenodd" clip-rule="evenodd" d="M21.9853 0H39.1139L27.8561 35.6645C33.2148 39.0622 38.3334 45.0474 38.3334 51.8628C38.3334 62.448 29.7519 71.0294 19.1667 71.0294C8.5814 71.0294 0 62.448 0 51.8628C0 34.8515 21.9853 0 21.9853 0ZM70.3785 0H87.5071L76.2494 35.6645C81.6081 39.0622 86.7266 45.0474 86.7266 51.8628C86.7266 62.448 78.1452 71.0294 67.5599 71.0294C56.9746 71.0294 48.3932 62.448 48.3932 51.8628C48.3932 34.8515 70.3785 0 70.3785 0Z" fill="white"/>
</svg>
