<?xml version="1.0" encoding="UTF-8"?>
<svg width="280px" height="280px" viewBox="0 0 280 280" version="1.1" xmlns="http://www.w3.org/2000/svg" xmlns:xlink="http://www.w3.org/1999/xlink">
    <!-- Generator: Sketch 63.1 (92452) - https://sketch.com -->
    <title>Group 7</title>
    <desc>Created with Sketch.</desc>
    <defs>
        <ellipse id="path-1" cx="112.071418" cy="112" rx="112.05" ry="112"></ellipse>
    </defs>
    <g id="Typing-School-2.5.4" stroke="none" stroke-width="1" fill="none" fill-rule="evenodd">
        <g id="Sprinter-1" transform="translate(-669.000000, -198.000000)">
            <g id="Group-2" transform="translate(668.976010, 198.000000)">
                <g id="Group-7" transform="translate(0.023990, 0.000000)">
                    <circle id="Oval-Copy" fill="#9DD7FF" opacity="0.209999993" cx="140" cy="140" r="140"></circle>
                    <g id="Bitmap" transform="translate(28.000000, 28.000000)">
                        <mask id="mask-2" fill="white">
                            <use xlink:href="#path-1"></use>
                        </mask>
                        <use id="Mask" fill="#9DD7FF" xlink:href="#path-1"></use>
                        <g id="shoe-copy" mask="url(#mask-2)">
                            <g transform="translate(112.000000, 111.500000) rotate(15.000000) translate(-112.000000, -111.500000) translate(25.000000, 64.000000)">
                                <path d="M122.398248,44.232287 C114.521681,39.9129618 105.846999,34.5249516 96.8215942,27.804858 C85.0240659,19.0207895 75.3998273,10.0254533 67.7327701,1.90125318 C66.0537249,0.415520526 63.5521487,0.569169702 62.0443403,2.24181932 C60.8905535,3.52177183 59.5378151,5.49280266 58.1398754,8.52600202 C54.3165749,16.8216856 55.6082751,24.104245 55.6082751,24.104245 L119.471054,45.8799001 L122.398248,44.232287 Z" id="Path" fill="#2D22C0" fill-rule="nonzero"></path>
                                <path d="M171.00502,64.6325562 L171.00502,63.1671666 C171.00502,55.2353096 165.555982,48.3812536 157.928925,46.7202079 L140.018999,44.9389928 C118.337635,42.7823753 97.4142178,35.6778253 78.808564,24.1544267 L69.3521844,18.2976074 C66.2894501,16.400962 62.3383397,16.9510332 59.8898159,19.6150702 C50.6054552,29.7170849 35.0325905,30.2725721 25.075127,20.8567077 L22.9393647,18.3389051 C21.049819,16.1112014 17.4803443,16.9347849 16.7207329,19.7734907 L13.8213666,30.610062 C12.6159036,35.1152295 12.0050204,39.7635847 12.0050204,44.4325888 L12.0050204,63.3357423 L12.0050204,80.0633219 L163.067531,77.3393695 L171.00502,64.6325562 Z" id="Path" fill="#245DF4" fill-rule="nonzero"></path>
                                <g id="Group" stroke-width="1" fill="none" fill-rule="evenodd" transform="translate(11.987983, 16.933912)">
                                    <path d="M158.400821,49.6611926 L159.809532,47.4307053 L159.809532,45.9758644 C159.809532,44.9495109 159.714349,43.9419772 159.536006,42.960993 L145.171363,60.1653527 L149.698074,60.0846962 L158.400821,49.6611926 Z" id="Path" fill="#2D22C0" fill-rule="nonzero"></path>
                                    <path d="M18.9614888,46.1438987 L18.9614888,27.37682 C18.9614888,22.7414259 19.5743349,18.1265319 20.78433,13.6537949 L21.981634,9.22844367 C18.8602941,8.12714687 15.9076121,6.38059838 13.3306531,3.97065047 L11.1868609,1.47097225 C9.2902111,-0.740695187 5.7073163,0.0769597086 4.94484903,2.89523096 L2.03458195,13.6537949 C0.824586807,18.1265319 0.211406824,22.7414259 0.211406824,27.37682 L0.211406824,46.1438987 L0.211406824,62.7510644 L18.9614888,62.4166762 C18.9614888,62.4166762 18.9614888,46.1438987 18.9614888,46.1438987 Z" id="Path" fill="#2D22C0" fill-rule="nonzero"></path>
                                </g>
                                <path d="M40.8904702,61.3289189 L40.8904702,57.5144692 C40.8904702,51.2617331 36.2039815,46.1932274 30.4230492,46.1932274 L11.8904702,46.1932274 L11.8904702,62.6826257 L11.8904702,65.8107482 L40.8904702,67.1932274 L40.8904702,61.3289189 Z" id="Path" fill="#F2EDEC" fill-rule="nonzero"></path>
                                <polygon id="Path" fill="#E4DAD8" fill-rule="nonzero" points="30.095851 65.8107482 30.095851 62.6826257 30.095851 46.1932274 11.8904702 46.1932274 11.8904702 62.6826257 11.8904702 65.8107482 40.8904702 67.1932274 40.8904702 66.3640907"></polygon>
                                <path d="M163.822695,70.3424369 C132.569258,80.3227394 109.811836,78.466022 94.4613672,74.6240227 C78.4657617,70.6203439 63.4303906,62.6337645 37.6192773,61.9289326 C27.6523632,61.6568694 19.2908203,62.5214329 13.444082,63.3918402 C12.3042187,63.5616362 11.319082,64.255105 10.7875,65.2550508 L3.22150387,79.490317 L3.22150387,79.490317 C3.22150387,86.3318288 8.89591793,91.8776316 15.8954687,91.8776316 L54.5900586,91.8776316 C55.7797265,91.8776316 56.8053711,90.9494353 56.7794726,89.786836 C56.7489257,88.410612 58.0305664,87.3700841 59.4025195,87.6421472 L83.5511523,91.7542617 C84.0342578,91.8364001 84.5236718,91.8779563 85.01375,91.8779563 L131.900215,91.8779563 C133.487988,91.8779563 135.067129,91.6539425 136.58916,91.2127326 L164.899805,83.0083079 C169.835781,81.577866 173.221504,77.1449898 173.221504,72.11312 L173.221504,70.8638372 L173.221504,65.7355442 C173.221504,64.7203395 172.205488,64.001872 171.219023,64.3197119 L170.717656,64.4810668 C167.707461,65.4504947 165.222539,67.5627177 163.822695,70.3424369 C161.271699,75.4074217 158.720703,80.4727312 156.169707,85.5380407" id="Path" fill="#FDFEFF" fill-rule="nonzero"></path>
                                <g id="Group" stroke-width="1" fill="none" fill-rule="evenodd" transform="translate(2.126169, 61.153812)">
                                    <path d="M169.736368,12.8489409 C169.874783,12.1303818 169.949136,11.3918719 169.949136,10.6393966 L169.949136,9.35988916 L169.949136,4.10752463 C169.949136,3.06742611 168.933424,2.33190887 167.947255,2.65743842 L167.446038,2.82269704 C164.436743,3.81591133 161.952565,5.97923645 160.55314,8.82587438 C148.802418,12.6703818 138.253622,14.7991256 128.847668,15.7504433 C139.911954,16.9491502 153.473032,16.60367 169.736368,12.8489409 Z" id="Path" fill="#CFD2DC" fill-rule="nonzero"></path>
                                    <path d="M23.5714805,18.1954064 L23.5714805,18.1954064 L31.9750005,1.99673645 C34.741321,1.53687192 38.2302573,1.04575123 42.2967551,0.686305419 C39.7714172,0.452881773 37.1441761,0.286293103 34.3874816,0.209150246 C24.4235497,-0.0694950739 16.0645085,0.815985222 10.2195195,1.70745074 C9.0799973,1.88135468 8.09515533,2.59160099 7.56373235,3.61573892 L0,18.1954064 L0,18.1954064 C0,25.2024384 5.67271628,30.8824138 12.6701728,30.8824138 L36.2416533,30.8824138 C29.2441967,30.8824138 23.5714805,25.2021059 23.5714805,18.1954064 Z" id="Path" fill="#CFD2DC" fill-rule="nonzero"></path>
                                </g>
                                <path d="M28.3107118,80.586761 L1.70977728,80.586761 L1.70977728,80.586761 C1.70977728,88.3185917 7.26111283,94.586761 14.1088428,94.586761 L40.7097773,94.586761 L40.7097773,94.586761 C40.7097773,86.8549304 35.1584417,80.586761 28.3107118,80.586761 Z" id="Path" fill="#5B94FF" fill-rule="nonzero"></path>
                                <path d="M23.4328154,78.3360312 L23.4328154,78.3360312 L0.0185055795,78.3360312 L0.0185055795,78.3360312 C0.0185055795,86.0678619 5.65339714,92.3360312 12.6041958,92.3360312 L36.0185056,92.3360312 C29.0677069,92.3360312 23.4328154,86.0678619 23.4328154,78.3360312 Z" id="Path" fill="#0523AB" fill-rule="nonzero"></path>
                                <path d="M87.7815531,84.5937322 L80.323708,91.3228581 L80.323708,91.3228581 C80.8176837,91.4016652 81.31811,91.4415359 81.8192152,91.4415359 L125.323708,91.4415359 L96.0127843,82.8011052 C93.1195464,81.9482447 89.9485958,82.6388188 87.7815531,84.5937322 Z" id="Path" fill="#5D95FF" fill-rule="nonzero"></path>
                                <g id="Group" stroke-width="1" fill="none" fill-rule="evenodd" transform="translate(61.877347, 6.923265)">
                                    <path d="M2.86621353,21.3402144 C2.28441097,21.3402144 1.69893035,21.1504849 1.21877605,20.7616845 C0.134416454,19.8848703 -0.00635301646,18.3274138 0.904134554,17.2830965 L15.0556459,1.05655788 C15.9664679,0.0125627309 17.5838121,-0.123050339 18.6681717,0.753763855 C19.7525313,1.63057805 19.8933008,3.18803456 18.9828132,4.23235183 L4.83130184,20.4588905 C4.32372926,21.0403194 3.59747916,21.3402144 2.86621353,21.3402144 Z" id="Path" fill="#0A1A79" fill-rule="nonzero"></path>
                                    <path d="M13.9953609,26.132413 C13.4135583,26.132413 12.8280777,25.9426836 12.3475891,25.5538832 C11.2632295,24.677069 11.12246,23.1196125 12.0329476,22.0752952 L24.0411518,8.30589786 C24.9519737,7.26190271 26.569318,7.12596752 27.6536776,8.00310383 C28.7380372,8.87991803 28.8788066,10.4373745 27.9683191,11.4816918 L15.9601148,25.2510891 C15.453211,25.8325181 14.7269609,26.132413 13.9953609,26.132413 Z" id="Path" fill="#0A1A79" fill-rule="nonzero"></path>
                                    <path d="M24.7613832,30.8382832 C24.1795807,30.8382832 23.5941,30.6485537 23.1139457,30.2597533 C22.0295861,29.3829391 21.8888167,27.8254826 22.7993042,26.7811653 L33.1279715,14.9377313 C34.0391278,13.8937361 35.6561377,13.757801 36.7404973,14.6349373 C37.8248569,15.5117515 37.9656264,17.069208 37.0551388,18.1135252 L26.7261372,29.9569593 C26.2192333,30.5387104 25.4929832,30.8382832 24.7613832,30.8382832 Z" id="Path" fill="#0A1A79" fill-rule="nonzero"></path>
                                </g>
                            </g>
                        </g>
                    </g>
                    <circle id="Oval" fill="#9DD7FF" opacity="0.200000003" cx="140.5" cy="139.5" r="125.5"></circle>
                </g>
            </g>
        </g>
    </g>
</svg>