<svg width="56" height="53" viewBox="0 0 56 53" fill="none" xmlns="http://www.w3.org/2000/svg">
<path d="M26.2322 1.0373C26.9979 -0.345765 29.0021 -0.345765 29.7678 1.0373L37.6237 15.2267C37.7686 15.4883 38.0237 15.6721 38.3193 15.7278L54.3582 18.7507C55.9215 19.0453 56.5408 20.935 55.4507 22.0845L44.2671 33.8769C44.061 34.0943 43.9635 34.3916 44.0014 34.6876L46.058 50.7453C46.2585 52.3104 44.6371 53.4784 43.1977 52.8057L28.4299 45.9044C28.1577 45.7772 27.8423 45.7772 27.5701 45.9044L12.8023 52.8057C11.3629 53.4784 9.74151 52.3105 9.94197 50.7453L11.9985 34.6876C12.0365 34.3916 11.939 34.0943 11.7329 33.8769L0.549282 22.0845C-0.540795 20.935 0.0785106 19.0453 1.64184 18.7507L17.6807 15.7278C17.9763 15.6721 18.2314 15.4883 18.3762 15.2267L26.2322 1.0373Z" fill="url(#paint0_radial)"/>
<path opacity="0.9" fill-rule="evenodd" clip-rule="evenodd" d="M1.15175 23.1482C0.740035 22.4755 0.355801 21.7861 0.000488281 21.0814C0.0152853 20.1718 0.631401 19.2985 1.64205 19.1044L17.6809 16.0245C17.9765 15.9678 18.2316 15.7805 18.3765 15.514L26.2324 1.05687C26.9982 -0.352289 29.0023 -0.352289 29.768 1.05687L37.624 15.514C37.7688 15.7805 38.0239 15.9678 38.3196 16.0245L54.3584 19.1044C55.9217 19.4046 56.541 21.33 55.4509 22.5012L45.1925 33.5222C40.3529 36.3597 34.6311 38 28.5002 38C21.2557 38 14.5824 35.7097 9.26079 31.86L1.15175 23.1482Z" fill="url(#paint1_linear)"/>
<path fill-rule="evenodd" clip-rule="evenodd" d="M36.2979 15.9483L28.4419 1.75886C28.2505 1.4131 27.7495 1.4131 27.5581 1.75886L19.7021 15.9483C19.34 16.6022 18.7023 17.0616 17.9631 17.2009L1.92429 20.2238C1.53346 20.2975 1.37863 20.7699 1.65115 21.0573L12.8347 32.8497C13.3501 33.3932 13.5937 34.1365 13.499 34.8765L11.4424 50.9342C11.3923 51.3255 11.7976 51.6175 12.1575 51.4493L26.9253 44.548C27.6058 44.2299 28.3942 44.2299 29.0747 44.548L43.8425 51.4493C44.2024 51.6175 44.6077 51.3255 44.5576 50.9342L42.501 34.8765C42.4063 34.1365 42.6499 33.3932 43.1653 32.8497L54.3488 21.0573C54.6214 20.7699 54.4665 20.2975 54.0757 20.2238L38.0369 17.2009C37.2977 17.0616 36.66 16.6022 36.2979 15.9483ZM29.7678 1.0373C29.0021 -0.345765 26.9979 -0.345765 26.2322 1.0373L18.3762 15.2267C18.2314 15.4883 17.9763 15.6721 17.6807 15.7278L1.64184 18.7507C0.0785106 19.0453 -0.540795 20.935 0.549282 22.0845L11.7329 33.8769C11.939 34.0943 12.0365 34.3916 11.9985 34.6876L9.94197 50.7453C9.74151 52.3105 11.3629 53.4784 12.8023 52.8057L27.5701 45.9044C27.8423 45.7772 28.1577 45.7772 28.4299 45.9044L43.1977 52.8057C44.6371 53.4784 46.2585 52.3104 46.058 50.7453L44.0014 34.6876C43.9635 34.3916 44.061 34.0943 44.2671 33.8769L55.4507 22.0845C56.5408 20.935 55.9215 19.0453 54.3582 18.7507L38.3193 15.7278C38.0237 15.6721 37.7686 15.4883 37.6237 15.2267L29.7678 1.0373Z" fill="url(#paint2_linear)"/>
<path opacity="0.43" fill-rule="evenodd" clip-rule="evenodd" d="M35.2072 17.0456L27.8853 3.6593C27.7069 3.33311 27.2399 3.33311 27.0615 3.6593L19.7396 17.0456C19.4021 17.6625 18.8077 18.0959 18.1188 18.2273L2.79347 20.7008C2.42921 20.7703 2.28491 21.216 2.5389 21.4871L13.3391 32.9903C13.8194 33.503 14.0465 34.2042 13.9581 34.9024L12.0414 50.0511C11.9947 50.4203 12.3725 50.6957 12.7079 50.5371L26.4717 42.3509C27.106 42.0508 27.8407 42.0508 28.4751 42.3509L42.2389 50.5371C42.5743 50.6957 42.9521 50.4203 42.9054 50.0511L40.9886 34.9024C40.9003 34.2042 41.1273 33.503 41.6077 32.9903L52.4611 21.8653C52.7151 21.5943 52.5708 21.1486 52.2065 21.0791L36.8279 18.2273C36.139 18.0959 35.5446 17.6625 35.2072 17.0456ZM29.121 2.97858C28.4073 1.67381 26.5394 1.67381 25.8258 2.97858L18.5039 16.3648C18.3689 16.6116 18.1311 16.785 17.8556 16.8375L2.53022 19.311C1.07317 19.589 0.49597 21.3718 1.51194 22.4561L12.3121 33.9593C12.5043 34.1644 12.5951 34.4449 12.5597 34.7242L10.643 49.8729C10.4561 51.3495 11.9673 52.4513 13.3089 51.8167L27.0727 45.306C27.3264 45.186 27.6203 45.186 27.874 45.306L41.6379 51.8167C42.9795 52.4513 44.4906 51.3495 44.3038 49.8729L42.387 34.7242C42.3517 34.4449 42.4425 34.1644 42.6347 33.9593L53.4881 22.8344C54.504 21.75 53.9268 19.9673 52.4698 19.6893L37.0912 16.8375C36.8156 16.785 36.5779 16.6116 36.4429 16.3648L29.121 2.97858Z" fill="url(#paint3_linear)"/>
<defs>
<radialGradient id="paint0_radial" cx="0" cy="0" r="1" gradientUnits="userSpaceOnUse" gradientTransform="translate(28 28.085) rotate(87.8527) scale(33.6382 47.135)">
<stop stop-color="#FEEC6E"/>
<stop offset="0.272727" stop-color="#FEE85B"/>
<stop offset="0.989669" stop-color="#E59D17"/>
</radialGradient>
<linearGradient id="paint1_linear" x1="28.0005" y1="11.8098" x2="27.9375" y2="38.1379" gradientUnits="userSpaceOnUse">
<stop offset="0.0907254" stop-color="white"/>
<stop offset="1" stop-color="#FFFFF0" stop-opacity="0.26"/>
</linearGradient>
<linearGradient id="paint2_linear" x1="26.8657" y1="-8.65368" x2="27.9807" y2="79.8193" gradientUnits="userSpaceOnUse">
<stop stop-color="#FCA11D" stop-opacity="0"/>
<stop offset="0.463013" stop-color="#ECA11D"/>
<stop offset="1" stop-color="#D3A01D"/>
</linearGradient>
<linearGradient id="paint3_linear" x1="26.4161" y1="-6.16384" x2="27.4809" y2="57.0124" gradientUnits="userSpaceOnUse">
<stop stop-color="#FCA11D" stop-opacity="0"/>
<stop offset="1" stop-color="#D3A01D"/>
</linearGradient>
</defs>
</svg>
