<svg width="34" height="34" viewBox="0 0 34 34" fill="none" xmlns="http://www.w3.org/2000/svg">
<path fill-rule="evenodd" clip-rule="evenodd" d="M24.5004 8.59998C24.0033 8.59998 23.6004 9.00292 23.6004 9.49998V16.25C23.6004 17.4098 22.6602 18.35 21.5004 18.35H12.0482L16.2394 14.1588C16.5908 13.8073 16.5908 13.2375 16.2394 12.886C15.8879 12.5345 15.318 12.5345 14.9666 12.886L9.23899 18.6136C8.88752 18.9651 8.88752 19.5349 9.23899 19.8864L14.9666 25.6139C15.318 25.9654 15.8879 25.9654 16.2394 25.6139C16.5908 25.2625 16.5908 24.6926 16.2394 24.3411L12.0482 20.15H21.5004C23.6543 20.15 25.4004 18.4039 25.4004 16.25V9.49998C25.4004 9.00292 24.9974 8.59998 24.5004 8.59998Z" fill="#0082FF"/>
</svg>
